Narnoor-ExtraBold.ufo
<glyph name="exclam" format="2">
  <advance width="339"/>
  <unicode hex="0021"/>
  <outline>
    <contour>
      <point x="224" y="190" type="line"/>
      <point x="273" y="548" type="line"/>
      <point x="273" y="608"/>
      <point x="234" y="637"/>
      <point x="190" y="637" type="curve" smooth="yes"/>
      <point x="146" y="637"/>
      <point x="107" y="608"/>
      <point x="107" y="548" type="curve"/>
      <point x="157" y="190" type="line"/>
    </contour>
    <contour>
      <point x="192" y="-6" type="line"/>
      <point x="266" y="68" type="line"/>
      <point x="191" y="147" type="line"/>
      <point x="115" y="68" type="line"/>
    </contour>
  </outline>
</glyph>
<glyph name="numbersign" format="2">
  <advance width="586"/>
  <unicode hex="0023"/>
  <outline>
    <contour>
      <point x="541" y="452" type="line"/>
      <point x="45" y="452" type="line"/>
      <point x="45" y="370" type="line"/>
      <point x="541" y="370" type="line"/>
    </contour>
    <contour>
      <point x="45" y="180" type="line"/>
      <point x="541" y="180" type="line"/>
      <point x="541" y="263" type="line"/>
      <point x="45" y="263" type="line"/>
    </contour>
    <contour>
      <point x="235" y="651" type="line"/>
      <point x="98" y="-6" type="line"/>
      <point x="177" y="-6" type="line"/>
      <point x="314" y="651" type="line"/>
    </contour>
    <contour>
      <point x="420" y="651" type="line"/>
      <point x="283" y="-6" type="line"/>
      <point x="362" y="-6" type="line"/>
      <point x="499" y="651" type="line"/>
    </contour>
  </outline>
</glyph>
<glyph name="dollar" format="2">
  <advance width="510"/>
  <unicode hex="0024"/>
  <outline>
    <contour>
      <point x="237" y="-11" type="curve" smooth="yes"/>
      <point x="378" y="-11"/>
      <point x="452" y="68"/>
      <point x="452" y="179" type="curve" smooth="yes"/>
      <point x="452" y="364"/>
      <point x="197" y="356"/>
      <point x="197" y="448" type="curve" smooth="yes"/>
      <point x="197" y="492"/>
      <point x="222" y="510"/>
      <point x="268" y="510" type="curve" smooth="yes"/>
      <point x="309" y="510"/>
      <point x="339" y="493"/>
      <point x="374" y="462" type="curve"/>
      <point x="445" y="543" type="line"/>
      <point x="400" y="591"/>
      <point x="344" y="625"/>
      <point x="261" y="625" type="curve" smooth="yes"/>
      <point x="138" y="625"/>
      <point x="61" y="554"/>
      <point x="61" y="441" type="curve" smooth="yes"/>
      <point x="61" y="267"/>
      <point x="316" y="269"/>
      <point x="316" y="169" type="curve" smooth="yes"/>
      <point x="316" y="125"/>
      <point x="292" y="103"/>
      <point x="237" y="103" type="curve" smooth="yes"/>
      <point x="191" y="103"/>
      <point x="148" y="122"/>
      <point x="99" y="159" type="curve"/>
      <point x="37" y="63" type="line"/>
      <point x="92" y="14"/>
      <point x="176" y="-11"/>
    </contour>
    <contour>
      <point x="207" y="-106" type="line"/>
      <point x="301" y="-106" type="line"/>
      <point x="301" y="46" type="line"/>
      <point x="207" y="46" type="line"/>
    </contour>
    <contour>
      <point x="207" y="581" type="line"/>
      <point x="301" y="581" type="line"/>
      <point x="301" y="720" type="line"/>
      <point x="207" y="720" type="line"/>
    </contour>
  </outline>
</glyph>
<glyph name="percent" format="2">
  <advance width="695"/>
  <unicode hex="0025"/>
  <outline>
    <contour>
      <point x="76" y="457" type="curve" smooth="yes"/>
      <point x="76" y="374"/>
      <point x="133" y="323"/>
      <point x="208" y="323" type="curve" smooth="yes"/>
      <point x="294" y="323"/>
      <point x="339" y="409"/>
      <point x="339" y="477" type="curve" smooth="yes"/>
      <point x="339" y="552"/>
      <point x="279" y="603"/>
      <point x="198" y="603" type="curve" smooth="yes"/>
      <point x="121" y="603"/>
      <point x="76" y="519"/>
    </contour>
    <contour>
      <point x="403" y="289"/>
      <point x="352" y="219"/>
      <point x="352" y="149" type="curve" smooth="yes"/>
      <point x="352" y="80"/>
      <point x="395" y="11"/>
      <point x="486" y="11" type="curve" smooth="yes"/>
      <point x="567" y="11"/>
      <point x="614" y="90"/>
      <point x="614" y="164" type="curve" smooth="yes"/>
      <point x="614" y="246"/>
      <point x="549" y="289"/>
      <point x="474" y="289" type="curve" smooth="yes"/>
    </contour>
    <contour>
      <point x="188" y="-22" type="line"/>
      <point x="576" y="644" type="line"/>
      <point x="511" y="644" type="line"/>
      <point x="126" y="-22" type="line"/>
    </contour>
    <contour>
      <point x="137" y="491" type="curve" smooth="yes"/>
      <point x="137" y="521"/>
      <point x="156" y="544"/>
      <point x="188" y="544" type="curve" smooth="yes"/>
      <point x="238" y="544"/>
      <point x="278" y="475"/>
      <point x="278" y="433" type="curve" smooth="yes"/>
      <point x="278" y="409"/>
      <point x="262" y="381"/>
      <point x="230" y="381" type="curve" smooth="yes"/>
      <point x="170" y="381"/>
      <point x="137" y="447"/>
    </contour>
    <contour>
      <point x="415" y="179" type="curve" smooth="yes"/>
      <point x="415" y="209"/>
      <point x="432" y="230"/>
      <point x="462" y="230" type="curve" smooth="yes"/>
      <point x="518" y="230"/>
      <point x="554" y="158"/>
      <point x="554" y="117" type="curve" smooth="yes"/>
      <point x="554" y="99"/>
      <point x="543" y="68"/>
      <point x="507" y="68" type="curve" smooth="yes"/>
      <point x="449" y="64"/>
      <point x="415" y="129"/>
    </contour>
  </outline>
</glyph>
<glyph name="ampersand" format="2">
  <advance width="645"/>
  <unicode hex="0026"/>
  <outline>
    <contour>
      <point x="234" y="-11" type="curve" smooth="yes"/>
      <point x="339" y="-11"/>
      <point x="421" y="31"/>
      <point x="480" y="97" type="curve" smooth="yes"/>
      <point x="549" y="174"/>
      <point x="594" y="261"/>
      <point x="623" y="356" type="curve"/>
      <point x="494" y="356" type="line"/>
      <point x="472" y="274"/>
      <point x="432" y="209"/>
      <point x="383" y="160" type="curve" smooth="yes"/>
      <point x="342" y="121"/>
      <point x="295" y="96"/>
      <point x="251" y="96" type="curve" smooth="yes"/>
      <point x="196" y="96"/>
      <point x="158" y="129"/>
      <point x="158" y="176" type="curve" smooth="yes"/>
      <point x="158" y="292"/>
      <point x="426" y="331"/>
      <point x="426" y="499" type="curve" smooth="yes"/>
      <point x="426" y="585"/>
      <point x="366" y="641"/>
      <point x="272" y="641" type="curve" smooth="yes"/>
      <point x="166" y="641"/>
      <point x="100" y="566"/>
      <point x="100" y="476" type="curve" smooth="yes"/>
      <point x="100" y="350"/>
      <point x="239" y="178"/>
      <point x="397" y="73" type="curve" smooth="yes"/>
      <point x="462" y="30"/>
      <point x="530" y="0"/>
      <point x="593" y="-11" type="curve"/>
      <point x="627" y="103" type="line"/>
      <point x="585" y="109"/>
      <point x="534" y="132"/>
      <point x="482" y="163" type="curve" smooth="yes"/>
      <point x="353" y="241"/>
      <point x="217" y="377"/>
      <point x="217" y="477" type="curve" smooth="yes"/>
      <point x="217" y="521"/>
      <point x="242" y="547"/>
      <point x="274" y="547" type="curve" smooth="yes"/>
      <point x="304" y="547"/>
      <point x="318" y="528"/>
      <point x="318" y="498" type="curve" smooth="yes"/>
      <point x="318" y="375"/>
      <point x="23" y="374"/>
      <point x="23" y="168" type="curve" smooth="yes"/>
      <point x="23" y="71"/>
      <point x="96" y="-11"/>
    </contour>
  </outline>
</glyph>
<glyph name="quotesingle" format="2">
  <advance width="299"/>
  <unicode hex="0027"/>
  <outline>
    <contour>
      <point x="164" y="600" type="line"/>
      <point x="213" y="821" type="line"/>
      <point x="86" y="833" type="line"/>
      <point x="86" y="765"/>
      <point x="120" y="672"/>
      <point x="120" y="600" type="curve"/>
    </contour>
  </outline>
</glyph>
<glyph name="parenleft" format="2">
  <advance width="334"/>
  <unicode hex="0028"/>
  <outline>
    <contour>
      <point x="249" y="-122" type="curve"/>
      <point x="278" y="-73" type="line"/>
      <point x="201" y="14"/>
      <point x="148" y="166"/>
      <point x="148" y="329" type="curve" smooth="yes"/>
      <point x="148" y="466"/>
      <point x="186" y="611"/>
      <point x="278" y="732" type="curve"/>
      <point x="249" y="781" type="line"/>
      <point x="92" y="632"/>
      <point x="35" y="472"/>
      <point x="35" y="327" type="curve" smooth="yes"/>
      <point x="35" y="127"/>
      <point x="144" y="-44"/>
    </contour>
  </outline>
</glyph>
<glyph name="asterisk" format="2">
  <advance width="545"/>
  <unicode hex="002A"/>
  <outline>
    <contour>
      <point x="251" y="392" type="line"/>
      <point x="279" y="392" type="line"/>
      <point x="318" y="514" type="line"/>
      <point x="265" y="569" type="line"/>
      <point x="212" y="514" type="line"/>
    </contour>
    <contour>
      <point x="265" y="290" type="line"/>
      <point x="319" y="325" type="line"/>
      <point x="319" y="379" type="line"/>
      <point x="265" y="414" type="line"/>
      <point x="211" y="379" type="line"/>
      <point x="211" y="325" type="line"/>
    </contour>
    <contour>
      <point x="251" y="312" type="line"/>
      <point x="212" y="190" type="line"/>
      <point x="265" y="135" type="line"/>
      <point x="318" y="190" type="line"/>
      <point x="279" y="312" type="line"/>
    </contour>
    <contour>
      <point x="307" y="344" type="line"/>
      <point x="293" y="320" type="line"/>
      <point x="379" y="225" type="line"/>
      <point x="453" y="244" type="line"/>
      <point x="432" y="317" type="line"/>
    </contour>
    <contour>
      <point x="237" y="384" type="line"/>
      <point x="151" y="479" type="line"/>
      <point x="77" y="461" type="line"/>
      <point x="98" y="387" type="line"/>
      <point x="223" y="360" type="line"/>
    </contour>
    <contour>
      <point x="237" y="320" type="line"/>
      <point x="223" y="344" type="line"/>
      <point x="98" y="317" type="line"/>
      <point x="77" y="243" type="line"/>
      <point x="151" y="225" type="line"/>
    </contour>
    <contour>
      <point x="307" y="360" type="line"/>
      <point x="432" y="387" type="line"/>
      <point x="453" y="460" type="line"/>
      <point x="379" y="479" type="line"/>
      <point x="293" y="384" type="line"/>
    </contour>
  </outline>
</glyph>
<glyph name="plus" format="2">
  <advance width="711"/>
  <unicode hex="002B"/>
  <outline>
    <contour>
      <point x="80" y="274" type="line"/>
      <point x="623" y="274" type="line"/>
      <point x="623" y="374" type="line"/>
      <point x="80" y="374" type="line"/>
    </contour>
    <contour>
      <point x="302" y="596" type="line"/>
      <point x="302" y="53" type="line"/>
      <point x="402" y="53" type="line"/>
      <point x="402" y="596" type="line"/>
    </contour>
  </outline>
</glyph>
<glyph name="comma" format="2">
  <advance width="237"/>
  <unicode hex="002C"/>
  <outline>
    <contour>
      <point x="183" y="45" type="curve" smooth="yes"/>
      <point x="183" y="80"/>
      <point x="154" y="122"/>
      <point x="122" y="163" type="curve"/>
      <point x="24" y="56" type="line"/>
      <point x="73" y="-2"/>
      <point x="78" y="-9"/>
      <point x="78" y="-19" type="curve" smooth="yes"/>
      <point x="78" y="-29"/>
      <point x="53" y="-62"/>
      <point x="-1" y="-125" type="curve"/>
      <point x="39" y="-160" type="line"/>
      <point x="131" y="-62"/>
      <point x="183" y="19"/>
    </contour>
  </outline>
</glyph>
<glyph name="hyphen" format="2">
  <advance width="638"/>
  <unicode hex="002D"/>
  <outline>
    <contour>
      <point x="80" y="240" type="line"/>
      <point x="558" y="240" type="line"/>
      <point x="558" y="334" type="line"/>
      <point x="80" y="334" type="line"/>
    </contour>
  </outline>
</glyph>
<glyph name="period" format="2">
  <advance width="241"/>
  <unicode hex="002E"/>
  <outline>
    <contour>
      <point x="108" y="-5" type="line"/>
      <point x="190" y="75" type="line"/>
      <point x="116" y="154" type="line"/>
      <point x="34" y="75" type="line"/>
    </contour>
  </outline>
</glyph>
<glyph name="slash" format="2">
  <advance width="474"/>
  <unicode hex="002F"/>
  <outline>
    <contour>
      <point x="17" y="-31" type="line"/>
      <point x="117" y="-31" type="line"/>
      <point x="414" y="704" type="line"/>
      <point x="313" y="704" type="line"/>
    </contour>
  </outline>
</glyph>
<glyph name="zero" format="2">
  <advance width="492"/>
  <unicode hex="0030"/>
  <outline>
    <contour>
      <point x="246" y="-11" type="curve" smooth="yes"/>
      <point x="373" y="-11"/>
      <point x="455" y="99"/>
      <point x="455" y="304" type="curve" smooth="yes"/>
      <point x="455" y="508"/>
      <point x="373" y="615"/>
      <point x="246" y="615" type="curve" smooth="yes"/>
      <point x="119" y="615"/>
      <point x="37" y="509"/>
      <point x="37" y="304" type="curve" smooth="yes"/>
      <point x="37" y="99"/>
      <point x="119" y="-11"/>
    </contour>
    <contour>
      <point x="246" y="83" type="curve" smooth="yes"/>
      <point x="192" y="83"/>
      <point x="152" y="136"/>
      <point x="152" y="304" type="curve" smooth="yes"/>
      <point x="152" y="473"/>
      <point x="192" y="520"/>
      <point x="246" y="520" type="curve" smooth="yes"/>
      <point x="300" y="520"/>
      <point x="340" y="473"/>
      <point x="340" y="304" type="curve" smooth="yes"/>
      <point x="340" y="136"/>
      <point x="300" y="83"/>
    </contour>
  </outline>
</glyph>
<glyph name="one" format="2">
  <advance width="492"/>
  <unicode hex="0031"/>
  <outline>
    <contour>
      <point x="68" y="0" type="line"/>
      <point x="440" y="0" type="line"/>
      <point x="440" y="98" type="line"/>
      <point x="324" y="98" type="line"/>
      <point x="324" y="604" type="line"/>
      <point x="233" y="604" type="line"/>
      <point x="194" y="579"/>
      <point x="152" y="563"/>
      <point x="90" y="552" type="curve"/>
      <point x="90" y="476" type="line"/>
      <point x="202" y="476" type="line"/>
      <point x="202" y="98" type="line"/>
      <point x="68" y="98" type="line"/>
    </contour>
  </outline>
</glyph>
<glyph name="two" format="2">
  <advance width="510"/>
  <unicode hex="0032"/>
  <outline>
    <contour>
      <point x="35" y="0" type="line"/>
      <point x="467" y="0" type="line"/>
      <point x="467" y="119" type="line"/>
      <point x="344" y="119" type="line" smooth="yes"/>
      <point x="315" y="119"/>
      <point x="272" y="115"/>
      <point x="241" y="112" type="curve"/>
      <point x="341" y="216"/>
      <point x="438" y="326"/>
      <point x="438" y="429" type="curve" smooth="yes"/>
      <point x="438" y="548"/>
      <point x="355" y="625"/>
      <point x="234" y="625" type="curve" smooth="yes"/>
      <point x="146" y="625"/>
      <point x="89" y="592"/>
      <point x="29" y="528" type="curve"/>
      <point x="106" y="451" type="line"/>
      <point x="136" y="483"/>
      <point x="171" y="514"/>
      <point x="215" y="514" type="curve" smooth="yes"/>
      <point x="269" y="514"/>
      <point x="302" y="481"/>
      <point x="302" y="421" type="curve" smooth="yes"/>
      <point x="302" y="334"/>
      <point x="192" y="229"/>
      <point x="35" y="81" type="curve"/>
    </contour>
  </outline>
</glyph>
<glyph name="three" format="2">
  <advance width="492"/>
  <unicode hex="0033"/>
  <outline>
    <contour>
      <point x="228" y="-11" type="curve" smooth="yes"/>
      <point x="347" y="-11"/>
      <point x="446" y="52"/>
      <point x="446" y="163" type="curve" smooth="yes"/>
      <point x="446" y="243"/>
      <point x="393" y="293"/>
      <point x="322" y="312" type="curve"/>
      <point x="322" y="316" type="line"/>
      <point x="387" y="342"/>
      <point x="425" y="388"/>
      <point x="425" y="453" type="curve" smooth="yes"/>
      <point x="425" y="557"/>
      <point x="345" y="615"/>
      <point x="225" y="615" type="curve" smooth="yes"/>
      <point x="152" y="615"/>
      <point x="93" y="585"/>
      <point x="40" y="538" type="curve"/>
      <point x="102" y="464" type="line"/>
      <point x="139" y="498"/>
      <point x="175" y="519"/>
      <point x="220" y="519" type="curve" smooth="yes"/>
      <point x="272" y="519"/>
      <point x="303" y="491"/>
      <point x="303" y="444" type="curve" smooth="yes"/>
      <point x="303" y="391"/>
      <point x="266" y="354"/>
      <point x="152" y="354" type="curve"/>
      <point x="152" y="266" type="line"/>
      <point x="287" y="266"/>
      <point x="324" y="229"/>
      <point x="324" y="170" type="curve" smooth="yes"/>
      <point x="324" y="118"/>
      <point x="281" y="87"/>
      <point x="217" y="87" type="curve" smooth="yes"/>
      <point x="161" y="87"/>
      <point x="115" y="115"/>
      <point x="78" y="151" type="curve"/>
      <point x="21" y="74" type="line"/>
      <point x="65" y="25"/>
      <point x="131" y="-11"/>
    </contour>
  </outline>
</glyph>
<glyph name="four" format="2">
  <advance width="510"/>
  <unicode hex="0034"/>
  <outline>
    <contour>
      <point x="284" y="0" type="line"/>
      <point x="416" y="0" type="line"/>
      <point x="416" y="613" type="line"/>
      <point x="242" y="613" type="line"/>
      <point x="18" y="244" type="line"/>
      <point x="18" y="146" type="line"/>
      <point x="487" y="146" type="line"/>
      <point x="487" y="254" type="line"/>
      <point x="154" y="254" type="line"/>
      <point x="235" y="388" type="line"/>
      <point x="252" y="423"/>
      <point x="270" y="457"/>
      <point x="285" y="492" type="curve"/>
      <point x="289" y="492" type="line"/>
      <point x="287" y="453"/>
      <point x="284" y="394"/>
      <point x="284" y="355" type="curve" smooth="yes"/>
    </contour>
  </outline>
</glyph>
<glyph name="five" format="2">
  <advance width="492"/>
  <unicode hex="0035"/>
  <outline>
    <contour>
      <point x="231" y="-11" type="curve" smooth="yes"/>
      <point x="345" y="-11"/>
      <point x="447" y="64"/>
      <point x="447" y="197" type="curve" smooth="yes"/>
      <point x="447" y="326"/>
      <point x="360" y="385"/>
      <point x="256" y="385" type="curve" smooth="yes"/>
      <point x="227" y="385"/>
      <point x="206" y="380"/>
      <point x="181" y="368" type="curve"/>
      <point x="193" y="501" type="line"/>
      <point x="418" y="501" type="line"/>
      <point x="418" y="604" type="line"/>
      <point x="88" y="604" type="line"/>
      <point x="70" y="303" type="line"/>
      <point x="126" y="267" type="line"/>
      <point x="163" y="290"/>
      <point x="183" y="299"/>
      <point x="220" y="299" type="curve" smooth="yes"/>
      <point x="282" y="299"/>
      <point x="325" y="261"/>
      <point x="325" y="194" type="curve" smooth="yes"/>
      <point x="325" y="126"/>
      <point x="279" y="87"/>
      <point x="214" y="87" type="curve" smooth="yes"/>
      <point x="157" y="87"/>
      <point x="113" y="116"/>
      <point x="77" y="150" type="curve"/>
      <point x="22" y="72" type="line"/>
      <point x="67" y="27"/>
      <point x="132" y="-11"/>
    </contour>
  </outline>
</glyph>
<glyph name="six" format="2">
  <advance width="492"/>
  <unicode hex="0036"/>
  <outline>
    <contour>
      <point x="263" y="-11" type="curve" smooth="yes"/>
      <point x="369" y="-11"/>
      <point x="457" y="65"/>
      <point x="457" y="188" type="curve" smooth="yes"/>
      <point x="457" y="315"/>
      <point x="383" y="375"/>
      <point x="280" y="375" type="curve" smooth="yes"/>
      <point x="236" y="375"/>
      <point x="180" y="347"/>
      <point x="147" y="299" type="curve"/>
      <point x="152" y="217" type="line"/>
      <point x="184" y="269"/>
      <point x="223" y="288"/>
      <point x="257" y="288" type="curve" smooth="yes"/>
      <point x="311" y="288"/>
      <point x="346" y="256"/>
      <point x="346" y="188" type="curve" smooth="yes"/>
      <point x="346" y="116"/>
      <point x="307" y="80"/>
      <point x="261" y="80" type="curve" smooth="yes"/>
      <point x="199" y="80"/>
      <point x="152" y="135"/>
      <point x="152" y="285" type="curve" smooth="yes"/>
      <point x="152" y="458"/>
      <point x="212" y="516"/>
      <point x="288" y="516" type="curve" smooth="yes"/>
      <point x="324" y="516"/>
      <point x="361" y="497"/>
      <point x="383" y="472" type="curve"/>
      <point x="448" y="545" type="line"/>
      <point x="411" y="583"/>
      <point x="356" y="615"/>
      <point x="280" y="615" type="curve" smooth="yes"/>
      <point x="155" y="615"/>
      <point x="40" y="516"/>
      <point x="40" y="285" type="curve" smooth="yes"/>
      <point x="40" y="78"/>
      <point x="145" y="-11"/>
    </contour>
  </outline>
</glyph>
<glyph name="seven" format="2">
  <advance width="492"/>
  <unicode hex="0037"/>
  <outline>
    <contour>
      <point x="156" y="0" type="curve"/>
      <point x="278" y="0" type="line"/>
      <point x="289" y="235"/>
      <point x="311" y="356"/>
      <point x="453" y="529" type="curve"/>
      <point x="453" y="604" type="line"/>
      <point x="41" y="604" type="line"/>
      <point x="41" y="501" type="line"/>
      <point x="321" y="501" type="line"/>
      <point x="205" y="341"/>
      <point x="167" y="208"/>
    </contour>
  </outline>
</glyph>
<glyph name="eight" format="2">
  <advance width="492"/>
  <unicode hex="0038"/>
  <outline>
    <contour>
      <point x="246" y="-11" type="curve" smooth="yes"/>
      <point x="371" y="-11"/>
      <point x="454" y="60"/>
      <point x="454" y="154" type="curve" smooth="yes"/>
      <point x="454" y="234"/>
      <point x="406" y="279"/>
      <point x="349" y="311" type="curve"/>
      <point x="349" y="315" type="line"/>
      <point x="390" y="342"/>
      <point x="430" y="391"/>
      <point x="430" y="451" type="curve" smooth="yes"/>
      <point x="430" y="549"/>
      <point x="359" y="615"/>
      <point x="250" y="615" type="curve" smooth="yes"/>
      <point x="142" y="615"/>
      <point x="63" y="552"/>
      <point x="63" y="452" type="curve" smooth="yes"/>
      <point x="63" y="388"/>
      <point x="99" y="344"/>
      <point x="145" y="310" type="curve"/>
      <point x="145" y="307" type="line"/>
      <point x="88" y="276"/>
      <point x="39" y="228"/>
      <point x="39" y="154" type="curve" smooth="yes"/>
      <point x="39" y="56"/>
      <point x="127" y="-11"/>
    </contour>
    <contour>
      <point x="285" y="344" type="curve"/>
      <point x="220" y="370"/>
      <point x="171" y="396"/>
      <point x="171" y="452" type="curve" smooth="yes"/>
      <point x="171" y="502"/>
      <point x="204" y="529"/>
      <point x="247" y="529" type="curve" smooth="yes"/>
      <point x="299" y="529"/>
      <point x="330" y="494"/>
      <point x="330" y="443" type="curve" smooth="yes"/>
      <point x="330" y="407"/>
      <point x="314" y="375"/>
    </contour>
    <contour>
      <point x="248" y="74" type="curve" smooth="yes"/>
      <point x="191" y="74"/>
      <point x="145" y="110"/>
      <point x="145" y="167" type="curve" smooth="yes"/>
      <point x="145" y="210"/>
      <point x="169" y="247"/>
      <point x="202" y="274" type="curve"/>
      <point x="281" y="241"/>
      <point x="340" y="218"/>
      <point x="340" y="158" type="curve" smooth="yes"/>
      <point x="340" y="104"/>
      <point x="302" y="74"/>
    </contour>
  </outline>
</glyph>
<glyph name="nine" format="2">
  <advance width="492"/>
  <unicode hex="0039"/>
  <outline>
    <contour>
      <point x="210" y="-11" type="curve" smooth="yes"/>
      <point x="335" y="-11"/>
      <point x="450" y="87"/>
      <point x="450" y="318" type="curve" smooth="yes"/>
      <point x="450" y="525"/>
      <point x="345" y="615"/>
      <point x="228" y="615" type="curve" smooth="yes"/>
      <point x="122" y="615"/>
      <point x="33" y="538"/>
      <point x="33" y="415" type="curve" smooth="yes"/>
      <point x="33" y="288"/>
      <point x="107" y="228"/>
      <point x="211" y="228" type="curve" smooth="yes"/>
      <point x="254" y="228"/>
      <point x="311" y="257"/>
      <point x="344" y="304" type="curve"/>
      <point x="339" y="386" type="line"/>
      <point x="307" y="334"/>
      <point x="268" y="315"/>
      <point x="234" y="315" type="curve" smooth="yes"/>
      <point x="180" y="315"/>
      <point x="145" y="347"/>
      <point x="145" y="415" type="curve" smooth="yes"/>
      <point x="145" y="487"/>
      <point x="183" y="523"/>
      <point x="230" y="523" type="curve" smooth="yes"/>
      <point x="291" y="523"/>
      <point x="339" y="468"/>
      <point x="339" y="318" type="curve" smooth="yes"/>
      <point x="339" y="145"/>
      <point x="279" y="87"/>
      <point x="203" y="87" type="curve" smooth="yes"/>
      <point x="167" y="87"/>
      <point x="129" y="106"/>
      <point x="108" y="132" type="curve"/>
      <point x="43" y="58" type="line"/>
      <point x="79" y="20"/>
      <point x="135" y="-11"/>
    </contour>
  </outline>
</glyph>
<glyph name="less" format="2">
  <advance width="423"/>
  <unicode hex="003C"/>
  <outline>
    <contour>
      <point x="349" y="17" type="line"/>
      <point x="349" y="124" type="line"/>
      <point x="102" y="299" type="line"/>
      <point x="103" y="206" type="line"/>
      <point x="344" y="383" type="line"/>
      <point x="344" y="494" type="line"/>
      <point x="60" y="292" type="line"/>
      <point x="60" y="220" type="line"/>
    </contour>
  </outline>
</glyph>
<glyph name="equal" format="2">
  <advance width="674"/>
  <unicode hex="003D"/>
  <outline>
    <contour>
      <point x="80" y="405" type="line"/>
      <point x="584" y="405" type="line"/>
      <point x="584" y="486" type="line"/>
      <point x="80" y="486" type="line"/>
    </contour>
    <contour>
      <point x="80" y="195" type="line"/>
      <point x="584" y="195" type="line"/>
      <point x="584" y="277" type="line"/>
      <point x="80" y="277" type="line"/>
    </contour>
  </outline>
</glyph>
<glyph name="question" format="2">
  <advance width="545"/>
  <unicode hex="003F"/>
  <outline>
    <component base="period" xOffset="166" yOffset="-14"/>
    <contour>
      <point x="333" y="202" type="line"/>
      <point x="332" y="219"/>
      <point x="332" y="226"/>
      <point x="332" y="232" type="curve" smooth="yes"/>
      <point x="332" y="360"/>
      <point x="484" y="394"/>
      <point x="484" y="528" type="curve" smooth="yes"/>
      <point x="484" y="632"/>
      <point x="396" y="687"/>
      <point x="302" y="687" type="curve" smooth="yes"/>
      <point x="231" y="687"/>
      <point x="166" y="659"/>
      <point x="117" y="590" type="curve"/>
      <point x="191" y="520" type="line"/>
      <point x="220" y="565"/>
      <point x="260" y="584"/>
      <point x="296" y="584" type="curve" smooth="yes"/>
      <point x="337" y="584"/>
      <point x="371" y="559"/>
      <point x="371" y="520" type="curve" smooth="yes"/>
      <point x="371" y="444"/>
      <point x="224" y="378"/>
      <point x="224" y="241" type="curve" smooth="yes"/>
      <point x="224" y="232"/>
      <point x="225" y="222"/>
      <point x="226" y="202" type="curve"/>
    </contour>
  </outline>
</glyph>
<glyph name="at" format="2">
  <advance width="841"/>
  <unicode hex="0040"/>
  <outline>
    <contour>
      <point x="399" y="-158" type="curve" smooth="yes"/>
      <point x="466" y="-158"/>
      <point x="527" y="-144"/>
      <point x="584" y="-112" type="curve"/>
      <point x="556" y="-45" type="line"/>
      <point x="516" y="-67"/>
      <point x="460" y="-83"/>
      <point x="409" y="-83" type="curve" smooth="yes"/>
      <point x="257" y="-83"/>
      <point x="130" y="10"/>
      <point x="130" y="197" type="curve" smooth="yes"/>
      <point x="130" y="413"/>
      <point x="291" y="554"/>
      <point x="455" y="554" type="curve" smooth="yes"/>
      <point x="638" y="554"/>
      <point x="716" y="435"/>
      <point x="716" y="294" type="curve" smooth="yes"/>
      <point x="716" y="184"/>
      <point x="657" y="115"/>
      <point x="599" y="115" type="curve" smooth="yes"/>
      <point x="553" y="115"/>
      <point x="538" y="145"/>
      <point x="553" y="206" type="curve" smooth="yes"/>
      <point x="594" y="409" type="line"/>
      <point x="518" y="409" type="line"/>
      <point x="506" y="370" type="line"/>
      <point x="504" y="370" type="line"/>
      <point x="487" y="403"/>
      <point x="462" y="417"/>
      <point x="430" y="417" type="curve" smooth="yes"/>
      <point x="321" y="417"/>
      <point x="241" y="299"/>
      <point x="241" y="188" type="curve" smooth="yes"/>
      <point x="241" y="101"/>
      <point x="292" y="47"/>
      <point x="363" y="47" type="curve" smooth="yes"/>
      <point x="403" y="47"/>
      <point x="450" y="74"/>
      <point x="478" y="111" type="curve"/>
      <point x="480" y="111" type="line"/>
      <point x="489" y="64"/>
      <point x="532" y="39"/>
      <point x="586" y="39" type="curve" smooth="yes"/>
      <point x="682" y="39"/>
      <point x="795" y="126"/>
      <point x="795" y="297" type="curve" smooth="yes"/>
      <point x="795" y="493"/>
      <point x="667" y="629"/>
      <point x="465" y="629" type="curve" smooth="yes"/>
      <point x="238" y="629"/>
      <point x="46" y="456"/>
      <point x="46" y="194" type="curve" smooth="yes"/>
      <point x="46" y="-42"/>
      <point x="210" y="-158"/>
    </contour>
    <contour>
      <point x="389" y="125" type="curve" smooth="yes"/>
      <point x="356" y="125"/>
      <point x="334" y="147"/>
      <point x="334" y="195" type="curve" smooth="yes"/>
      <point x="334" y="256"/>
      <point x="372" y="338"/>
      <point x="434" y="338" type="curve" smooth="yes"/>
      <point x="455" y="338"/>
      <point x="471" y="328"/>
      <point x="483" y="307" type="curve"/>
      <point x="459" y="172" type="line"/>
      <point x="432" y="138"/>
      <point x="411" y="125"/>
    </contour>
  </outline>
</glyph>
<glyph name="A" format="2">
  <advance width="553"/>
  <unicode hex="0041"/>
  <anchor x="273" y="651" name="aboveUC"/>
  <outline>
    <contour>
      <point x="409" y="0" type="line"/>
      <point x="559" y="0" type="line"/>
      <point x="362" y="630" type="line"/>
      <point x="191" y="630" type="line"/>
      <point x="-6" y="0" type="line"/>
      <point x="139" y="0" type="line"/>
      <point x="178" y="150" type="line"/>
      <point x="369" y="150" type="line"/>
    </contour>
    <contour>
      <point x="205" y="260" type="line"/>
      <point x="222" y="319" type="line" smooth="yes"/>
      <point x="239" y="382"/>
      <point x="256" y="455"/>
      <point x="271" y="522" type="curve"/>
      <point x="275" y="522" type="line"/>
      <point x="292" y="456"/>
      <point x="309" y="382"/>
      <point x="326" y="319" type="curve" smooth="yes"/>
      <point x="343" y="260" type="line"/>
    </contour>
  </outline>
</glyph>
<glyph name="B" format="2">
  <advance width="585"/>
  <unicode hex="0042"/>
  <anchor x="289" y="651" name="aboveUC"/>
  <outline>
    <contour>
      <point x="74" y="0" type="line"/>
      <point x="307" y="0" type="line" smooth="yes"/>
      <point x="445" y="0"/>
      <point x="553" y="57"/>
      <point x="553" y="185" type="curve" smooth="yes"/>
      <point x="553" y="269"/>
      <point x="503" y="317"/>
      <point x="439" y="333" type="curve"/>
      <point x="439" y="337" type="line"/>
      <point x="490" y="357"/>
      <point x="522" y="417"/>
      <point x="522" y="473" type="curve" smooth="yes"/>
      <point x="522" y="594"/>
      <point x="420" y="630"/>
      <point x="290" y="630" type="curve" smooth="yes"/>
      <point x="74" y="630" type="line"/>
    </contour>
    <contour>
      <point x="216" y="377" type="line"/>
      <point x="216" y="520" type="line"/>
      <point x="284" y="520" type="line" smooth="yes"/>
      <point x="350" y="520"/>
      <point x="383" y="501"/>
      <point x="383" y="452" type="curve" smooth="yes"/>
      <point x="383" y="406"/>
      <point x="352" y="377"/>
      <point x="283" y="377" type="curve" smooth="yes"/>
    </contour>
    <contour>
      <point x="216" y="109" type="line"/>
      <point x="216" y="272" type="line"/>
      <point x="296" y="272" type="line" smooth="yes"/>
      <point x="374" y="272"/>
      <point x="414" y="250"/>
      <point x="414" y="194" type="curve" smooth="yes"/>
      <point x="414" y="137"/>
      <point x="374" y="109"/>
      <point x="296" y="109" type="curve" smooth="yes"/>
    </contour>
  </outline>
</glyph>
<glyph name="C" format="2">
  <advance width="549"/>
  <unicode hex="0043"/>
  <anchor x="321" y="641" name="aboveUC"/>
  <anchor x="330" y="0" name="baseLC"/>
  <outline>
    <contour>
      <point x="328" y="-11" type="curve" smooth="yes"/>
      <point x="409" y="-11"/>
      <point x="475" y="20"/>
      <point x="526" y="79" type="curve"/>
      <point x="461" y="155" type="line"/>
      <point x="428" y="119"/>
      <point x="386" y="94"/>
      <point x="333" y="94" type="curve" smooth="yes"/>
      <point x="234" y="94"/>
      <point x="170" y="175"/>
      <point x="170" y="311" type="curve" smooth="yes"/>
      <point x="170" y="444"/>
      <point x="241" y="526"/>
      <point x="335" y="526" type="curve" smooth="yes"/>
      <point x="382" y="526"/>
      <point x="418" y="504"/>
      <point x="450" y="473" type="curve"/>
      <point x="514" y="552" type="line"/>
      <point x="474" y="594"/>
      <point x="411" y="631"/>
      <point x="333" y="631" type="curve" smooth="yes"/>
      <point x="176" y="631"/>
      <point x="45" y="511"/>
      <point x="45" y="307" type="curve" smooth="yes"/>
      <point x="45" y="100"/>
      <point x="172" y="-11"/>
    </contour>
  </outline>
</glyph>
<glyph name="D" format="2">
  <advance width="613"/>
  <unicode hex="0044"/>
  <anchor x="307" y="651" name="aboveUC"/>
  <outline>
    <contour>
      <point x="74" y="0" type="line"/>
      <point x="260" y="0" type="line" smooth="yes"/>
      <point x="444" y="0"/>
      <point x="568" y="101"/>
      <point x="568" y="317" type="curve" smooth="yes"/>
      <point x="568" y="534"/>
      <point x="444" y="630"/>
      <point x="252" y="630" type="curve" smooth="yes"/>
      <point x="74" y="630" type="line"/>
    </contour>
    <contour>
      <point x="216" y="114" type="line"/>
      <point x="216" y="515" type="line"/>
      <point x="243" y="515" type="line" smooth="yes"/>
      <point x="350" y="515"/>
      <point x="422" y="468"/>
      <point x="422" y="317" type="curve" smooth="yes"/>
      <point x="422" y="167"/>
      <point x="350" y="114"/>
      <point x="243" y="114" type="curve" smooth="yes"/>
    </contour>
  </outline>
</glyph>
<glyph name="E" format="2">
  <advance width="514"/>
  <unicode hex="0045"/>
  <anchor x="273" y="641" name="aboveUC"/>
  <outline>
    <contour>
      <point x="76" y="0" type="line"/>
      <point x="465" y="0" type="line"/>
      <point x="465" y="102" type="line"/>
      <point x="198" y="102" type="line"/>
      <point x="198" y="270" type="line"/>
      <point x="417" y="270" type="line"/>
      <point x="417" y="372" type="line"/>
      <point x="198" y="372" type="line"/>
      <point x="198" y="517" type="line"/>
      <point x="456" y="517" type="line"/>
      <point x="456" y="620" type="line"/>
      <point x="76" y="620" type="line"/>
    </contour>
  </outline>
</glyph>
<glyph name="F" format="2">
  <advance width="506"/>
  <unicode hex="0046"/>
  <anchor x="279" y="651" name="aboveUC"/>
  <outline>
    <contour>
      <point x="74" y="0" type="line"/>
      <point x="216" y="0" type="line"/>
      <point x="216" y="245" type="line"/>
      <point x="434" y="245" type="line"/>
      <point x="434" y="364" type="line"/>
      <point x="216" y="364" type="line"/>
      <point x="216" y="510" type="line"/>
      <point x="471" y="510" type="line"/>
      <point x="471" y="630" type="line"/>
      <point x="74" y="630" type="line"/>
    </contour>
  </outline>
</glyph>
<glyph name="G" format="2">
  <advance width="600"/>
  <unicode hex="0047"/>
  <anchor x="344" y="641" name="aboveUC"/>
  <outline>
    <contour>
      <point x="342" y="-11" type="curve" smooth="yes"/>
      <point x="427" y="-11"/>
      <point x="501" y="21"/>
      <point x="542" y="62" type="curve"/>
      <point x="542" y="341" type="line"/>
      <point x="322" y="341" type="line"/>
      <point x="322" y="241" type="line"/>
      <point x="433" y="241" type="line"/>
      <point x="433" y="118" type="line"/>
      <point x="416" y="102"/>
      <point x="385" y="94"/>
      <point x="354" y="94" type="curve" smooth="yes"/>
      <point x="233" y="94"/>
      <point x="170" y="175"/>
      <point x="170" y="311" type="curve" smooth="yes"/>
      <point x="170" y="444"/>
      <point x="242" y="526"/>
      <point x="346" y="526" type="curve" smooth="yes"/>
      <point x="402" y="526"/>
      <point x="437" y="503"/>
      <point x="468" y="473" type="curve"/>
      <point x="533" y="552" type="line"/>
      <point x="493" y="593"/>
      <point x="431" y="631"/>
      <point x="342" y="631" type="curve" smooth="yes"/>
      <point x="177" y="631"/>
      <point x="45" y="511"/>
      <point x="45" y="307" type="curve" smooth="yes"/>
      <point x="45" y="100"/>
      <point x="173" y="-11"/>
    </contour>
  </outline>
</glyph>
<glyph name="H" format="2">
  <advance width="651"/>
  <unicode hex="0048"/>
  <anchor x="324" y="651" name="aboveUC"/>
  <outline>
    <contour>
      <point x="74" y="0" type="line"/>
      <point x="216" y="0" type="line"/>
      <point x="216" y="263" type="line"/>
      <point x="434" y="263" type="line"/>
      <point x="434" y="0" type="line"/>
      <point x="576" y="0" type="line"/>
      <point x="576" y="630" type="line"/>
      <point x="434" y="630" type="line"/>
      <point x="434" y="387" type="line"/>
      <point x="216" y="387" type="line"/>
      <point x="216" y="630" type="line"/>
      <point x="74" y="630" type="line"/>
    </contour>
  </outline>
</glyph>
<glyph name="I" format="2">
  <advance width="282"/>
  <unicode hex="0049"/>
  <anchor x="141" y="676" name="aboveUC"/>
  <outline>
    <contour>
      <point x="83" y="0" type="line"/>
      <point x="199" y="0" type="line"/>
      <point x="199" y="654" type="line"/>
      <point x="83" y="654" type="line"/>
    </contour>
  </outline>
</glyph>
<glyph name="J" format="2">
  <advance width="475"/>
  <unicode hex="004A"/>
  <anchor x="338" y="641" name="aboveUC"/>
  <outline>
    <contour>
      <point x="210" y="-11" type="curve" smooth="yes"/>
      <point x="343" y="-11"/>
      <point x="401" y="83"/>
      <point x="401" y="199" type="curve" smooth="yes"/>
      <point x="401" y="620" type="line"/>
      <point x="279" y="620" type="line"/>
      <point x="279" y="209" type="line" smooth="yes"/>
      <point x="279" y="123"/>
      <point x="250" y="94"/>
      <point x="195" y="94" type="curve" smooth="yes"/>
      <point x="160" y="94"/>
      <point x="127" y="113"/>
      <point x="103" y="158" type="curve"/>
      <point x="19" y="96" type="line"/>
      <point x="60" y="24"/>
      <point x="120" y="-11"/>
    </contour>
  </outline>
</glyph>
<glyph name="K" format="2">
  <advance width="593"/>
  <unicode hex="004B"/>
  <anchor x="308" y="651" name="aboveUC"/>
  <outline>
    <contour>
      <point x="74" y="0" type="line"/>
      <point x="216" y="0" type="line"/>
      <point x="216" y="168" type="line"/>
      <point x="290" y="266" type="line"/>
      <point x="443" y="0" type="line"/>
      <point x="599" y="0" type="line"/>
      <point x="374" y="378" type="line"/>
      <point x="564" y="630" type="line"/>
      <point x="408" y="630" type="line"/>
      <point x="220" y="372" type="line"/>
      <point x="216" y="372" type="line"/>
      <point x="216" y="630" type="line"/>
      <point x="74" y="630" type="line"/>
    </contour>
  </outline>
</glyph>
<glyph name="L" format="2">
  <advance width="502"/>
  <unicode hex="004C"/>
  <anchor x="144" y="676" name="aboveUC"/>
  <outline>
    <contour>
      <point x="83" y="0" type="line"/>
      <point x="471" y="0" type="line"/>
      <point x="471" y="98" type="line"/>
      <point x="199" y="98" type="line"/>
      <point x="199" y="654" type="line"/>
      <point x="83" y="654" type="line"/>
    </contour>
  </outline>
</glyph>
<glyph name="M" format="2">
  <advance width="714"/>
  <unicode hex="004D"/>
  <anchor x="356" y="641" name="aboveUC"/>
  <outline>
    <contour>
      <point x="76" y="0" type="line"/>
      <point x="186" y="0" type="line"/>
      <point x="186" y="261" type="line" smooth="yes"/>
      <point x="186" y="319"/>
      <point x="176" y="405"/>
      <point x="170" y="464" type="curve"/>
      <point x="174" y="464" type="line"/>
      <point x="223" y="318" type="line"/>
      <point x="320" y="56" type="line"/>
      <point x="390" y="56" type="line"/>
      <point x="487" y="318" type="line"/>
      <point x="537" y="464" type="line"/>
      <point x="541" y="464" type="line"/>
      <point x="535" y="405"/>
      <point x="525" y="319"/>
      <point x="525" y="261" type="curve" smooth="yes"/>
      <point x="525" y="0" type="line"/>
      <point x="637" y="0" type="line"/>
      <point x="637" y="620" type="line"/>
      <point x="501" y="620" type="line"/>
      <point x="398" y="328" type="line"/>
      <point x="385" y="289"/>
      <point x="373" y="248"/>
      <point x="360" y="209" type="curve"/>
      <point x="356" y="209" type="line"/>
      <point x="343" y="248"/>
      <point x="331" y="289"/>
      <point x="318" y="328" type="curve"/>
      <point x="212" y="620" type="line"/>
      <point x="76" y="620" type="line"/>
    </contour>
  </outline>
</glyph>
<glyph name="N" format="2">
  <advance width="626"/>
  <unicode hex="004E"/>
  <anchor x="315" y="641" name="aboveUC"/>
  <outline>
    <contour>
      <point x="76" y="0" type="line"/>
      <point x="192" y="0" type="line"/>
      <point x="192" y="251" type="line" smooth="yes"/>
      <point x="192" y="321"/>
      <point x="183" y="399"/>
      <point x="177" y="466" type="curve"/>
      <point x="181" y="466" type="line"/>
      <point x="244" y="333" type="line"/>
      <point x="424" y="0" type="line"/>
      <point x="549" y="0" type="line"/>
      <point x="549" y="620" type="line"/>
      <point x="433" y="620" type="line"/>
      <point x="433" y="371" type="line" smooth="yes"/>
      <point x="433" y="300"/>
      <point x="443" y="218"/>
      <point x="449" y="153" type="curve"/>
      <point x="445" y="153" type="line"/>
      <point x="382" y="287" type="line"/>
      <point x="201" y="620" type="line"/>
      <point x="76" y="620" type="line"/>
    </contour>
  </outline>
</glyph>
<glyph name="O" format="2">
  <advance width="661"/>
  <unicode hex="004F"/>
  <anchor x="330" y="651" name="aboveUC"/>
  <outline>
    <contour>
      <point x="330" y="-11" type="curve" smooth="yes"/>
      <point x="500" y="-11"/>
      <point x="616" y="111"/>
      <point x="616" y="317" type="curve" smooth="yes"/>
      <point x="616" y="522"/>
      <point x="500" y="641"/>
      <point x="330" y="641" type="curve" smooth="yes"/>
      <point x="160" y="641"/>
      <point x="44" y="523"/>
      <point x="44" y="317" type="curve" smooth="yes"/>
      <point x="44" y="111"/>
      <point x="160" y="-11"/>
    </contour>
    <contour>
      <point x="330" y="111" type="curve" smooth="yes"/>
      <point x="244" y="111"/>
      <point x="190" y="191"/>
      <point x="190" y="317" type="curve" smooth="yes"/>
      <point x="190" y="444"/>
      <point x="244" y="518"/>
      <point x="330" y="518" type="curve" smooth="yes"/>
      <point x="416" y="518"/>
      <point x="470" y="444"/>
      <point x="470" y="317" type="curve" smooth="yes"/>
      <point x="470" y="191"/>
      <point x="416" y="111"/>
    </contour>
  </outline>
</glyph>
<glyph name="P" format="2">
  <advance width="576"/>
  <unicode hex="0050"/>
  <anchor x="305" y="651" name="aboveUC"/>
  <outline>
    <contour>
      <point x="74" y="0" type="line"/>
      <point x="216" y="0" type="line"/>
      <point x="216" y="213" type="line"/>
      <point x="294" y="213" type="line" smooth="yes"/>
      <point x="428" y="213"/>
      <point x="541" y="279"/>
      <point x="541" y="427" type="curve" smooth="yes"/>
      <point x="541" y="580"/>
      <point x="429" y="630"/>
      <point x="290" y="630" type="curve" smooth="yes"/>
      <point x="74" y="630" type="line"/>
    </contour>
    <contour>
      <point x="216" y="326" type="line"/>
      <point x="216" y="516" type="line"/>
      <point x="282" y="516" type="line" smooth="yes"/>
      <point x="359" y="516"/>
      <point x="401" y="493"/>
      <point x="401" y="427" type="curve" smooth="yes"/>
      <point x="401" y="361"/>
      <point x="364" y="326"/>
      <point x="286" y="326" type="curve" smooth="yes"/>
    </contour>
  </outline>
</glyph>
<glyph name="Q" format="2">
  <advance width="661"/>
  <unicode hex="0051"/>
  <anchor x="330" y="651" name="aboveUC"/>
  <outline>
    <contour>
      <point x="330" y="-11" type="curve" smooth="yes"/>
      <point x="500" y="-11"/>
      <point x="616" y="111"/>
      <point x="616" y="317" type="curve" smooth="yes"/>
      <point x="616" y="522"/>
      <point x="500" y="641"/>
      <point x="330" y="641" type="curve" smooth="yes"/>
      <point x="160" y="641"/>
      <point x="44" y="523"/>
      <point x="44" y="317" type="curve" smooth="yes"/>
      <point x="44" y="111"/>
      <point x="160" y="-11"/>
    </contour>
    <contour>
      <point x="330" y="104" type="curve" smooth="yes"/>
      <point x="244" y="104"/>
      <point x="190" y="183"/>
      <point x="190" y="317" type="curve" smooth="yes"/>
      <point x="190" y="444"/>
      <point x="244" y="518"/>
      <point x="330" y="518" type="curve" smooth="yes"/>
      <point x="416" y="518"/>
      <point x="470" y="444"/>
      <point x="470" y="317" type="curve" smooth="yes"/>
      <point x="470" y="183"/>
      <point x="416" y="104"/>
    </contour>
    <contour>
      <point x="538" y="-175" type="curve" smooth="yes"/>
      <point x="587" y="-175"/>
      <point x="626" y="-166"/>
      <point x="650" y="-154" type="curve"/>
      <point x="624" y="-50" type="line"/>
      <point x="606" y="-57"/>
      <point x="581" y="-61"/>
      <point x="554" y="-61" type="curve" smooth="yes"/>
      <point x="494" y="-61"/>
      <point x="429" y="-40"/>
      <point x="406" y="19" type="curve"/>
      <point x="261" y="4" type="line"/>
      <point x="304" y="-99"/>
      <point x="399" y="-175"/>
    </contour>
  </outline>
</glyph>
<glyph name="R" format="2">
  <advance width="570"/>
  <unicode hex="0052"/>
  <anchor x="290" y="641" name="aboveUC"/>
  <outline>
    <contour>
      <point x="76" y="0" type="line"/>
      <point x="198" y="0" type="line"/>
      <point x="198" y="234" type="line"/>
      <point x="291" y="234" type="line" smooth="yes"/>
      <point x="421" y="234"/>
      <point x="524" y="295"/>
      <point x="524" y="432" type="curve" smooth="yes"/>
      <point x="524" y="574"/>
      <point x="421" y="620"/>
      <point x="291" y="620" type="curve" smooth="yes"/>
      <point x="76" y="620" type="line"/>
    </contour>
    <contour>
      <point x="198" y="332" type="line"/>
      <point x="198" y="523" type="line"/>
      <point x="280" y="523" type="line" smooth="yes"/>
      <point x="360" y="523"/>
      <point x="404" y="500"/>
      <point x="404" y="432" type="curve" smooth="yes"/>
      <point x="404" y="365"/>
      <point x="360" y="332"/>
      <point x="280" y="332" type="curve" smooth="yes"/>
    </contour>
    <contour>
      <point x="413" y="0" type="line"/>
      <point x="550" y="0" type="line"/>
      <point x="355" y="342" type="line"/>
      <point x="268" y="267" type="line"/>
    </contour>
  </outline>
</glyph>
<glyph name="S" format="2">
  <advance width="521"/>
  <unicode hex="0053"/>
  <anchor x="272" y="641" name="aboveUC"/>
  <anchor x="263" y="0" name="baseLC"/>
  <outline>
    <contour>
      <point x="261" y="-11" type="curve" smooth="yes"/>
      <point x="403" y="-11"/>
      <point x="488" y="74"/>
      <point x="488" y="176" type="curve" smooth="yes"/>
      <point x="488" y="265"/>
      <point x="438" y="313"/>
      <point x="363" y="344" type="curve" smooth="yes"/>
      <point x="281" y="377" type="line" smooth="yes"/>
      <point x="229" y="399"/>
      <point x="184" y="415"/>
      <point x="184" y="460" type="curve" smooth="yes"/>
      <point x="184" y="501"/>
      <point x="220" y="526"/>
      <point x="274" y="526" type="curve" smooth="yes"/>
      <point x="326" y="526"/>
      <point x="367" y="507"/>
      <point x="407" y="474" type="curve"/>
      <point x="469" y="551" type="line"/>
      <point x="418" y="602"/>
      <point x="346" y="631"/>
      <point x="274" y="631" type="curve" smooth="yes"/>
      <point x="150" y="631"/>
      <point x="61" y="553"/>
      <point x="61" y="452" type="curve" smooth="yes"/>
      <point x="61" y="362"/>
      <point x="124" y="312"/>
      <point x="186" y="286" type="curve" smooth="yes"/>
      <point x="269" y="250" type="line" smooth="yes"/>
      <point x="325" y="227"/>
      <point x="363" y="212"/>
      <point x="363" y="166" type="curve" smooth="yes"/>
      <point x="363" y="122"/>
      <point x="329" y="94"/>
      <point x="263" y="94" type="curve" smooth="yes"/>
      <point x="208" y="94"/>
      <point x="150" y="122"/>
      <point x="105" y="162" type="curve"/>
      <point x="35" y="79" type="line"/>
      <point x="95" y="20"/>
      <point x="178" y="-11"/>
    </contour>
  </outline>
</glyph>
<glyph name="T" format="2">
  <advance width="537"/>
  <unicode hex="0054"/>
  <anchor x="268" y="651" name="aboveUC"/>
  <anchor x="268" y="0" name="baseLC"/>
  <outline>
    <contour>
      <point x="197" y="0" type="line"/>
      <point x="340" y="0" type="line"/>
      <point x="340" y="510" type="line"/>
      <point x="513" y="510" type="line"/>
      <point x="513" y="630" type="line"/>
      <point x="24" y="630" type="line"/>
      <point x="24" y="510" type="line"/>
      <point x="197" y="510" type="line"/>
    </contour>
  </outline>
</glyph>
<glyph name="U" format="2">
  <advance width="642"/>
  <unicode hex="0055"/>
  <anchor x="321" y="651" name="aboveUC"/>
  <outline>
    <contour>
      <point x="322" y="-11" type="curve" smooth="yes"/>
      <point x="485" y="-11"/>
      <point x="571" y="80"/>
      <point x="571" y="291" type="curve" smooth="yes"/>
      <point x="571" y="630" type="line"/>
      <point x="434" y="630" type="line"/>
      <point x="434" y="277" type="line" smooth="yes"/>
      <point x="434" y="154"/>
      <point x="393" y="111"/>
      <point x="322" y="111" type="curve" smooth="yes"/>
      <point x="252" y="111"/>
      <point x="213" y="154"/>
      <point x="213" y="277" type="curve" smooth="yes"/>
      <point x="213" y="630" type="line"/>
      <point x="70" y="630" type="line"/>
      <point x="70" y="291" type="line" smooth="yes"/>
      <point x="70" y="80"/>
      <point x="159" y="-11"/>
    </contour>
  </outline>
</glyph>
<glyph name="V" format="2">
  <advance width="536"/>
  <unicode hex="0056"/>
  <anchor x="268" y="676" name="aboveUC"/>
  <outline>
    <contour>
      <point x="200" y="0" type="line"/>
      <point x="337" y="0" type="line"/>
      <point x="540" y="654" type="line"/>
      <point x="421" y="654" type="line"/>
      <point x="330" y="325" type="line" smooth="yes"/>
      <point x="310" y="251"/>
      <point x="295" y="187"/>
      <point x="273" y="112" type="curve"/>
      <point x="269" y="112" type="line"/>
      <point x="247" y="187"/>
      <point x="232" y="251"/>
      <point x="211" y="325" type="curve" smooth="yes"/>
      <point x="119" y="654" type="line"/>
      <point x="-4" y="654" type="line"/>
    </contour>
  </outline>
</glyph>
<glyph name="W" format="2">
  <advance width="765"/>
  <unicode hex="0057"/>
  <anchor x="382" y="641" name="aboveUC"/>
  <outline>
    <contour>
      <point x="135" y="0" type="line"/>
      <point x="285" y="0" type="line"/>
      <point x="353" y="308" type="line"/>
      <point x="363" y="356"/>
      <point x="372" y="405"/>
      <point x="380" y="452" type="curve"/>
      <point x="384" y="452" type="line"/>
      <point x="391" y="405"/>
      <point x="400" y="356"/>
      <point x="410" y="308" type="curve"/>
      <point x="481" y="0" type="line"/>
      <point x="633" y="0" type="line"/>
      <point x="749" y="620" type="line"/>
      <point x="632" y="620" type="line"/>
      <point x="582" y="316" type="line"/>
      <point x="573" y="251"/>
      <point x="564" y="185"/>
      <point x="554" y="119" type="curve"/>
      <point x="550" y="119" type="line"/>
      <point x="537" y="185"/>
      <point x="524" y="252"/>
      <point x="511" y="316" type="curve"/>
      <point x="438" y="620" type="line"/>
      <point x="334" y="620" type="line"/>
      <point x="261" y="316" type="line"/>
      <point x="248" y="251"/>
      <point x="235" y="184"/>
      <point x="222" y="119" type="curve"/>
      <point x="218" y="119" type="line"/>
      <point x="209" y="184"/>
      <point x="199" y="250"/>
      <point x="190" y="316" type="curve"/>
      <point x="140" y="620" type="line"/>
      <point x="15" y="620" type="line"/>
    </contour>
  </outline>
</glyph>
<glyph name="X" format="2">
  <advance width="523"/>
  <unicode hex="0058"/>
  <anchor x="262" y="641" name="aboveUC"/>
  <outline>
    <contour>
      <point x="11" y="0" type="line"/>
      <point x="141" y="0" type="line"/>
      <point x="209" y="138" type="line" smooth="yes"/>
      <point x="223" y="170"/>
      <point x="238" y="201"/>
      <point x="253" y="239" type="curve"/>
      <point x="257" y="239" type="line"/>
      <point x="275" y="201"/>
      <point x="290" y="170"/>
      <point x="306" y="138" type="curve" smooth="yes"/>
      <point x="376" y="0" type="line"/>
      <point x="511" y="0" type="line"/>
      <point x="337" y="313" type="line"/>
      <point x="501" y="620" type="line"/>
      <point x="371" y="620" type="line"/>
      <point x="312" y="490" type="line" smooth="yes"/>
      <point x="299" y="462"/>
      <point x="286" y="432"/>
      <point x="271" y="394" type="curve"/>
      <point x="267" y="394" type="line"/>
      <point x="249" y="432"/>
      <point x="235" y="462"/>
      <point x="221" y="490" type="curve" smooth="yes"/>
      <point x="158" y="620" type="line"/>
      <point x="22" y="620" type="line"/>
      <point x="186" y="319" type="line"/>
    </contour>
  </outline>
</glyph>
<glyph name="Y" format="2">
  <advance width="484"/>
  <unicode hex="0059"/>
  <anchor x="242" y="641" name="aboveUC"/>
  <outline>
    <contour>
      <point x="181" y="0" type="line"/>
      <point x="303" y="0" type="line"/>
      <point x="303" y="226" type="line"/>
      <point x="490" y="620" type="line"/>
      <point x="362" y="620" type="line"/>
      <point x="300" y="468" type="line"/>
      <point x="282" y="421"/>
      <point x="263" y="378"/>
      <point x="245" y="331" type="curve"/>
      <point x="241" y="331" type="line"/>
      <point x="222" y="378"/>
      <point x="205" y="421"/>
      <point x="187" y="468" type="curve"/>
      <point x="125" y="620" type="line"/>
      <point x="-5" y="620" type="line"/>
      <point x="181" y="226" type="line"/>
    </contour>
  </outline>
</glyph>
<glyph name="Z" format="2">
  <advance width="513"/>
  <unicode hex="005A"/>
  <anchor x="268" y="641" name="aboveUC"/>
  <outline>
    <contour>
      <point x="36" y="0" type="line"/>
      <point x="479" y="0" type="line"/>
      <point x="479" y="102" type="line"/>
      <point x="186" y="102" type="line"/>
      <point x="476" y="547" type="line"/>
      <point x="476" y="620" type="line"/>
      <point x="63" y="620" type="line"/>
      <point x="63" y="517" type="line"/>
      <point x="326" y="517" type="line"/>
      <point x="36" y="73" type="line"/>
    </contour>
  </outline>
</glyph>
<glyph name="bracketleft" format="2">
  <advance width="418"/>
  <unicode hex="005B"/>
  <outline>
    <contour>
      <point x="327" y="13" type="line"/>
      <point x="181" y="13" type="line"/>
      <point x="181" y="681" type="line"/>
      <point x="327" y="681" type="line"/>
      <point x="327" y="747" type="line"/>
      <point x="85" y="747" type="line"/>
      <point x="85" y="-53" type="line"/>
      <point x="327" y="-53" type="line"/>
    </contour>
  </outline>
</glyph>
<glyph name="backslash" format="2">
  <advance width="519"/>
  <unicode hex="005C"/>
  <outline>
    <contour>
      <point x="454" y="-36" type="line"/>
      <point x="150" y="716" type="line"/>
      <point x="76" y="716" type="line"/>
      <point x="380" y="-36" type="line"/>
    </contour>
  </outline>
</glyph>
<glyph name="asciicircum" format="2">
  <advance width="531"/>
  <unicode hex="005E"/>
  <outline>
    <contour>
      <point x="502" y="553" type="line"/>
      <point x="300" y="885" type="line"/>
      <point x="275" y="885" type="line"/>
      <point x="71" y="553" type="line"/>
      <point x="179" y="553" type="line"/>
      <point x="325" y="790" type="line"/>
      <point x="250" y="790" type="line"/>
      <point x="394" y="553" type="line"/>
    </contour>
  </outline>
</glyph>
<glyph name="underscore" format="2">
  <advance width="757"/>
  <unicode hex="005F"/>
  <outline>
    <contour>
      <point x="79" y="3" type="line"/>
      <point x="679" y="3" type="line"/>
      <point x="679" y="93" type="line"/>
      <point x="79" y="93" type="line"/>
    </contour>
  </outline>
</glyph>
<glyph name="a" format="2">
  <advance width="509"/>
  <unicode hex="0061"/>
  <anchor x="271" y="501" name="aboveLC"/>
  <outline>
    <contour>
      <point x="183" y="-11" type="curve" smooth="yes"/>
      <point x="237" y="-11"/>
      <point x="282" y="13"/>
      <point x="322" y="49" type="curve"/>
      <point x="326" y="49" type="line"/>
      <point x="336" y="0" type="line"/>
      <point x="452" y="0" type="line"/>
      <point x="452" y="274" type="line" smooth="yes"/>
      <point x="452" y="421"/>
      <point x="384" y="491"/>
      <point x="262" y="491" type="curve" smooth="yes"/>
      <point x="186" y="491"/>
      <point x="118" y="465"/>
      <point x="57" y="428" type="curve"/>
      <point x="107" y="334" type="line"/>
      <point x="154" y="361"/>
      <point x="194" y="378"/>
      <point x="234" y="378" type="curve" smooth="yes"/>
      <point x="286" y="378"/>
      <point x="307" y="350"/>
      <point x="310" y="308" type="curve"/>
      <point x="120" y="288"/>
      <point x="40" y="234"/>
      <point x="40" y="133" type="curve" smooth="yes"/>
      <point x="40" y="52"/>
      <point x="95" y="-11"/>
    </contour>
    <contour>
      <point x="231" y="98" type="curve" smooth="yes"/>
      <point x="197" y="98"/>
      <point x="176" y="113"/>
      <point x="176" y="144" type="curve" smooth="yes"/>
      <point x="176" y="180"/>
      <point x="209" y="209"/>
      <point x="310" y="223" type="curve"/>
      <point x="310" y="139" type="line"/>
      <point x="285" y="114"/>
      <point x="263" y="98"/>
    </contour>
  </outline>
</glyph>
<glyph name="b" format="2">
  <advance width="553"/>
  <unicode hex="0062"/>
  <anchor x="135" y="705" name="aboveLC"/>
  <outline>
    <contour>
      <point x="314" y="-11" type="curve" smooth="yes"/>
      <point x="418" y="-11"/>
      <point x="516" y="82"/>
      <point x="516" y="248" type="curve" smooth="yes"/>
      <point x="516" y="395"/>
      <point x="444" y="491"/>
      <point x="328" y="491" type="curve" smooth="yes"/>
      <point x="282" y="491"/>
      <point x="237" y="470"/>
      <point x="201" y="438" type="curve"/>
      <point x="204" y="511" type="line"/>
      <point x="204" y="677" type="line"/>
      <point x="62" y="677" type="line"/>
      <point x="62" y="0" type="line"/>
      <point x="173" y="0" type="line"/>
      <point x="185" y="51" type="line"/>
      <point x="189" y="51" type="line"/>
      <point x="227" y="10"/>
      <point x="271" y="-11"/>
    </contour>
    <contour>
      <point x="281" y="104" type="curve" smooth="yes"/>
      <point x="257" y="104"/>
      <point x="230" y="112"/>
      <point x="204" y="135" type="curve"/>
      <point x="204" y="331" type="line"/>
      <point x="232" y="361"/>
      <point x="257" y="374"/>
      <point x="287" y="374" type="curve" smooth="yes"/>
      <point x="343" y="374"/>
      <point x="370" y="331"/>
      <point x="370" y="245" type="curve" smooth="yes"/>
      <point x="370" y="146"/>
      <point x="330" y="104"/>
    </contour>
  </outline>
</glyph>
<glyph name="c" format="2">
  <advance width="440"/>
  <unicode hex="0063"/>
  <anchor x="262" y="490" name="aboveLC"/>
  <anchor x="259" y="0" name="baseLC"/>
  <outline>
    <contour>
      <point x="265" y="-11" type="curve" smooth="yes"/>
      <point x="317" y="-11"/>
      <point x="374" y="6"/>
      <point x="418" y="45" type="curve"/>
      <point x="370" y="125" type="line"/>
      <point x="344" y="104"/>
      <point x="312" y="87"/>
      <point x="278" y="87" type="curve" smooth="yes"/>
      <point x="210" y="87"/>
      <point x="161" y="145"/>
      <point x="161" y="233" type="curve" smooth="yes"/>
      <point x="161" y="322"/>
      <point x="210" y="381"/>
      <point x="282" y="381" type="curve" smooth="yes"/>
      <point x="308" y="381"/>
      <point x="330" y="370"/>
      <point x="354" y="349" type="curve"/>
      <point x="412" y="428" type="line"/>
      <point x="378" y="457"/>
      <point x="334" y="479"/>
      <point x="275" y="479" type="curve" smooth="yes"/>
      <point x="148" y="479"/>
      <point x="36" y="389"/>
      <point x="36" y="233" type="curve" smooth="yes"/>
      <point x="36" y="78"/>
      <point x="136" y="-11"/>
    </contour>
  </outline>
</glyph>
<glyph name="d" format="2">
  <advance width="553"/>
  <unicode hex="0064"/>
  <anchor x="394" y="705" name="aboveLC"/>
  <outline>
    <contour>
      <point x="234" y="-11" type="curve" smooth="yes"/>
      <point x="280" y="-11"/>
      <point x="327" y="13"/>
      <point x="361" y="47" type="curve"/>
      <point x="365" y="47" type="line"/>
      <point x="375" y="0" type="line"/>
      <point x="491" y="0" type="line"/>
      <point x="491" y="677" type="line"/>
      <point x="349" y="677" type="line"/>
      <point x="349" y="513" type="line"/>
      <point x="354" y="441" type="line"/>
      <point x="321" y="471"/>
      <point x="289" y="491"/>
      <point x="236" y="491" type="curve" smooth="yes"/>
      <point x="135" y="491"/>
      <point x="37" y="396"/>
      <point x="37" y="239" type="curve" smooth="yes"/>
      <point x="37" y="83"/>
      <point x="114" y="-11"/>
    </contour>
    <contour>
      <point x="271" y="104" type="curve" smooth="yes"/>
      <point x="216" y="104"/>
      <point x="183" y="147"/>
      <point x="183" y="241" type="curve" smooth="yes"/>
      <point x="183" y="332"/>
      <point x="223" y="374"/>
      <point x="269" y="374" type="curve" smooth="yes"/>
      <point x="295" y="374"/>
      <point x="324" y="367"/>
      <point x="349" y="344" type="curve"/>
      <point x="349" y="147" type="line"/>
      <point x="325" y="116"/>
      <point x="301" y="104"/>
    </contour>
  </outline>
</glyph>
<glyph name="e" format="2">
  <advance width="500"/>
  <unicode hex="0065"/>
  <anchor x="260" y="501" name="aboveLC"/>
  <outline>
    <contour>
      <point x="277" y="-11" type="curve" smooth="yes"/>
      <point x="334" y="-11"/>
      <point x="398" y="8"/>
      <point x="447" y="42" type="curve"/>
      <point x="400" y="128" type="line"/>
      <point x="365" y="107"/>
      <point x="333" y="96"/>
      <point x="296" y="96" type="curve" smooth="yes"/>
      <point x="232" y="96"/>
      <point x="185" y="128"/>
      <point x="172" y="198" type="curve"/>
      <point x="459" y="198" type="line"/>
      <point x="461" y="209"/>
      <point x="465" y="235"/>
      <point x="465" y="261" type="curve" smooth="yes"/>
      <point x="465" y="391"/>
      <point x="397" y="491"/>
      <point x="260" y="491" type="curve" smooth="yes"/>
      <point x="145" y="491"/>
      <point x="34" y="395"/>
      <point x="34" y="239" type="curve" smooth="yes"/>
      <point x="34" y="80"/>
      <point x="140" y="-11"/>
    </contour>
    <contour>
      <point x="170" y="292" type="line"/>
      <point x="180" y="352"/>
      <point x="219" y="382"/>
      <point x="264" y="382" type="curve" smooth="yes"/>
      <point x="320" y="382"/>
      <point x="343" y="344"/>
      <point x="343" y="292" type="curve"/>
    </contour>
  </outline>
</glyph>
<glyph name="f" format="2">
  <advance width="310"/>
  <unicode hex="0066"/>
  <anchor x="213" y="703" name="aboveLC"/>
  <outline>
    <contour>
      <point x="87" y="0" type="line"/>
      <point x="208" y="0" type="line"/>
      <point x="208" y="509" type="line" smooth="yes"/>
      <point x="208" y="562"/>
      <point x="228" y="584"/>
      <point x="265" y="584" type="curve" smooth="yes"/>
      <point x="281" y="584"/>
      <point x="299" y="580"/>
      <point x="315" y="573" type="curve"/>
      <point x="338" y="663" type="line"/>
      <point x="317" y="671"/>
      <point x="285" y="680"/>
      <point x="249" y="680" type="curve" smooth="yes"/>
      <point x="132" y="680"/>
      <point x="87" y="605"/>
      <point x="87" y="507" type="curve" smooth="yes"/>
    </contour>
    <contour>
      <point x="24" y="372" type="line"/>
      <point x="297" y="372" type="line"/>
      <point x="297" y="468" type="line"/>
      <point x="93" y="468" type="line"/>
      <point x="24" y="463" type="line"/>
    </contour>
  </outline>
</glyph>
<glyph name="g" format="2">
  <advance width="516"/>
  <unicode hex="0067"/>
  <anchor x="262" y="501" name="aboveLC"/>
  <outline>
    <contour>
      <point x="233" y="-203" type="curve" smooth="yes"/>
      <point x="398" y="-203"/>
      <point x="502" y="-131"/>
      <point x="502" y="-31" type="curve" smooth="yes"/>
      <point x="502" y="54"/>
      <point x="436" y="90"/>
      <point x="319" y="90" type="curve" smooth="yes"/>
      <point x="241" y="90" type="line" smooth="yes"/>
      <point x="188" y="90"/>
      <point x="169" y="101"/>
      <point x="169" y="125" type="curve" smooth="yes"/>
      <point x="169" y="142"/>
      <point x="174" y="150"/>
      <point x="186" y="161" type="curve"/>
      <point x="207" y="154"/>
      <point x="227" y="151"/>
      <point x="244" y="151" type="curve" smooth="yes"/>
      <point x="349" y="151"/>
      <point x="433" y="202"/>
      <point x="433" y="312" type="curve" smooth="yes"/>
      <point x="433" y="337"/>
      <point x="426" y="361"/>
      <point x="417" y="376" type="curve"/>
      <point x="494" y="376" type="line"/>
      <point x="494" y="479" type="line"/>
      <point x="319" y="479" type="line"/>
      <point x="297" y="487"/>
      <point x="271" y="491"/>
      <point x="244" y="491" type="curve" smooth="yes"/>
      <point x="141" y="491"/>
      <point x="46" y="432"/>
      <point x="46" y="317" type="curve" smooth="yes"/>
      <point x="46" y="261"/>
      <point x="76" y="216"/>
      <point x="110" y="193" type="curve"/>
      <point x="110" y="189" type="line"/>
      <point x="80" y="167"/>
      <point x="57" y="134"/>
      <point x="57" y="99" type="curve" smooth="yes"/>
      <point x="57" y="59"/>
      <point x="76" y="34"/>
      <point x="101" y="18" type="curve"/>
      <point x="101" y="14" type="line"/>
      <point x="56" y="-10"/>
      <point x="33" y="-42"/>
      <point x="33" y="-82" type="curve" smooth="yes"/>
      <point x="33" y="-167"/>
      <point x="122" y="-203"/>
    </contour>
    <contour>
      <point x="244" y="237" type="curve" smooth="yes"/>
      <point x="207" y="237"/>
      <point x="179" y="265"/>
      <point x="179" y="317" type="curve" smooth="yes"/>
      <point x="179" y="368"/>
      <point x="207" y="395"/>
      <point x="244" y="395" type="curve" smooth="yes"/>
      <point x="282" y="395"/>
      <point x="310" y="368"/>
      <point x="310" y="317" type="curve" smooth="yes"/>
      <point x="310" y="265"/>
      <point x="282" y="237"/>
    </contour>
    <contour>
      <point x="256" y="-114" type="curve" smooth="yes"/>
      <point x="192" y="-114"/>
      <point x="150" y="-96"/>
      <point x="150" y="-59" type="curve" smooth="yes"/>
      <point x="150" y="-42"/>
      <point x="158" y="-27"/>
      <point x="175" y="-12" type="curve"/>
      <point x="191" y="-16"/>
      <point x="210" y="-18"/>
      <point x="243" y="-18" type="curve" smooth="yes"/>
      <point x="292" y="-18" type="line" smooth="yes"/>
      <point x="340" y="-18"/>
      <point x="366" y="-25"/>
      <point x="366" y="-55" type="curve" smooth="yes"/>
      <point x="366" y="-89"/>
      <point x="320" y="-114"/>
    </contour>
  </outline>
</glyph>
<glyph name="h" format="2">
  <advance width="535"/>
  <unicode hex="0068"/>
  <anchor x="126" y="693" name="aboveLC"/>
  <outline>
    <contour>
      <point x="66" y="0" type="line"/>
      <point x="187" y="0" type="line"/>
      <point x="187" y="322" type="line"/>
      <point x="223" y="357"/>
      <point x="247" y="376"/>
      <point x="286" y="376" type="curve" smooth="yes"/>
      <point x="333" y="376"/>
      <point x="353" y="350"/>
      <point x="353" y="277" type="curve" smooth="yes"/>
      <point x="353" y="0" type="line"/>
      <point x="475" y="0" type="line"/>
      <point x="475" y="292" type="line" smooth="yes"/>
      <point x="475" y="410"/>
      <point x="431" y="479"/>
      <point x="330" y="479" type="curve" smooth="yes"/>
      <point x="266" y="479"/>
      <point x="220" y="446"/>
      <point x="182" y="411" type="curve"/>
      <point x="187" y="499" type="line"/>
      <point x="187" y="668" type="line"/>
      <point x="66" y="668" type="line"/>
    </contour>
  </outline>
</glyph>
<glyph name="i" format="2">
  <advance width="254"/>
  <unicode hex="0069"/>
  <anchor x="126" y="678" name="aboveLC"/>
  <outline>
    <contour>
      <point x="66" y="0" type="line"/>
      <point x="187" y="0" type="line"/>
      <point x="187" y="468" type="line"/>
      <point x="66" y="468" type="line"/>
    </contour>
    <contour>
      <point x="127" y="545" type="curve" smooth="yes"/>
      <point x="169" y="545"/>
      <point x="200" y="572"/>
      <point x="200" y="611" type="curve" smooth="yes"/>
      <point x="200" y="650"/>
      <point x="169" y="677"/>
      <point x="127" y="677" type="curve" smooth="yes"/>
      <point x="85" y="677"/>
      <point x="54" y="650"/>
      <point x="54" y="611" type="curve" smooth="yes"/>
      <point x="54" y="572"/>
      <point x="85" y="545"/>
    </contour>
  </outline>
</glyph>
<glyph name="j" format="2">
  <advance width="268"/>
  <unicode hex="006A"/>
  <anchor x="136" y="698" name="aboveLC"/>
  <outline>
    <contour>
      <point x="35" y="-189" type="curve" smooth="yes"/>
      <point x="165" y="-189"/>
      <point x="206" y="-101"/>
      <point x="206" y="3" type="curve" smooth="yes"/>
      <point x="206" y="479" type="line"/>
      <point x="64" y="479" type="line"/>
      <point x="64" y="0" type="line" smooth="yes"/>
      <point x="64" y="-54"/>
      <point x="51" y="-78"/>
      <point x="13" y="-78" type="curve" smooth="yes"/>
      <point x="0" y="-78"/>
      <point x="-11" y="-75"/>
      <point x="-24" y="-71" type="curve"/>
      <point x="-49" y="-176" type="line"/>
      <point x="-29" y="-183"/>
      <point x="-5" y="-189"/>
    </contour>
    <contour>
      <point x="135" y="549" type="curve" smooth="yes"/>
      <point x="183" y="549"/>
      <point x="217" y="580"/>
      <point x="217" y="624" type="curve" smooth="yes"/>
      <point x="217" y="667"/>
      <point x="183" y="698"/>
      <point x="135" y="698" type="curve" smooth="yes"/>
      <point x="87" y="698"/>
      <point x="53" y="667"/>
      <point x="53" y="624" type="curve" smooth="yes"/>
      <point x="53" y="580"/>
      <point x="87" y="549"/>
    </contour>
  </outline>
</glyph>
<glyph name="k" format="2">
  <advance width="529"/>
  <unicode hex="006B"/>
  <anchor x="135" y="705" name="aboveLC"/>
  <outline>
    <contour>
      <point x="62" y="0" type="line"/>
      <point x="201" y="0" type="line"/>
      <point x="201" y="118" type="line"/>
      <point x="262" y="187" type="line"/>
      <point x="370" y="0" type="line"/>
      <point x="524" y="0" type="line"/>
      <point x="343" y="281" type="line"/>
      <point x="511" y="479" type="line"/>
      <point x="357" y="479" type="line"/>
      <point x="204" y="289" type="line"/>
      <point x="201" y="289" type="line"/>
      <point x="201" y="677" type="line"/>
      <point x="62" y="677" type="line"/>
    </contour>
  </outline>
</glyph>
<glyph name="l" format="2">
  <advance width="263"/>
  <unicode hex="006C"/>
  <anchor x="126" y="693" name="aboveLC"/>
  <outline>
    <contour>
      <point x="181" y="-11" type="curve" smooth="yes"/>
      <point x="209" y="-11"/>
      <point x="229" y="-6"/>
      <point x="244" y="-1" type="curve"/>
      <point x="229" y="89" type="line"/>
      <point x="220" y="87"/>
      <point x="217" y="87"/>
      <point x="212" y="87" type="curve" smooth="yes"/>
      <point x="200" y="87"/>
      <point x="187" y="96"/>
      <point x="187" y="124" type="curve" smooth="yes"/>
      <point x="187" y="668" type="line"/>
      <point x="66" y="668" type="line"/>
      <point x="66" y="130" type="line" smooth="yes"/>
      <point x="66" y="43"/>
      <point x="96" y="-11"/>
    </contour>
  </outline>
</glyph>
<glyph name="m" format="2">
  <advance width="806"/>
  <unicode hex="006D"/>
  <anchor x="411" y="490" name="aboveLC"/>
  <outline>
    <contour>
      <point x="66" y="0" type="line"/>
      <point x="187" y="0" type="line"/>
      <point x="187" y="322" type="line"/>
      <point x="221" y="358"/>
      <point x="251" y="376"/>
      <point x="278" y="376" type="curve" smooth="yes"/>
      <point x="323" y="376"/>
      <point x="344" y="350"/>
      <point x="344" y="277" type="curve" smooth="yes"/>
      <point x="344" y="0" type="line"/>
      <point x="466" y="0" type="line"/>
      <point x="466" y="322" type="line"/>
      <point x="499" y="358"/>
      <point x="529" y="376"/>
      <point x="557" y="376" type="curve" smooth="yes"/>
      <point x="602" y="376"/>
      <point x="623" y="350"/>
      <point x="623" y="277" type="curve" smooth="yes"/>
      <point x="623" y="0" type="line"/>
      <point x="744" y="0" type="line"/>
      <point x="744" y="292" type="line" smooth="yes"/>
      <point x="744" y="410"/>
      <point x="699" y="479"/>
      <point x="599" y="479" type="curve" smooth="yes"/>
      <point x="539" y="479"/>
      <point x="493" y="443"/>
      <point x="450" y="398" type="curve"/>
      <point x="427" y="449"/>
      <point x="388" y="479"/>
      <point x="321" y="479" type="curve" smooth="yes"/>
      <point x="261" y="479"/>
      <point x="217" y="446"/>
      <point x="177" y="406" type="curve"/>
      <point x="174" y="406" type="line"/>
      <point x="165" y="468" type="line"/>
      <point x="66" y="468" type="line"/>
    </contour>
  </outline>
</glyph>
<glyph name="n" format="2">
  <advance width="553"/>
  <unicode hex="006E"/>
  <anchor x="297" y="501" name="aboveLC"/>
  <outline>
    <contour>
      <point x="62" y="0" type="line"/>
      <point x="204" y="0" type="line"/>
      <point x="204" y="323" type="line"/>
      <point x="235" y="353"/>
      <point x="257" y="370"/>
      <point x="293" y="370" type="curve" smooth="yes"/>
      <point x="334" y="370"/>
      <point x="352" y="348"/>
      <point x="352" y="279" type="curve" smooth="yes"/>
      <point x="352" y="0" type="line"/>
      <point x="495" y="0" type="line"/>
      <point x="495" y="297" type="line" smooth="yes"/>
      <point x="495" y="417"/>
      <point x="450" y="491"/>
      <point x="346" y="491" type="curve" smooth="yes"/>
      <point x="280" y="491"/>
      <point x="232" y="457"/>
      <point x="192" y="418" type="curve"/>
      <point x="188" y="418" type="line"/>
      <point x="178" y="479" type="line"/>
      <point x="62" y="479" type="line"/>
    </contour>
  </outline>
</glyph>
<glyph name="o" format="2">
  <advance width="523"/>
  <unicode hex="006F"/>
  <anchor x="261" y="490" name="aboveLC"/>
  <outline>
    <contour>
      <point x="261" y="-11" type="curve" smooth="yes"/>
      <point x="379" y="-11"/>
      <point x="486" y="78"/>
      <point x="486" y="233" type="curve" smooth="yes"/>
      <point x="486" y="389"/>
      <point x="379" y="479"/>
      <point x="261" y="479" type="curve" smooth="yes"/>
      <point x="144" y="479"/>
      <point x="36" y="389"/>
      <point x="36" y="233" type="curve" smooth="yes"/>
      <point x="36" y="78"/>
      <point x="144" y="-11"/>
    </contour>
    <contour>
      <point x="261" y="87" type="curve" smooth="yes"/>
      <point x="197" y="87"/>
      <point x="161" y="145"/>
      <point x="161" y="233" type="curve" smooth="yes"/>
      <point x="161" y="322"/>
      <point x="197" y="381"/>
      <point x="261" y="381" type="curve" smooth="yes"/>
      <point x="326" y="381"/>
      <point x="362" y="322"/>
      <point x="362" y="233" type="curve" smooth="yes"/>
      <point x="362" y="145"/>
      <point x="326" y="87"/>
    </contour>
  </outline>
</glyph>
<glyph name="p" format="2">
  <advance width="553"/>
  <unicode hex="0070"/>
  <anchor x="297" y="501" name="aboveLC"/>
  <outline>
    <contour>
      <point x="62" y="-177" type="line"/>
      <point x="204" y="-177" type="line"/>
      <point x="204" y="-37" type="line"/>
      <point x="199" y="38" type="line"/>
      <point x="234" y="6"/>
      <point x="272" y="-11"/>
      <point x="314" y="-11" type="curve" smooth="yes"/>
      <point x="418" y="-11"/>
      <point x="516" y="82"/>
      <point x="516" y="247" type="curve" smooth="yes"/>
      <point x="516" y="395"/>
      <point x="444" y="491"/>
      <point x="328" y="491" type="curve" smooth="yes"/>
      <point x="278" y="491"/>
      <point x="229" y="465"/>
      <point x="192" y="432" type="curve"/>
      <point x="188" y="432" type="line"/>
      <point x="178" y="479" type="line"/>
      <point x="62" y="479" type="line"/>
    </contour>
    <contour>
      <point x="281" y="104" type="curve" smooth="yes"/>
      <point x="257" y="104"/>
      <point x="230" y="112"/>
      <point x="204" y="135" type="curve"/>
      <point x="204" y="331" type="line"/>
      <point x="232" y="361"/>
      <point x="257" y="374"/>
      <point x="287" y="374" type="curve" smooth="yes"/>
      <point x="343" y="374"/>
      <point x="370" y="331"/>
      <point x="370" y="245" type="curve" smooth="yes"/>
      <point x="370" y="146"/>
      <point x="330" y="104"/>
    </contour>
  </outline>
</glyph>
<glyph name="q" format="2">
  <advance width="553"/>
  <unicode hex="0071"/>
  <anchor x="282" y="501" name="aboveLC"/>
  <outline>
    <contour>
      <point x="349" y="-177" type="line"/>
      <point x="491" y="-177" type="line"/>
      <point x="491" y="479" type="line"/>
      <point x="380" y="479" type="line"/>
      <point x="368" y="432" type="line"/>
      <point x="364" y="432" type="line"/>
      <point x="326" y="473"/>
      <point x="288" y="491"/>
      <point x="236" y="491" type="curve" smooth="yes"/>
      <point x="135" y="491"/>
      <point x="37" y="396"/>
      <point x="37" y="239" type="curve" smooth="yes"/>
      <point x="37" y="83"/>
      <point x="114" y="-11"/>
      <point x="234" y="-11" type="curve" smooth="yes"/>
      <point x="277" y="-11"/>
      <point x="322" y="10"/>
      <point x="354" y="41" type="curve"/>
      <point x="349" y="-31" type="line"/>
    </contour>
    <contour>
      <point x="271" y="104" type="curve" smooth="yes"/>
      <point x="216" y="104"/>
      <point x="183" y="147"/>
      <point x="183" y="241" type="curve" smooth="yes"/>
      <point x="183" y="332"/>
      <point x="223" y="374"/>
      <point x="269" y="374" type="curve" smooth="yes"/>
      <point x="295" y="374"/>
      <point x="324" y="367"/>
      <point x="349" y="344" type="curve"/>
      <point x="349" y="147" type="line"/>
      <point x="325" y="116"/>
      <point x="301" y="104"/>
    </contour>
  </outline>
</glyph>
<glyph name="r" format="2">
  <advance width="385"/>
  <unicode hex="0072"/>
  <anchor x="238" y="501" name="aboveLC"/>
  <outline>
    <contour>
      <point x="62" y="0" type="line"/>
      <point x="204" y="0" type="line"/>
      <point x="204" y="277" type="line"/>
      <point x="230" y="343"/>
      <point x="274" y="366"/>
      <point x="310" y="366" type="curve" smooth="yes"/>
      <point x="330" y="366"/>
      <point x="344" y="363"/>
      <point x="362" y="358" type="curve"/>
      <point x="385" y="481" type="line"/>
      <point x="371" y="487"/>
      <point x="355" y="491"/>
      <point x="328" y="491" type="curve" smooth="yes"/>
      <point x="279" y="491"/>
      <point x="227" y="459"/>
      <point x="192" y="395" type="curve"/>
      <point x="188" y="395" type="line"/>
      <point x="178" y="479" type="line"/>
      <point x="62" y="479" type="line"/>
    </contour>
  </outline>
</glyph>
<glyph name="s" format="2">
  <advance width="414"/>
  <unicode hex="0073"/>
  <anchor x="219" y="490" name="aboveLC"/>
  <anchor x="218" y="0" name="baseLC"/>
  <outline>
    <contour>
      <point x="200" y="-11" type="curve" smooth="yes"/>
      <point x="321" y="-11"/>
      <point x="386" y="54"/>
      <point x="386" y="136" type="curve" smooth="yes"/>
      <point x="386" y="222"/>
      <point x="317" y="254"/>
      <point x="255" y="277" type="curve" smooth="yes"/>
      <point x="205" y="295"/>
      <point x="159" y="308"/>
      <point x="159" y="343" type="curve" smooth="yes"/>
      <point x="159" y="370"/>
      <point x="180" y="389"/>
      <point x="222" y="389" type="curve" smooth="yes"/>
      <point x="257" y="389"/>
      <point x="290" y="372"/>
      <point x="323" y="348" type="curve"/>
      <point x="378" y="422" type="line"/>
      <point x="339" y="452"/>
      <point x="287" y="479"/>
      <point x="219" y="479" type="curve" smooth="yes"/>
      <point x="113" y="479"/>
      <point x="45" y="420"/>
      <point x="45" y="337" type="curve" smooth="yes"/>
      <point x="45" y="259"/>
      <point x="114" y="222"/>
      <point x="173" y="200" type="curve" smooth="yes"/>
      <point x="223" y="181"/>
      <point x="272" y="165"/>
      <point x="272" y="129" type="curve" smooth="yes"/>
      <point x="272" y="100"/>
      <point x="250" y="79"/>
      <point x="203" y="79" type="curve" smooth="yes"/>
      <point x="159" y="79"/>
      <point x="119" y="98"/>
      <point x="77" y="130" type="curve"/>
      <point x="21" y="53" type="line"/>
      <point x="68" y="15"/>
      <point x="137" y="-11"/>
    </contour>
  </outline>
</glyph>
<glyph name="t" format="2">
  <advance width="370"/>
  <unicode hex="0074"/>
  <anchor x="161" y="636" name="aboveLC"/>
  <anchor x="228" y="0" name="baseLC"/>
  <outline>
    <contour>
      <point x="247" y="-11" type="curve" smooth="yes"/>
      <point x="293" y="-11"/>
      <point x="328" y="-2"/>
      <point x="353" y="5" type="curve"/>
      <point x="331" y="108" type="line"/>
      <point x="318" y="104"/>
      <point x="301" y="99"/>
      <point x="285" y="99" type="curve" smooth="yes"/>
      <point x="248" y="99"/>
      <point x="223" y="121"/>
      <point x="223" y="176" type="curve" smooth="yes"/>
      <point x="223" y="368" type="line"/>
      <point x="338" y="368" type="line"/>
      <point x="338" y="479" type="line"/>
      <point x="223" y="479" type="line"/>
      <point x="223" y="606" type="line"/>
      <point x="106" y="606" type="line"/>
      <point x="89" y="479" type="line"/>
      <point x="16" y="474" type="line"/>
      <point x="16" y="368" type="line"/>
      <point x="81" y="368" type="line"/>
      <point x="81" y="174" type="line" smooth="yes"/>
      <point x="81" y="63"/>
      <point x="128" y="-11"/>
    </contour>
  </outline>
</glyph>
<glyph name="u" format="2">
  <advance width="556"/>
  <unicode hex="0075"/>
  <anchor x="279" y="514" name="aboveLC"/>
  <outline>
    <contour>
      <point x="219" y="-12" type="curve" smooth="yes"/>
      <point x="286" y="-12"/>
      <point x="334" y="21"/>
      <point x="377" y="72" type="curve"/>
      <point x="380" y="72" type="line"/>
      <point x="389" y="0" type="line"/>
      <point x="483" y="0" type="line"/>
      <point x="483" y="491" type="line"/>
      <point x="368" y="491" type="line"/>
      <point x="368" y="155" type="line"/>
      <point x="331" y="107"/>
      <point x="302" y="87"/>
      <point x="259" y="87" type="curve" smooth="yes"/>
      <point x="206" y="87"/>
      <point x="183" y="117"/>
      <point x="183" y="198" type="curve" smooth="yes"/>
      <point x="183" y="491" type="line"/>
      <point x="68" y="491" type="line"/>
      <point x="68" y="183" type="line" smooth="yes"/>
      <point x="68" y="59"/>
      <point x="114" y="-12"/>
    </contour>
  </outline>
</glyph>
<glyph name="v" format="2">
  <advance width="480"/>
  <unicode hex="0076"/>
  <anchor x="242" y="490" name="aboveLC"/>
  <outline>
    <contour>
      <point x="172" y="0" type="line"/>
      <point x="312" y="0" type="line"/>
      <point x="469" y="468" type="line"/>
      <point x="352" y="468" type="line"/>
      <point x="283" y="234" type="line" smooth="yes"/>
      <point x="270" y="187"/>
      <point x="257" y="139"/>
      <point x="245" y="91" type="curve"/>
      <point x="241" y="91" type="line"/>
      <point x="228" y="139"/>
      <point x="215" y="187"/>
      <point x="203" y="234" type="curve" smooth="yes"/>
      <point x="134" y="468" type="line"/>
      <point x="11" y="468" type="line"/>
    </contour>
  </outline>
</glyph>
<glyph name="w" format="2">
  <advance width="720"/>
  <unicode hex="0077"/>
  <anchor x="361" y="490" name="aboveLC"/>
  <outline>
    <contour>
      <point x="143" y="0" type="line"/>
      <point x="283" y="0" type="line"/>
      <point x="331" y="205" type="line"/>
      <point x="341" y="249"/>
      <point x="349" y="292"/>
      <point x="357" y="342" type="curve"/>
      <point x="361" y="342" type="line"/>
      <point x="371" y="292"/>
      <point x="379" y="249"/>
      <point x="388" y="205" type="curve"/>
      <point x="438" y="0" type="line"/>
      <point x="582" y="0" type="line"/>
      <point x="698" y="468" type="line"/>
      <point x="585" y="468" type="line"/>
      <point x="533" y="235" type="line"/>
      <point x="524" y="190"/>
      <point x="518" y="145"/>
      <point x="510" y="99" type="curve"/>
      <point x="506" y="99" type="line"/>
      <point x="496" y="145"/>
      <point x="487" y="190"/>
      <point x="475" y="235" type="curve"/>
      <point x="417" y="468" type="line"/>
      <point x="309" y="468" type="line"/>
      <point x="252" y="235" type="line"/>
      <point x="240" y="191"/>
      <point x="231" y="145"/>
      <point x="223" y="99" type="curve"/>
      <point x="219" y="99" type="line"/>
      <point x="211" y="145"/>
      <point x="204" y="190"/>
      <point x="196" y="235" type="curve"/>
      <point x="144" y="468" type="line"/>
      <point x="22" y="468" type="line"/>
    </contour>
  </outline>
</glyph>
<glyph name="x" format="2">
  <advance width="469"/>
  <unicode hex="0078"/>
  <anchor x="234" y="490" name="aboveLC"/>
  <outline>
    <contour>
      <point x="13" y="0" type="line"/>
      <point x="139" y="0" type="line"/>
      <point x="183" y="86" type="line"/>
      <point x="196" y="114"/>
      <point x="209" y="142"/>
      <point x="223" y="168" type="curve"/>
      <point x="226" y="168" type="line"/>
      <point x="242" y="142"/>
      <point x="257" y="113"/>
      <point x="272" y="86" type="curve"/>
      <point x="325" y="0" type="line"/>
      <point x="456" y="0" type="line"/>
      <point x="309" y="230" type="line"/>
      <point x="446" y="468" type="line"/>
      <point x="320" y="468" type="line"/>
      <point x="281" y="384" type="line"/>
      <point x="270" y="358"/>
      <point x="257" y="331"/>
      <point x="246" y="305" type="curve"/>
      <point x="242" y="305" type="line"/>
      <point x="228" y="331"/>
      <point x="214" y="358"/>
      <point x="201" y="384" type="curve"/>
      <point x="153" y="468" type="line"/>
      <point x="22" y="468" type="line"/>
      <point x="159" y="244" type="line"/>
    </contour>
  </outline>
</glyph>
<glyph name="y" format="2">
  <advance width="480"/>
  <unicode hex="0079"/>
  <anchor x="246" y="490" name="aboveLC"/>
  <outline>
    <contour>
      <point x="105" y="-188" type="curve" smooth="yes"/>
      <point x="211" y="-188"/>
      <point x="260" y="-125"/>
      <point x="302" y="-14" type="curve"/>
      <point x="468" y="468" type="line"/>
      <point x="351" y="468" type="line"/>
      <point x="287" y="250" type="line" smooth="yes"/>
      <point x="275" y="206"/>
      <point x="263" y="161"/>
      <point x="252" y="117" type="curve"/>
      <point x="248" y="117" type="line"/>
      <point x="235" y="162"/>
      <point x="223" y="208"/>
      <point x="209" y="250" type="curve" smooth="yes"/>
      <point x="134" y="468" type="line"/>
      <point x="11" y="468" type="line"/>
      <point x="194" y="8" type="line"/>
      <point x="186" y="-19" type="line" smooth="yes"/>
      <point x="171" y="-61"/>
      <point x="145" y="-91"/>
      <point x="97" y="-91" type="curve" smooth="yes"/>
      <point x="86" y="-91"/>
      <point x="73" y="-88"/>
      <point x="64" y="-85" type="curve"/>
      <point x="42" y="-179" type="line"/>
      <point x="60" y="-184"/>
      <point x="78" y="-188"/>
    </contour>
  </outline>
</glyph>
<glyph name="z" format="2">
  <advance width="427"/>
  <unicode hex="007A"/>
  <anchor x="228" y="490" name="aboveLC"/>
  <outline>
    <contour>
      <point x="33" y="0" type="line"/>
      <point x="403" y="0" type="line"/>
      <point x="403" y="96" type="line"/>
      <point x="185" y="96" type="line"/>
      <point x="397" y="403" type="line"/>
      <point x="397" y="468" type="line"/>
      <point x="57" y="468" type="line"/>
      <point x="57" y="372" type="line"/>
      <point x="245" y="372" type="line"/>
      <point x="33" y="64" type="line"/>
    </contour>
  </outline>
</glyph>
<glyph name="braceleft" format="2">
  <advance width="379"/>
  <unicode hex="007B"/>
  <outline>
    <contour>
      <point x="323" y="756" type="line"/>
      <point x="205" y="734"/>
      <point x="140" y="675"/>
      <point x="140" y="580" type="curve" smooth="yes"/>
      <point x="140" y="549"/>
      <point x="155" y="471"/>
      <point x="155" y="438" type="curve" smooth="yes"/>
      <point x="155" y="390"/>
      <point x="115" y="361"/>
      <point x="75" y="355" type="curve"/>
      <point x="75" y="309" type="line"/>
      <point x="110" y="302"/>
      <point x="155" y="275"/>
      <point x="155" y="230" type="curve" smooth="yes"/>
      <point x="155" y="169"/>
      <point x="138" y="130"/>
      <point x="138" y="69" type="curve" smooth="yes"/>
      <point x="138" y="-10"/>
      <point x="216" y="-65"/>
      <point x="323" y="-83" type="curve"/>
      <point x="323" y="-36" type="line"/>
      <point x="284" y="-22"/>
      <point x="243" y="-2"/>
      <point x="243" y="45" type="curve" smooth="yes"/>
      <point x="243" y="83"/>
      <point x="258" y="138"/>
      <point x="258" y="184" type="curve" smooth="yes"/>
      <point x="258" y="220"/>
      <point x="250" y="296"/>
      <point x="179" y="333" type="curve"/>
      <point x="250" y="371"/>
      <point x="258" y="421"/>
      <point x="258" y="483" type="curve" smooth="yes"/>
      <point x="258" y="519"/>
      <point x="243" y="570"/>
      <point x="243" y="606" type="curve" smooth="yes"/>
      <point x="243" y="682"/>
      <point x="281" y="697"/>
      <point x="323" y="710" type="curve"/>
    </contour>
  </outline>
</glyph>
<glyph name="bar" format="2">
  <advance width="240"/>
  <unicode hex="007C"/>
  <outline>
    <contour>
      <point x="101" y="61" type="line"/>
      <point x="188" y="-4" type="line"/>
      <point x="188" y="568" type="line"/>
      <point x="101" y="648" type="line"/>
    </contour>
  </outline>
</glyph>
<glyph name="asciitilde" format="2">
  <advance width="665"/>
  <unicode hex="007E"/>
  <outline>
    <contour>
      <point x="462" y="342" type="curve" smooth="yes"/>
      <point x="409" y="342"/>
      <point x="264" y="401"/>
      <point x="203" y="401" type="curve" smooth="yes"/>
      <point x="141" y="401"/>
      <point x="83" y="351"/>
      <point x="79" y="247" type="curve"/>
      <point x="133" y="247" type="line"/>
      <point x="142" y="275"/>
      <point x="158" y="305"/>
      <point x="199" y="305" type="curve" smooth="yes"/>
      <point x="258" y="305"/>
      <point x="382" y="246"/>
      <point x="463" y="246" type="curve" smooth="yes"/>
      <point x="530" y="246"/>
      <point x="575" y="316"/>
      <point x="582" y="401" type="curve"/>
      <point x="523" y="401" type="line"/>
      <point x="518" y="369"/>
      <point x="502" y="342"/>
    </contour>
  </outline>
</glyph>
<glyph name="cent" format="2">
  <advance width="510"/>
  <unicode hex="00A2"/>
  <outline>
    <contour>
      <point x="311" y="49" type="curve" smooth="yes"/>
      <point x="363" y="49"/>
      <point x="424" y="68"/>
      <point x="471" y="109" type="curve"/>
      <point x="413" y="199" type="line"/>
      <point x="390" y="181"/>
      <point x="362" y="164"/>
      <point x="327" y="164" type="curve" smooth="yes"/>
      <point x="243" y="164"/>
      <point x="196" y="215"/>
      <point x="196" y="296" type="curve" smooth="yes"/>
      <point x="196" y="377"/>
      <point x="241" y="429"/>
      <point x="332" y="429" type="curve" smooth="yes"/>
      <point x="354" y="429"/>
      <point x="376" y="421"/>
      <point x="399" y="401" type="curve"/>
      <point x="464" y="489" type="line"/>
      <point x="431" y="521"/>
      <point x="383" y="544"/>
      <point x="324" y="544" type="curve" smooth="yes"/>
      <point x="175" y="544"/>
      <point x="58" y="454"/>
      <point x="58" y="296" type="curve" smooth="yes"/>
      <point x="58" y="139"/>
      <point x="160" y="49"/>
    </contour>
    <contour>
      <point x="265" y="-39" type="line"/>
      <point x="343" y="-39" type="line"/>
      <point x="343" y="633" type="line"/>
      <point x="265" y="633" type="line"/>
    </contour>
  </outline>
</glyph>
<glyph name="sterling" format="2">
  <advance width="510"/>
  <unicode hex="00A3"/>
  <outline>
    <contour>
      <point x="46" y="0" type="line"/>
      <point x="480" y="0" type="line"/>
      <point x="480" y="119" type="line"/>
      <point x="230" y="119" type="line"/>
      <point x="230" y="123" type="line"/>
      <point x="260" y="158"/>
      <point x="273" y="188"/>
      <point x="273" y="234" type="curve" smooth="yes"/>
      <point x="273" y="302"/>
      <point x="242" y="360"/>
      <point x="242" y="419" type="curve" smooth="yes"/>
      <point x="242" y="481"/>
      <point x="275" y="510"/>
      <point x="327" y="510" type="curve" smooth="yes"/>
      <point x="357" y="510"/>
      <point x="380" y="496"/>
      <point x="403" y="470" type="curve"/>
      <point x="480" y="546" type="line"/>
      <point x="437" y="597"/>
      <point x="385" y="625"/>
      <point x="313" y="625" type="curve" smooth="yes"/>
      <point x="193" y="625"/>
      <point x="106" y="549"/>
      <point x="106" y="426" type="curve" smooth="yes"/>
      <point x="106" y="367"/>
      <point x="148" y="299"/>
      <point x="148" y="236" type="curve" smooth="yes"/>
      <point x="148" y="167"/>
      <point x="104" y="114"/>
      <point x="46" y="87" type="curve"/>
    </contour>
    <contour>
      <point x="50" y="262" type="line"/>
      <point x="396" y="262" type="line"/>
      <point x="396" y="349" type="line"/>
      <point x="116" y="349" type="line"/>
      <point x="50" y="344" type="line"/>
    </contour>
  </outline>
</glyph>
<glyph name="currency" format="2">
  <advance width="497"/>
  <unicode hex="00A4"/>
  <outline>
    <contour>
      <point x="101" y="435" type="line"/>
      <point x="149" y="476" type="line"/>
      <point x="70" y="557" type="line"/>
      <point x="26" y="512" type="line"/>
    </contour>
    <contour>
      <point x="249" y="195" type="curve" smooth="yes"/>
      <point x="184" y="195"/>
      <point x="130" y="249"/>
      <point x="130" y="329" type="curve" smooth="yes"/>
      <point x="130" y="409"/>
      <point x="184" y="463"/>
      <point x="249" y="463" type="curve" smooth="yes"/>
      <point x="313" y="463"/>
      <point x="367" y="409"/>
      <point x="367" y="329" type="curve" smooth="yes"/>
      <point x="367" y="249"/>
      <point x="313" y="195"/>
    </contour>
    <contour>
      <point x="348" y="476" type="line"/>
      <point x="395" y="435" type="line"/>
      <point x="471" y="512" type="line"/>
      <point x="427" y="557" type="line"/>
    </contour>
    <contour>
      <point x="149" y="183" type="line"/>
      <point x="101" y="224" type="line"/>
      <point x="26" y="148" type="line"/>
      <point x="70" y="103" type="line"/>
    </contour>
    <contour>
      <point x="395" y="224" type="line"/>
      <point x="348" y="183" type="line"/>
      <point x="427" y="103" type="line"/>
      <point x="471" y="148" type="line"/>
    </contour>
    <contour>
      <point x="347" y="134"/>
      <point x="443" y="215"/>
      <point x="443" y="329" type="curve" smooth="yes"/>
      <point x="443" y="428"/>
      <point x="355" y="524"/>
      <point x="249" y="524" type="curve" smooth="yes"/>
      <point x="170" y="524"/>
      <point x="54" y="466"/>
      <point x="54" y="329" type="curve" smooth="yes"/>
      <point x="54" y="228"/>
      <point x="128" y="134"/>
      <point x="249" y="134" type="curve" smooth="yes"/>
    </contour>
  </outline>
</glyph>
<glyph name="yen" format="2">
  <advance width="510"/>
  <unicode hex="00A5"/>
  <outline>
    <contour>
      <point x="183" y="0" type="line"/>
      <point x="326" y="0" type="line"/>
      <point x="326" y="141" type="line"/>
      <point x="474" y="141" type="line"/>
      <point x="474" y="210" type="line"/>
      <point x="326" y="210" type="line"/>
      <point x="326" y="262" type="line"/>
      <point x="474" y="262" type="line"/>
      <point x="474" y="331" type="line"/>
      <point x="356" y="331" type="line"/>
      <point x="498" y="613" type="line"/>
      <point x="356" y="613" type="line"/>
      <point x="307" y="485" type="line"/>
      <point x="291" y="443"/>
      <point x="275" y="401"/>
      <point x="258" y="358" type="curve"/>
      <point x="254" y="358" type="line"/>
      <point x="238" y="400"/>
      <point x="222" y="443"/>
      <point x="206" y="485" type="curve" smooth="yes"/>
      <point x="157" y="613" type="line"/>
      <point x="11" y="613" type="line"/>
      <point x="153" y="331" type="line"/>
      <point x="35" y="331" type="line"/>
      <point x="35" y="262" type="line"/>
      <point x="183" y="262" type="line"/>
      <point x="183" y="210" type="line"/>
      <point x="35" y="210" type="line"/>
      <point x="35" y="141" type="line"/>
      <point x="183" y="141" type="line"/>
    </contour>
  </outline>
</glyph>
<glyph name="brokenbar" format="2">
  <advance width="258"/>
  <unicode hex="00A6"/>
  <outline>
    <contour>
      <point x="83" y="301" type="line"/>
      <point x="175" y="301" type="line"/>
      <point x="175" y="720" type="line"/>
      <point x="83" y="720" type="line"/>
    </contour>
    <contour>
      <point x="83" y="-237" type="line"/>
      <point x="175" y="-237" type="line"/>
      <point x="175" y="197" type="line"/>
      <point x="83" y="197" type="line"/>
    </contour>
  </outline>
</glyph>
<glyph name="section" format="2">
  <advance width="492"/>
  <unicode hex="00A7"/>
  <outline>
    <contour>
      <point x="352" y="131" type="line"/>
      <point x="417" y="162"/>
      <point x="455" y="204"/>
      <point x="455" y="269" type="curve" smooth="yes"/>
      <point x="455" y="442"/>
      <point x="196" y="441"/>
      <point x="196" y="519" type="curve" smooth="yes"/>
      <point x="196" y="545"/>
      <point x="214" y="563"/>
      <point x="254" y="563" type="curve" smooth="yes"/>
      <point x="290" y="563"/>
      <point x="326" y="543"/>
      <point x="355" y="518" type="curve"/>
      <point x="412" y="593" type="line"/>
      <point x="374" y="624"/>
      <point x="317" y="653"/>
      <point x="248" y="653" type="curve" smooth="yes"/>
      <point x="145" y="653"/>
      <point x="86" y="594"/>
      <point x="86" y="514" type="curve" smooth="yes"/>
      <point x="86" y="351"/>
      <point x="352" y="372"/>
      <point x="352" y="260" type="curve" smooth="yes"/>
      <point x="352" y="221"/>
      <point x="329" y="200"/>
      <point x="284" y="183" type="curve"/>
    </contour>
    <contour>
      <point x="226" y="-74" type="curve" smooth="yes"/>
      <point x="337" y="-74"/>
      <point x="400" y="-12"/>
      <point x="400" y="69" type="curve" smooth="yes"/>
      <point x="400" y="233"/>
      <point x="140" y="214"/>
      <point x="140" y="323" type="curve" smooth="yes"/>
      <point x="140" y="358"/>
      <point x="163" y="381"/>
      <point x="205" y="398" type="curve"/>
      <point x="145" y="450" type="line"/>
      <point x="81" y="426"/>
      <point x="37" y="373"/>
      <point x="37" y="314" type="curve" smooth="yes"/>
      <point x="37" y="136"/>
      <point x="290" y="148"/>
      <point x="290" y="63" type="curve" smooth="yes"/>
      <point x="290" y="36"/>
      <point x="269" y="16"/>
      <point x="226" y="16" type="curve" smooth="yes"/>
      <point x="185" y="16"/>
      <point x="150" y="33"/>
      <point x="119" y="65" type="curve"/>
      <point x="48" y="2" type="line"/>
      <point x="89" y="-48"/>
      <point x="158" y="-74"/>
    </contour>
  </outline>
</glyph>
<glyph name="copyright" format="2">
  <advance width="724"/>
  <unicode hex="00A9"/>
  <outline>
    <contour>
      <point x="362" y="-8" type="curve" smooth="yes"/>
      <point x="533" y="-8"/>
      <point x="681" y="114"/>
      <point x="681" y="314" type="curve" smooth="yes"/>
      <point x="681" y="513"/>
      <point x="533" y="633"/>
      <point x="362" y="633" type="curve" smooth="yes"/>
      <point x="191" y="633"/>
      <point x="43" y="514"/>
      <point x="43" y="314" type="curve" smooth="yes"/>
      <point x="43" y="114"/>
      <point x="191" y="-8"/>
    </contour>
    <contour>
      <point x="362" y="50" type="curve" smooth="yes"/>
      <point x="219" y="50"/>
      <point x="109" y="155"/>
      <point x="109" y="314" type="curve" smooth="yes"/>
      <point x="109" y="472"/>
      <point x="219" y="574"/>
      <point x="362" y="574" type="curve" smooth="yes"/>
      <point x="504" y="574"/>
      <point x="615" y="472"/>
      <point x="615" y="314" type="curve" smooth="yes"/>
      <point x="615" y="155"/>
      <point x="504" y="50"/>
    </contour>
    <contour>
      <point x="374" y="123" type="curve" smooth="yes"/>
      <point x="424" y="123"/>
      <point x="464" y="143"/>
      <point x="501" y="173" type="curve"/>
      <point x="455" y="238" type="line"/>
      <point x="431" y="219"/>
      <point x="410" y="206"/>
      <point x="377" y="206" type="curve" smooth="yes"/>
      <point x="323" y="206"/>
      <point x="289" y="247"/>
      <point x="289" y="312" type="curve" smooth="yes"/>
      <point x="289" y="370"/>
      <point x="321" y="415"/>
      <point x="382" y="415" type="curve" smooth="yes"/>
      <point x="409" y="415"/>
      <point x="428" y="403"/>
      <point x="448" y="382" type="curve"/>
      <point x="502" y="442" type="line"/>
      <point x="471" y="473"/>
      <point x="433" y="499"/>
      <point x="373" y="499" type="curve" smooth="yes"/>
      <point x="276" y="499"/>
      <point x="187" y="426"/>
      <point x="187" y="312" type="curve" smooth="yes"/>
      <point x="187" y="195"/>
      <point x="266" y="123"/>
    </contour>
  </outline>
</glyph>
<glyph name="logicalnot" format="2">
  <advance width="492"/>
  <unicode hex="00AC"/>
  <outline>
    <contour>
      <point x="369" y="91" type="line"/>
      <point x="460" y="91" type="line"/>
      <point x="460" y="356" type="line"/>
      <point x="32" y="356" type="line"/>
      <point x="32" y="270" type="line"/>
      <point x="369" y="270" type="line"/>
    </contour>
  </outline>
</glyph>
<glyph name="registered" format="2">
  <advance width="428"/>
  <unicode hex="00AE"/>
  <outline>
    <contour>
      <point x="213" y="297" type="curve" smooth="yes"/>
      <point x="315" y="297"/>
      <point x="399" y="376"/>
      <point x="399" y="488" type="curve" smooth="yes"/>
      <point x="399" y="599"/>
      <point x="315" y="679"/>
      <point x="213" y="679" type="curve" smooth="yes"/>
      <point x="111" y="679"/>
      <point x="28" y="599"/>
      <point x="28" y="488" type="curve" smooth="yes"/>
      <point x="28" y="376"/>
      <point x="111" y="297"/>
    </contour>
    <contour>
      <point x="213" y="340" type="curve" smooth="yes"/>
      <point x="133" y="340"/>
      <point x="75" y="399"/>
      <point x="75" y="488" type="curve" smooth="yes"/>
      <point x="75" y="576"/>
      <point x="133" y="635"/>
      <point x="213" y="635" type="curve" smooth="yes"/>
      <point x="293" y="635"/>
      <point x="351" y="576"/>
      <point x="351" y="488" type="curve" smooth="yes"/>
      <point x="351" y="399"/>
      <point x="293" y="340"/>
    </contour>
    <contour>
      <point x="139" y="395" type="line"/>
      <point x="189" y="395" type="line"/>
      <point x="189" y="455" type="line"/>
      <point x="219" y="455" type="line"/>
      <point x="250" y="395" type="line"/>
      <point x="303" y="395" type="line"/>
      <point x="262" y="470" type="line"/>
      <point x="284" y="479"/>
      <point x="296" y="500"/>
      <point x="296" y="522" type="curve" smooth="yes"/>
      <point x="296" y="565"/>
      <point x="262" y="584"/>
      <point x="220" y="584" type="curve" smooth="yes"/>
      <point x="139" y="584" type="line"/>
    </contour>
    <contour>
      <point x="189" y="491" type="line"/>
      <point x="189" y="545" type="line"/>
      <point x="211" y="545" type="line" smooth="yes"/>
      <point x="232" y="545"/>
      <point x="243" y="534"/>
      <point x="243" y="518" type="curve" smooth="yes"/>
      <point x="243" y="502"/>
      <point x="231" y="491"/>
      <point x="210" y="491" type="curve" smooth="yes"/>
    </contour>
  </outline>
</glyph>
<glyph name="degree" format="2">
  <advance width="337"/>
  <unicode hex="00B0"/>
  <outline>
    <contour>
      <point x="169" y="386" type="curve" smooth="yes"/>
      <point x="242" y="386"/>
      <point x="301" y="441"/>
      <point x="301" y="518" type="curve" smooth="yes"/>
      <point x="301" y="596"/>
      <point x="242" y="651"/>
      <point x="169" y="651" type="curve" smooth="yes"/>
      <point x="96" y="651"/>
      <point x="37" y="596"/>
      <point x="37" y="518" type="curve" smooth="yes"/>
      <point x="37" y="441"/>
      <point x="96" y="386"/>
    </contour>
    <contour>
      <point x="169" y="446" type="curve" smooth="yes"/>
      <point x="130" y="446"/>
      <point x="103" y="476"/>
      <point x="103" y="518" type="curve" smooth="yes"/>
      <point x="103" y="561"/>
      <point x="130" y="591"/>
      <point x="169" y="591" type="curve" smooth="yes"/>
      <point x="208" y="591"/>
      <point x="235" y="561"/>
      <point x="235" y="518" type="curve" smooth="yes"/>
      <point x="235" y="476"/>
      <point x="208" y="446"/>
    </contour>
  </outline>
</glyph>
<glyph name="plusminus" format="2">
  <advance width="510"/>
  <unicode hex="00B1"/>
  <outline>
    <contour>
      <point x="203" y="152" type="line"/>
      <point x="307" y="152" type="line"/>
      <point x="307" y="284" type="line"/>
      <point x="477" y="284" type="line"/>
      <point x="477" y="384" type="line"/>
      <point x="307" y="384" type="line"/>
      <point x="307" y="547" type="line"/>
      <point x="203" y="547" type="line"/>
      <point x="203" y="384" type="line"/>
      <point x="32" y="384" type="line"/>
      <point x="32" y="284" type="line"/>
      <point x="203" y="284" type="line"/>
    </contour>
    <contour>
      <point x="32" y="0" type="line"/>
      <point x="477" y="0" type="line"/>
      <point x="477" y="100" type="line"/>
      <point x="32" y="100" type="line"/>
    </contour>
  </outline>
</glyph>
<glyph name="micro" format="2">
  <advance width="573"/>
  <unicode hex="00B5"/>
  <outline>
    <contour>
      <point x="62" y="-170" type="line"/>
      <point x="206" y="-170" type="line"/>
      <point x="199" y="-104"/>
      <point x="197" y="-55"/>
      <point x="196" y="15" type="curve"/>
      <point x="211" y="-3"/>
      <point x="233" y="-6"/>
      <point x="256" y="-6" type="curve" smooth="yes"/>
      <point x="298" y="-6"/>
      <point x="334" y="19"/>
      <point x="358" y="68" type="curve"/>
      <point x="361" y="68" type="line"/>
      <point x="377" y="15"/>
      <point x="418" y="-11"/>
      <point x="485" y="-11" type="curve"/>
      <point x="526" y="-11"/>
      <point x="548" y="-4"/>
      <point x="569" y="4" type="curve"/>
      <point x="552" y="108" type="line"/>
      <point x="542" y="105"/>
      <point x="530" y="103"/>
      <point x="522" y="103" type="curve" smooth="yes"/>
      <point x="495" y="103"/>
      <point x="479" y="113"/>
      <point x="479" y="144" type="curve" smooth="yes"/>
      <point x="479" y="224"/>
      <point x="485" y="367"/>
      <point x="489" y="479" type="curve"/>
      <point x="345" y="479" type="line"/>
      <point x="345" y="172" type="line"/>
      <point x="320" y="126"/>
      <point x="296" y="109"/>
      <point x="263" y="109" type="curve" smooth="yes"/>
      <point x="222" y="109"/>
      <point x="204" y="132"/>
      <point x="204" y="200" type="curve" smooth="yes"/>
      <point x="204" y="479" type="line"/>
      <point x="62" y="479" type="line"/>
    </contour>
  </outline>
</glyph>
<glyph name="mu" format="2">
  <advance width="555"/>
  <unicode hex="00B5"/>
  <outline>
    <contour>
      <point x="66" y="-168" type="line"/>
      <point x="189" y="-168" type="line"/>
      <point x="182" y="-100"/>
      <point x="181" y="-55"/>
      <point x="180" y="21" type="curve"/>
      <point x="197" y="-2"/>
      <point x="221" y="-7"/>
      <point x="248" y="-7" type="curve" smooth="yes"/>
      <point x="292" y="-7"/>
      <point x="330" y="19"/>
      <point x="356" y="70" type="curve"/>
      <point x="359" y="70" type="line"/>
      <point x="372" y="15"/>
      <point x="408" y="-11"/>
      <point x="469" y="-11" type="curve"/>
      <point x="505" y="-11"/>
      <point x="526" y="-4"/>
      <point x="544" y="2" type="curve"/>
      <point x="529" y="92" type="line"/>
      <point x="519" y="89"/>
      <point x="508" y="87"/>
      <point x="500" y="87" type="curve" smooth="yes"/>
      <point x="476" y="87"/>
      <point x="460" y="97"/>
      <point x="460" y="126" type="curve" smooth="yes"/>
      <point x="460" y="215"/>
      <point x="466" y="353"/>
      <point x="469" y="468" type="curve"/>
      <point x="346" y="468" type="line"/>
      <point x="346" y="162" type="line"/>
      <point x="316" y="108"/>
      <point x="288" y="92"/>
      <point x="253" y="92" type="curve" smooth="yes"/>
      <point x="207" y="92"/>
      <point x="187" y="120"/>
      <point x="187" y="191" type="curve" smooth="yes"/>
      <point x="187" y="468" type="line"/>
      <point x="66" y="468" type="line"/>
    </contour>
  </outline>
</glyph>
<glyph name="paragraph" format="2">
  <advance width="615"/>
  <unicode hex="00B6"/>
  <outline>
    <contour>
      <point x="379" y="-77" type="line"/>
      <point x="522" y="-77" type="line"/>
      <point x="522" y="630" type="line"/>
      <point x="379" y="630" type="line"/>
    </contour>
    <contour>
      <point x="286" y="190" type="curve" smooth="yes"/>
      <point x="326" y="190" type="line"/>
      <point x="326" y="630" type="line"/>
      <point x="283" y="630" type="line" smooth="yes"/>
      <point x="148" y="630"/>
      <point x="37" y="577"/>
      <point x="37" y="414" type="curve" smooth="yes"/>
      <point x="37" y="266"/>
      <point x="150" y="190"/>
    </contour>
  </outline>
</glyph>
<glyph name="questiondown" format="2">
  <advance width="425"/>
  <unicode hex="00BF"/>
  <outline>
    <contour>
      <point x="215" y="-196" type="curve" smooth="yes"/>
      <point x="288" y="-196"/>
      <point x="344" y="-160"/>
      <point x="387" y="-113" type="curve"/>
      <point x="339" y="-70" type="line"/>
      <point x="308" y="-106"/>
      <point x="269" y="-127"/>
      <point x="225" y="-127" type="curve" smooth="yes"/>
      <point x="160" y="-127"/>
      <point x="128" y="-84"/>
      <point x="128" y="-31" type="curve" smooth="yes"/>
      <point x="128" y="68"/>
      <point x="267" y="124"/>
      <point x="267" y="259" type="curve" smooth="yes"/>
      <point x="267" y="268"/>
      <point x="266" y="278"/>
      <point x="265" y="288" type="curve"/>
      <point x="192" y="288" type="line"/>
      <point x="193" y="281"/>
      <point x="193" y="274"/>
      <point x="193" y="268" type="curve" smooth="yes"/>
      <point x="193" y="142"/>
      <point x="48" y="88"/>
      <point x="48" y="-36" type="curve" smooth="yes"/>
      <point x="48" y="-135"/>
      <point x="114" y="-196"/>
    </contour>
    <contour>
      <point x="227" y="372" type="curve" smooth="yes"/>
      <point x="259" y="372"/>
      <point x="286" y="398"/>
      <point x="286" y="436" type="curve" smooth="yes"/>
      <point x="286" y="472"/>
      <point x="259" y="498"/>
      <point x="227" y="498" type="curve" smooth="yes"/>
      <point x="194" y="498"/>
      <point x="167" y="472"/>
      <point x="167" y="436" type="curve" smooth="yes"/>
      <point x="167" y="398"/>
      <point x="194" y="372"/>
    </contour>
  </outline>
</glyph>
<glyph name="AE" format="2">
  <advance width="796"/>
  <unicode hex="00C6"/>
  <anchor x="517" y="659" name="aboveUC"/>
  <outline>
    <contour>
      <point x="-6" y="0" type="line"/>
      <point x="121" y="0" type="line"/>
      <point x="284" y="343" type="line"/>
      <point x="311" y="401"/>
      <point x="339" y="464"/>
      <point x="367" y="527" type="curve"/>
      <point x="371" y="527" type="line"/>
      <point x="371" y="0" type="line"/>
      <point x="747" y="0" type="line"/>
      <point x="747" y="102" type="line"/>
      <point x="493" y="102" type="line"/>
      <point x="493" y="270" type="line"/>
      <point x="699" y="270" type="line"/>
      <point x="699" y="372" type="line"/>
      <point x="493" y="372" type="line"/>
      <point x="493" y="517" type="line"/>
      <point x="738" y="517" type="line"/>
      <point x="738" y="620" type="line"/>
      <point x="296" y="620" type="line"/>
    </contour>
    <contour>
      <point x="136" y="153" type="line"/>
      <point x="436" y="153" type="line"/>
      <point x="436" y="248" type="line"/>
      <point x="136" y="248" type="line"/>
    </contour>
  </outline>
</glyph>
<glyph name="Eth" format="2">
  <advance width="649"/>
  <unicode hex="00D0"/>
  <outline>
    <component base="D" xOffset="24"/>
    <contour>
      <point x="30" y="311" type="line"/>
      <point x="360" y="311" type="line"/>
      <point x="360" y="370" type="line"/>
      <point x="109" y="370" type="line"/>
      <point x="30" y="366" type="line"/>
    </contour>
  </outline>
</glyph>
<glyph name="multiply" format="2">
  <advance width="639"/>
  <unicode hex="00D7"/>
  <outline>
    <contour>
      <point x="146" y="75" type="line"/>
      <point x="540" y="464" type="line"/>
      <point x="489" y="515" type="line"/>
      <point x="98" y="125" type="line"/>
    </contour>
    <contour>
      <point x="539" y="122" type="line"/>
      <point x="150" y="516" type="line"/>
      <point x="99" y="465" type="line"/>
      <point x="489" y="74" type="line"/>
    </contour>
  </outline>
</glyph>
<glyph name="Oslash" format="2">
  <advance width="644"/>
  <unicode hex="00D8"/>
  <anchor x="328" y="641" name="aboveUC"/>
  <outline>
    <component base="O" xOffset="1"/>
    <contour>
      <point x="104" y="-36" type="line"/>
      <point x="615" y="607" type="line"/>
      <point x="551" y="656" type="line"/>
      <point x="40" y="13" type="line"/>
    </contour>
  </outline>
</glyph>
<glyph name="Thorn" format="2">
  <advance width="596"/>
  <unicode hex="00DE"/>
  <outline>
    <contour>
      <point x="74" y="0" type="line"/>
      <point x="216" y="0" type="line"/>
      <point x="216" y="118" type="line"/>
      <point x="304" y="118" type="line" smooth="yes"/>
      <point x="437" y="118"/>
      <point x="550" y="183"/>
      <point x="550" y="332" type="curve" smooth="yes"/>
      <point x="550" y="485"/>
      <point x="441" y="534"/>
      <point x="304" y="534" type="curve" smooth="yes"/>
      <point x="216" y="534" type="line"/>
      <point x="216" y="630" type="line"/>
      <point x="74" y="630" type="line"/>
    </contour>
    <contour>
      <point x="216" y="231" type="line"/>
      <point x="216" y="421" type="line"/>
      <point x="295" y="421" type="line" smooth="yes"/>
      <point x="371" y="421"/>
      <point x="411" y="398"/>
      <point x="411" y="332" type="curve" smooth="yes"/>
      <point x="411" y="266"/>
      <point x="374" y="231"/>
      <point x="295" y="231" type="curve" smooth="yes"/>
    </contour>
  </outline>
</glyph>
<glyph name="germandbls" format="2">
  <advance width="584"/>
  <unicode hex="00DF"/>
  <outline>
    <contour>
      <point x="390" y="-11" type="curve" smooth="yes"/>
      <point x="499" y="-11"/>
      <point x="558" y="55"/>
      <point x="558" y="140" type="curve" smooth="yes"/>
      <point x="558" y="288"/>
      <point x="385" y="279"/>
      <point x="385" y="351" type="curve" smooth="yes"/>
      <point x="385" y="404"/>
      <point x="462" y="433"/>
      <point x="462" y="526" type="curve" smooth="yes"/>
      <point x="462" y="605"/>
      <point x="401" y="678"/>
      <point x="280" y="678" type="curve" smooth="yes"/>
      <point x="137" y="678"/>
      <point x="66" y="591"/>
      <point x="66" y="470" type="curve" smooth="yes"/>
      <point x="66" y="0" type="line"/>
      <point x="186" y="0" type="line"/>
      <point x="186" y="454" type="line" smooth="yes"/>
      <point x="186" y="535"/>
      <point x="219" y="582"/>
      <point x="279" y="582" type="curve" smooth="yes"/>
      <point x="322" y="582"/>
      <point x="346" y="552"/>
      <point x="346" y="512" type="curve" smooth="yes"/>
      <point x="346" y="439"/>
      <point x="274" y="412"/>
      <point x="274" y="336" type="curve" smooth="yes"/>
      <point x="274" y="209"/>
      <point x="447" y="217"/>
      <point x="447" y="134" type="curve" smooth="yes"/>
      <point x="447" y="103"/>
      <point x="424" y="79"/>
      <point x="386" y="79" type="curve" smooth="yes"/>
      <point x="355" y="79"/>
      <point x="325" y="90"/>
      <point x="293" y="115" type="curve"/>
      <point x="250" y="32" type="line"/>
      <point x="293" y="4"/>
      <point x="335" y="-11"/>
    </contour>
  </outline>
</glyph>
<glyph name="ae" format="2">
  <advance width="759"/>
  <unicode hex="00E6"/>
  <anchor x="397" y="501" name="aboveLC"/>
  <outline>
    <contour>
      <point x="187" y="-11" type="curve" smooth="yes"/>
      <point x="251" y="-11"/>
      <point x="304" y="8"/>
      <point x="372" y="63" type="curve"/>
      <point x="412" y="18"/>
      <point x="466" y="-11"/>
      <point x="537" y="-11" type="curve"/>
      <point x="593" y="-11"/>
      <point x="657" y="8"/>
      <point x="706" y="42" type="curve"/>
      <point x="658" y="134" type="line"/>
      <point x="623" y="114"/>
      <point x="592" y="99"/>
      <point x="556" y="99" type="curve" smooth="yes"/>
      <point x="498" y="99"/>
      <point x="452" y="131"/>
      <point x="441" y="198" type="curve"/>
      <point x="718" y="198" type="line"/>
      <point x="721" y="209"/>
      <point x="724" y="232"/>
      <point x="724" y="257" type="curve" smooth="yes"/>
      <point x="724" y="388"/>
      <point x="660" y="491"/>
      <point x="533" y="491" type="curve"/>
      <point x="476" y="491"/>
      <point x="432" y="465"/>
      <point x="391" y="418" type="curve"/>
      <point x="363" y="463"/>
      <point x="317" y="491"/>
      <point x="257" y="491" type="curve" smooth="yes"/>
      <point x="188" y="491"/>
      <point x="122" y="465"/>
      <point x="61" y="428" type="curve"/>
      <point x="112" y="334" type="line"/>
      <point x="158" y="361"/>
      <point x="199" y="378"/>
      <point x="238" y="378" type="curve" smooth="yes"/>
      <point x="291" y="378"/>
      <point x="309" y="350"/>
      <point x="312" y="309" type="curve"/>
      <point x="124" y="289"/>
      <point x="45" y="234"/>
      <point x="45" y="132" type="curve" smooth="yes"/>
      <point x="45" y="52"/>
      <point x="100" y="-11"/>
    </contour>
    <contour>
      <point x="236" y="98" type="curve" smooth="yes"/>
      <point x="202" y="98"/>
      <point x="181" y="113"/>
      <point x="181" y="144" type="curve" smooth="yes"/>
      <point x="181" y="181"/>
      <point x="217" y="209"/>
      <point x="310" y="223" type="curve"/>
      <point x="312" y="203" type="line" smooth="yes"/>
      <point x="314" y="181"/>
      <point x="318" y="158"/>
      <point x="325" y="139" type="curve"/>
      <point x="300" y="113"/>
      <point x="268" y="98"/>
    </contour>
    <contour>
      <point x="441" y="285" type="line"/>
      <point x="449" y="351"/>
      <point x="484" y="382"/>
      <point x="528" y="382" type="curve" smooth="yes"/>
      <point x="580" y="382"/>
      <point x="602" y="342"/>
      <point x="602" y="285" type="curve"/>
    </contour>
  </outline>
</glyph>
<glyph name="eth" format="2">
  <advance width="527"/>
  <unicode hex="00F0"/>
  <outline>
    <contour>
      <point x="257" y="-11" type="curve" smooth="yes"/>
      <point x="393" y="-11"/>
      <point x="477" y="97"/>
      <point x="477" y="250" type="curve" smooth="yes"/>
      <point x="477" y="494"/>
      <point x="324" y="619"/>
      <point x="166" y="700" type="curve"/>
      <point x="113" y="625" type="line"/>
      <point x="274" y="541"/>
      <point x="363" y="447"/>
      <point x="363" y="244" type="curve" smooth="yes"/>
      <point x="363" y="142"/>
      <point x="324" y="87"/>
      <point x="261" y="87" type="curve" smooth="yes"/>
      <point x="204" y="87"/>
      <point x="154" y="134"/>
      <point x="154" y="214" type="curve" smooth="yes"/>
      <point x="154" y="294"/>
      <point x="196" y="338"/>
      <point x="260" y="338" type="curve" smooth="yes"/>
      <point x="298" y="338"/>
      <point x="334" y="326"/>
      <point x="367" y="282" type="curve"/>
      <point x="366" y="349" type="line"/>
      <point x="340" y="407"/>
      <point x="288" y="429"/>
      <point x="236" y="429" type="curve" smooth="yes"/>
      <point x="134" y="429"/>
      <point x="43" y="348"/>
      <point x="43" y="214" type="curve" smooth="yes"/>
      <point x="43" y="75"/>
      <point x="143" y="-11"/>
    </contour>
    <contour>
      <point x="123" y="457" type="line"/>
      <point x="465" y="630" type="line"/>
      <point x="433" y="686" type="line"/>
      <point x="91" y="512" type="line"/>
    </contour>
  </outline>
</glyph>
<glyph name="oslash" format="2">
  <advance width="523"/>
  <unicode hex="00F8"/>
  <anchor x="261" y="490" name="aboveLC"/>
  <outline>
    <contour>
      <point x="261" y="-11" type="curve" smooth="yes"/>
      <point x="379" y="-11"/>
      <point x="486" y="78"/>
      <point x="486" y="233" type="curve" smooth="yes"/>
      <point x="486" y="389"/>
      <point x="379" y="479"/>
      <point x="261" y="479" type="curve" smooth="yes"/>
      <point x="144" y="479"/>
      <point x="36" y="389"/>
      <point x="36" y="233" type="curve" smooth="yes"/>
      <point x="36" y="78"/>
      <point x="144" y="-11"/>
    </contour>
    <contour>
      <point x="261" y="83" type="curve" smooth="yes"/>
      <point x="196" y="83"/>
      <point x="155" y="137"/>
      <point x="155" y="240" type="curve" smooth="yes"/>
      <point x="155" y="326"/>
      <point x="197" y="385"/>
      <point x="261" y="385" type="curve" smooth="yes"/>
      <point x="327" y="385"/>
      <point x="368" y="330"/>
      <point x="368" y="227" type="curve" smooth="yes"/>
      <point x="368" y="141"/>
      <point x="326" y="83"/>
    </contour>
    <contour>
      <point x="90" y="-23" type="line"/>
      <point x="480" y="456" type="line"/>
      <point x="432" y="492" type="line"/>
      <point x="43" y="13" type="line"/>
    </contour>
  </outline>
</glyph>
<glyph name="thorn" format="2">
  <advance width="553"/>
  <unicode hex="00FE"/>
  <anchor x="135" y="705" name="aboveLC"/>
  <outline>
    <contour>
      <point x="62" y="-177" type="line"/>
      <point x="204" y="-177" type="line"/>
      <point x="204" y="-37" type="line"/>
      <point x="201" y="33" type="line"/>
      <point x="234" y="4"/>
      <point x="268" y="-11"/>
      <point x="314" y="-11" type="curve" smooth="yes"/>
      <point x="418" y="-11"/>
      <point x="516" y="82"/>
      <point x="516" y="247" type="curve" smooth="yes"/>
      <point x="516" y="395"/>
      <point x="441" y="491"/>
      <point x="320" y="491" type="curve" smooth="yes"/>
      <point x="277" y="491"/>
      <point x="234" y="472"/>
      <point x="201" y="443" type="curve"/>
      <point x="204" y="511" type="line"/>
      <point x="204" y="677" type="line"/>
      <point x="62" y="677" type="line"/>
    </contour>
    <contour>
      <point x="281" y="104" type="curve" smooth="yes"/>
      <point x="257" y="104"/>
      <point x="230" y="112"/>
      <point x="204" y="135" type="curve"/>
      <point x="204" y="331" type="line"/>
      <point x="232" y="361"/>
      <point x="257" y="374"/>
      <point x="287" y="374" type="curve" smooth="yes"/>
      <point x="343" y="374"/>
      <point x="370" y="331"/>
      <point x="370" y="245" type="curve" smooth="yes"/>
      <point x="370" y="146"/>
      <point x="330" y="104"/>
    </contour>
  </outline>
</glyph>
<glyph name="dotlessi" format="2">
  <advance width="262"/>
  <unicode hex="0131"/>
  <anchor x="131" y="514" name="aboveLC"/>
  <outline>
    <contour>
      <point x="73" y="0" type="line"/>
      <point x="188" y="0" type="line"/>
      <point x="188" y="491" type="line"/>
      <point x="73" y="491" type="line"/>
    </contour>
  </outline>
</glyph>
<glyph name="idotless" format="2">
  <advance width="267"/>
  <unicode hex="0131"/>
  <anchor x="133" y="501" name="aboveLC"/>
  <outline>
    <contour>
      <point x="62" y="0" type="line"/>
      <point x="204" y="0" type="line"/>
      <point x="204" y="479" type="line"/>
      <point x="62" y="479" type="line"/>
    </contour>
  </outline>
</glyph>
<glyph name="OE" format="2">
  <advance width="841"/>
  <unicode hex="0152"/>
  <anchor x="511" y="651" name="aboveUC"/>
  <outline>
    <contour>
      <point x="360" y="0" type="curve" smooth="yes"/>
      <point x="791" y="0" type="line"/>
      <point x="791" y="119" type="line"/>
      <point x="541" y="119" type="line"/>
      <point x="541" y="264" type="line"/>
      <point x="743" y="264" type="line"/>
      <point x="743" y="384" type="line"/>
      <point x="541" y="384" type="line"/>
      <point x="541" y="510" type="line"/>
      <point x="781" y="510" type="line"/>
      <point x="781" y="630" type="line"/>
      <point x="368" y="630" type="line" smooth="yes"/>
      <point x="181" y="630"/>
      <point x="44" y="534"/>
      <point x="44" y="317" type="curve" smooth="yes"/>
      <point x="44" y="101"/>
      <point x="181" y="0"/>
    </contour>
    <contour>
      <point x="376" y="114" type="line" smooth="yes"/>
      <point x="266" y="114"/>
      <point x="190" y="165"/>
      <point x="190" y="317" type="curve" smooth="yes"/>
      <point x="190" y="470"/>
      <point x="266" y="515"/>
      <point x="376" y="515" type="curve" smooth="yes"/>
      <point x="399" y="515" type="line"/>
      <point x="399" y="114" type="line"/>
    </contour>
  </outline>
</glyph>
<glyph name="oe" format="2">
  <advance width="794"/>
  <unicode hex="0153"/>
  <anchor x="411" y="501" name="aboveLC"/>
  <outline>
    <contour>
      <point x="258" y="-11" type="curve" smooth="yes"/>
      <point x="328" y="-11"/>
      <point x="378" y="17"/>
      <point x="417" y="72" type="curve"/>
      <point x="457" y="18"/>
      <point x="513" y="-11"/>
      <point x="571" y="-11" type="curve"/>
      <point x="628" y="-11"/>
      <point x="692" y="8"/>
      <point x="742" y="42" type="curve"/>
      <point x="693" y="134" type="line"/>
      <point x="658" y="114"/>
      <point x="627" y="99"/>
      <point x="591" y="99" type="curve" smooth="yes"/>
      <point x="533" y="99"/>
      <point x="487" y="131"/>
      <point x="476" y="198" type="curve"/>
      <point x="753" y="198" type="line"/>
      <point x="756" y="209"/>
      <point x="759" y="232"/>
      <point x="759" y="257" type="curve" smooth="yes"/>
      <point x="759" y="388"/>
      <point x="695" y="491"/>
      <point x="568" y="491" type="curve"/>
      <point x="510" y="491"/>
      <point x="455" y="460"/>
      <point x="416" y="406" type="curve"/>
      <point x="380" y="458"/>
      <point x="328" y="491"/>
      <point x="261" y="491" type="curve" smooth="yes"/>
      <point x="138" y="491"/>
      <point x="34" y="399"/>
      <point x="34" y="239" type="curve" smooth="yes"/>
      <point x="34" y="80"/>
      <point x="135" y="-11"/>
    </contour>
    <contour>
      <point x="261" y="103" type="curve" smooth="yes"/>
      <point x="209" y="103"/>
      <point x="178" y="156"/>
      <point x="178" y="239" type="curve" smooth="yes"/>
      <point x="178" y="322"/>
      <point x="209" y="376"/>
      <point x="261" y="376" type="curve" smooth="yes"/>
      <point x="313" y="376"/>
      <point x="345" y="322"/>
      <point x="345" y="239" type="curve" smooth="yes"/>
      <point x="345" y="156"/>
      <point x="313" y="103"/>
    </contour>
    <contour>
      <point x="476" y="285" type="line"/>
      <point x="484" y="351"/>
      <point x="518" y="382"/>
      <point x="563" y="382" type="curve" smooth="yes"/>
      <point x="615" y="382"/>
      <point x="638" y="342"/>
      <point x="638" y="285" type="curve"/>
    </contour>
  </outline>
</glyph>
<glyph name="florin" format="2">
  <advance width="492"/>
  <unicode hex="0192"/>
  <outline>
    <contour>
      <point x="103" y="-91" type="curve" smooth="yes"/>
      <point x="225" y="-91"/>
      <point x="262" y="-4"/>
      <point x="275" y="109" type="curve" smooth="yes"/>
      <point x="315" y="445" type="line" smooth="yes"/>
      <point x="321" y="496"/>
      <point x="342" y="534"/>
      <point x="389" y="534" type="curve" smooth="yes"/>
      <point x="410" y="534"/>
      <point x="424" y="527"/>
      <point x="436" y="523" type="curve"/>
      <point x="460" y="614" type="line"/>
      <point x="441" y="623"/>
      <point x="405" y="631"/>
      <point x="380" y="631" type="curve" smooth="yes"/>
      <point x="262" y="631"/>
      <point x="212" y="571"/>
      <point x="197" y="436" type="curve" smooth="yes"/>
      <point x="164" y="142" type="line" smooth="yes"/>
      <point x="153" y="38"/>
      <point x="135" y="5"/>
      <point x="86" y="4" type="curve" smooth="yes"/>
      <point x="70" y="4"/>
      <point x="56" y="7"/>
      <point x="42" y="13" type="curve"/>
      <point x="25" y="-77" type="line"/>
      <point x="39" y="-85"/>
      <point x="68" y="-91"/>
    </contour>
    <contour>
      <point x="108" y="302" type="line"/>
      <point x="413" y="302" type="line"/>
      <point x="413" y="391" type="line"/>
      <point x="177" y="391" type="line"/>
      <point x="108" y="386" type="line"/>
    </contour>
  </outline>
</glyph>
<glyph name="acutecmb" format="2">
  <unicode hex="0301"/>
  <anchor x="0" y="501" name="_aboveLC"/>
  <outline>
    <contour>
      <point x="10" y="553" type="line"/>
      <point x="184" y="704" type="line"/>
      <point x="88" y="798" type="line"/>
      <point x="-59" y="622" type="line"/>
    </contour>
  </outline>
</glyph>
<glyph name="circumflexcmb" format="2">
  <unicode hex="0302"/>
  <anchor x="0" y="490" name="_aboveLC"/>
  <anchor x="0" y="699" name="aboveLC"/>
  <outline>
    <contour>
      <point x="-166" y="578" type="line"/>
      <point x="-118" y="534" type="line"/>
      <point x="-1" y="628" type="line"/>
      <point x="1" y="628" type="line"/>
      <point x="118" y="534" type="line"/>
      <point x="166" y="578" type="line"/>
      <point x="61" y="705" type="line"/>
      <point x="-61" y="705" type="line"/>
    </contour>
  </outline>
</glyph>
<glyph name="tildecmb" format="2">
  <unicode hex="0303"/>
  <anchor x="0" y="490" name="_aboveLC"/>
  <outline>
    <contour>
      <point x="64" y="545" type="curve" smooth="yes"/>
      <point x="135" y="545"/>
      <point x="173" y="594"/>
      <point x="175" y="685" type="curve"/>
      <point x="98" y="689" type="line"/>
      <point x="95" y="650"/>
      <point x="83" y="630"/>
      <point x="62" y="630" type="curve" smooth="yes"/>
      <point x="28" y="630"/>
      <point x="-2" y="696"/>
      <point x="-64" y="696" type="curve" smooth="yes"/>
      <point x="-135" y="696"/>
      <point x="-173" y="648"/>
      <point x="-175" y="557" type="curve"/>
      <point x="-98" y="552" type="line"/>
      <point x="-95" y="592"/>
      <point x="-83" y="611"/>
      <point x="-62" y="611" type="curve" smooth="yes"/>
      <point x="-28" y="611"/>
      <point x="2" y="545"/>
    </contour>
  </outline>
</glyph>
<glyph name="dieresiscmb" format="2">
  <unicode hex="0308"/>
  <anchor x="0" y="490" name="_aboveLC"/>
  <anchor x="0" y="676" name="aboveLC"/>
  <outline>
    <contour>
      <point x="-100" y="545" type="curve" smooth="yes"/>
      <point x="-63" y="545"/>
      <point x="-38" y="572"/>
      <point x="-38" y="607" type="curve" smooth="yes"/>
      <point x="-38" y="642"/>
      <point x="-63" y="669"/>
      <point x="-100" y="669" type="curve" smooth="yes"/>
      <point x="-136" y="669"/>
      <point x="-161" y="642"/>
      <point x="-161" y="607" type="curve" smooth="yes"/>
      <point x="-161" y="572"/>
      <point x="-136" y="545"/>
    </contour>
    <contour>
      <point x="100" y="545" type="curve" smooth="yes"/>
      <point x="136" y="545"/>
      <point x="161" y="572"/>
      <point x="161" y="607" type="curve" smooth="yes"/>
      <point x="161" y="642"/>
      <point x="136" y="669"/>
      <point x="100" y="669" type="curve" smooth="yes"/>
      <point x="63" y="669"/>
      <point x="38" y="642"/>
      <point x="38" y="607" type="curve" smooth="yes"/>
      <point x="38" y="572"/>
      <point x="63" y="545"/>
    </contour>
  </outline>
</glyph>
<glyph name="ringcmb" format="2">
  <unicode hex="030A"/>
  <anchor x="0" y="501" name="_aboveLC"/>
  <outline>
    <contour>
      <point x="0" y="545" type="curve" smooth="yes"/>
      <point x="83" y="545"/>
      <point x="127" y="590"/>
      <point x="127" y="645" type="curve" smooth="yes"/>
      <point x="127" y="701"/>
      <point x="83" y="746"/>
      <point x="0" y="746" type="curve" smooth="yes"/>
      <point x="-83" y="746"/>
      <point x="-127" y="701"/>
      <point x="-127" y="645" type="curve" smooth="yes"/>
      <point x="-127" y="590"/>
      <point x="-83" y="545"/>
    </contour>
    <contour>
      <point x="0" y="598" type="curve" smooth="yes"/>
      <point x="-23" y="598"/>
      <point x="-41" y="617"/>
      <point x="-41" y="645" type="curve" smooth="yes"/>
      <point x="-41" y="673"/>
      <point x="-23" y="693"/>
      <point x="0" y="693" type="curve" smooth="yes"/>
      <point x="23" y="693"/>
      <point x="41" y="673"/>
      <point x="41" y="645" type="curve" smooth="yes"/>
      <point x="41" y="617"/>
      <point x="23" y="598"/>
    </contour>
  </outline>
</glyph>
<glyph name="caroncmb" format="2">
  <unicode hex="030C"/>
  <anchor x="0" y="501" name="_aboveLC"/>
  <outline>
    <contour>
      <point x="-72" y="557" type="line"/>
      <point x="72" y="557" type="line"/>
      <point x="176" y="684" type="line"/>
      <point x="122" y="735" type="line"/>
      <point x="1" y="646" type="line"/>
      <point x="-1" y="646" type="line"/>
      <point x="-122" y="735" type="line"/>
      <point x="-176" y="684" type="line"/>
    </contour>
  </outline>
</glyph>
<glyph name="cedillacmb" format="2">
  <unicode hex="0327"/>
  <anchor x="0" y="0" name="_baseLC"/>
  <outline>
    <contour>
      <point x="-92" y="-223" type="line"/>
      <point x="20" y="-219"/>
      <point x="85" y="-190"/>
      <point x="85" y="-128" type="curve" smooth="yes"/>
      <point x="85" y="-89"/>
      <point x="60" y="-69"/>
      <point x="13" y="-58" type="curve"/>
      <point x="41" y="3" type="line"/>
      <point x="-31" y="3" type="line"/>
      <point x="-75" y="-87" type="line"/>
      <point x="-19" y="-95"/>
      <point x="-3" y="-108"/>
      <point x="-3" y="-129" type="curve" smooth="yes"/>
      <point x="-3" y="-156"/>
      <point x="-26" y="-168"/>
      <point x="-102" y="-172" type="curve"/>
    </contour>
  </outline>
</glyph>
<glyph name="pi" format="2">
  <advance width="589"/>
  <unicode hex="03C0"/>
  <outline>
    <contour>
      <point x="485" y="-11" type="curve" smooth="yes"/>
      <point x="518" y="-11"/>
      <point x="546" y="-4"/>
      <point x="563" y="1" type="curve"/>
      <point x="549" y="91" type="line"/>
      <point x="534" y="89"/>
      <point x="522" y="87"/>
      <point x="513" y="87" type="curve" smooth="yes"/>
      <point x="485" y="87"/>
      <point x="471" y="98"/>
      <point x="471" y="130" type="curve" smooth="yes"/>
      <point x="471" y="159"/>
      <point x="471" y="282"/>
      <point x="477" y="371" type="curve"/>
      <point x="567" y="371" type="line"/>
      <point x="567" y="468" type="line"/>
      <point x="87" y="468" type="line"/>
      <point x="18" y="463" type="line"/>
      <point x="18" y="371" type="line"/>
      <point x="121" y="371" type="line"/>
      <point x="121" y="261"/>
      <point x="110" y="127"/>
      <point x="88" y="0" type="curve"/>
      <point x="210" y="-7" type="line"/>
      <point x="222" y="117"/>
      <point x="235" y="254"/>
      <point x="235" y="371" type="curve"/>
      <point x="361" y="371" type="line"/>
      <point x="360" y="286"/>
      <point x="356" y="170"/>
      <point x="356" y="136" type="curve" smooth="yes"/>
      <point x="356" y="45"/>
      <point x="389" y="-11"/>
    </contour>
  </outline>
</glyph>
<glyph name="danda" format="2">
  <advance width="457"/>
  <unicode hex="0964"/>
  <outline>
    <contour>
      <point x="203" y="-52" type="line"/>
      <point x="319" y="-52" type="line"/>
      <point x="319" y="678" type="line"/>
      <point x="203" y="678" type="line"/>
    </contour>
  </outline>
</glyph>
<glyph name="abbreviationsign" format="2">
  <advance width="313"/>
  <unicode hex="0970"/>
  <outline>
    <contour>
      <point x="267" y="149" type="curve" smooth="yes"/>
      <point x="267" y="203"/>
      <point x="225" y="246"/>
      <point x="171" y="246" type="curve" smooth="yes"/>
      <point x="122" y="246"/>
      <point x="75" y="209"/>
      <point x="75" y="149" type="curve" smooth="yes"/>
      <point x="75" y="93"/>
      <point x="117" y="53"/>
      <point x="171" y="53" type="curve" smooth="yes"/>
      <point x="226" y="53"/>
      <point x="267" y="97"/>
    </contour>
    <contour>
      <point x="203" y="149" type="curve" smooth="yes"/>
      <point x="203" y="131"/>
      <point x="189" y="117"/>
      <point x="171" y="117" type="curve" smooth="yes"/>
      <point x="152" y="117"/>
      <point x="138" y="133"/>
      <point x="138" y="149" type="curve" smooth="yes"/>
      <point x="138" y="167"/>
      <point x="153" y="182"/>
      <point x="171" y="182" type="curve" smooth="yes"/>
      <point x="189" y="182"/>
      <point x="203" y="168"/>
    </contour>
  </outline>
</glyph>
<glyph name="figuredash" format="2">
  <advance width="497"/>
  <unicode hex="2012"/>
  <outline>
    <contour>
      <point x="35" y="250" type="line"/>
      <point x="462" y="250" type="line"/>
      <point x="462" y="324" type="line"/>
      <point x="35" y="324" type="line"/>
    </contour>
  </outline>
</glyph>
<glyph name="endash" format="2">
  <advance width="672"/>
  <unicode hex="2013"/>
  <outline>
    <contour>
      <point x="80" y="240" type="line"/>
      <point x="592" y="240" type="line"/>
      <point x="592" y="334" type="line"/>
      <point x="80" y="334" type="line"/>
    </contour>
  </outline>
</glyph>
<glyph name="emdash" format="2">
  <advance width="989"/>
  <unicode hex="2014"/>
  <outline>
    <contour>
      <point x="80" y="240" type="line"/>
      <point x="909" y="240" type="line"/>
      <point x="909" y="334" type="line"/>
      <point x="80" y="334" type="line"/>
    </contour>
  </outline>
</glyph>
<glyph name="horizontalbar" format="2">
  <advance width="820"/>
  <unicode hex="2015"/>
  <outline>
    <contour>
      <point x="80" y="240" type="line"/>
      <point x="740" y="240" type="line"/>
      <point x="740" y="334" type="line"/>
      <point x="80" y="334" type="line"/>
    </contour>
  </outline>
</glyph>
<glyph name="quoteleft" format="2">
  <advance width="320"/>
  <unicode hex="2018"/>
  <outline>
    <contour>
      <point x="85" y="612"/>
      <point x="136" y="561"/>
      <point x="187" y="546" type="curve"/>
      <point x="194" y="560"/>
      <point x="220" y="613"/>
      <point x="226" y="633" type="curve"/>
      <point x="199" y="649"/>
      <point x="168" y="669"/>
      <point x="168" y="687" type="curve" smooth="yes"/>
      <point x="168" y="705"/>
      <point x="182" y="748"/>
      <point x="206" y="800" type="curve"/>
      <point x="164" y="828" type="line"/>
      <point x="111" y="715"/>
      <point x="85" y="659"/>
      <point x="85" y="642" type="curve" smooth="yes"/>
    </contour>
  </outline>
</glyph>
<glyph name="dagger" format="2">
  <advance width="493"/>
  <unicode hex="2020"/>
  <outline>
    <contour>
      <point x="189" y="-77" type="line"/>
      <point x="303" y="-77" type="line"/>
      <point x="295" y="423" type="line"/>
      <point x="450" y="415" type="line"/>
      <point x="450" y="529" type="line"/>
      <point x="295" y="520" type="line"/>
      <point x="303" y="688" type="line"/>
      <point x="189" y="688" type="line"/>
      <point x="198" y="520" type="line"/>
      <point x="42" y="529" type="line"/>
      <point x="42" y="415" type="line"/>
      <point x="198" y="423" type="line"/>
    </contour>
  </outline>
</glyph>
<glyph name="daggerdbl" format="2">
  <advance width="468"/>
  <unicode hex="2021"/>
  <outline>
    <contour>
      <point x="185" y="-76" type="line"/>
      <point x="283" y="-76" type="line"/>
      <point x="276" y="84" type="line"/>
      <point x="424" y="77" type="line"/>
      <point x="424" y="176" type="line"/>
      <point x="276" y="166" type="line"/>
      <point x="283" y="300" type="line"/>
      <point x="276" y="433" type="line"/>
      <point x="424" y="424" type="line"/>
      <point x="424" y="522" type="line"/>
      <point x="276" y="515" type="line"/>
      <point x="283" y="676" type="line"/>
      <point x="185" y="676" type="line"/>
      <point x="192" y="515" type="line"/>
      <point x="44" y="522" type="line"/>
      <point x="44" y="424" type="line"/>
      <point x="192" y="433" type="line"/>
      <point x="185" y="300" type="line"/>
      <point x="192" y="166" type="line"/>
      <point x="44" y="176" type="line"/>
      <point x="44" y="77" type="line"/>
      <point x="192" y="84" type="line"/>
    </contour>
  </outline>
</glyph>
<glyph name="bullet" format="2">
  <advance width="333"/>
  <unicode hex="2022"/>
  <outline>
    <contour>
      <point x="166" y="119" type="curve" smooth="yes"/>
      <point x="238" y="119"/>
      <point x="294" y="177"/>
      <point x="294" y="253" type="curve" smooth="yes"/>
      <point x="294" y="330"/>
      <point x="238" y="387"/>
      <point x="166" y="387" type="curve" smooth="yes"/>
      <point x="94" y="387"/>
      <point x="38" y="330"/>
      <point x="38" y="253" type="curve" smooth="yes"/>
      <point x="38" y="177"/>
      <point x="94" y="119"/>
    </contour>
  </outline>
</glyph>
<glyph name="perthousand" format="2">
  <advance width="992"/>
  <unicode hex="2030"/>
  <outline>
    <component base="percent"/>
    <contour>
      <point x="705" y="289"/>
      <point x="654" y="219"/>
      <point x="654" y="149" type="curve" smooth="yes"/>
      <point x="654" y="80"/>
      <point x="697" y="11"/>
      <point x="788" y="11" type="curve" smooth="yes"/>
      <point x="869" y="11"/>
      <point x="916" y="90"/>
      <point x="916" y="164" type="curve" smooth="yes"/>
      <point x="916" y="246"/>
      <point x="851" y="289"/>
      <point x="776" y="289" type="curve" smooth="yes"/>
    </contour>
    <contour>
      <point x="717" y="179" type="curve" smooth="yes"/>
      <point x="717" y="209"/>
      <point x="734" y="230"/>
      <point x="764" y="230" type="curve" smooth="yes"/>
      <point x="820" y="230"/>
      <point x="856" y="158"/>
      <point x="856" y="117" type="curve" smooth="yes"/>
      <point x="856" y="99"/>
      <point x="845" y="68"/>
      <point x="809" y="68" type="curve" smooth="yes"/>
      <point x="751" y="64"/>
      <point x="717" y="129"/>
    </contour>
  </outline>
</glyph>
<glyph name="guilsinglleft" format="2">
  <advance width="282"/>
  <unicode hex="2039"/>
  <outline>
    <contour>
      <point x="177" y="54" type="line"/>
      <point x="229" y="96" type="line"/>
      <point x="122" y="243" type="line"/>
      <point x="229" y="390" type="line"/>
      <point x="177" y="433" type="line"/>
      <point x="46" y="293" type="line"/>
      <point x="46" y="193" type="line"/>
    </contour>
  </outline>
</glyph>
<glyph name="fraction" format="2">
  <advance width="91"/>
  <unicode hex="2044"/>
  <outline>
    <contour>
      <point x="-169" y="-12" type="line"/>
      <point x="-98" y="-12" type="line"/>
      <point x="258" y="666" type="line"/>
      <point x="188" y="666" type="line"/>
    </contour>
  </outline>
</glyph>
<glyph name="Euro" format="2">
  <advance width="492"/>
  <unicode hex="20AC"/>
  <outline>
    <contour>
      <point x="315" y="-11" type="curve" smooth="yes"/>
      <point x="383" y="-11"/>
      <point x="440" y="20"/>
      <point x="485" y="76" type="curve"/>
      <point x="417" y="139" type="line"/>
      <point x="390" y="103"/>
      <point x="361" y="83"/>
      <point x="322" y="83" type="curve" smooth="yes"/>
      <point x="241" y="83"/>
      <point x="195" y="165"/>
      <point x="195" y="303" type="curve" smooth="yes"/>
      <point x="195" y="438"/>
      <point x="240" y="520"/>
      <point x="322" y="520" type="curve" smooth="yes"/>
      <point x="357" y="520"/>
      <point x="384" y="501"/>
      <point x="408" y="475" type="curve"/>
      <point x="477" y="541" type="line"/>
      <point x="438" y="587"/>
      <point x="383" y="615"/>
      <point x="326" y="615" type="curve" smooth="yes"/>
      <point x="176" y="615"/>
      <point x="72" y="497"/>
      <point x="72" y="299" type="curve" smooth="yes"/>
      <point x="72" y="98"/>
      <point x="175" y="-11"/>
    </contour>
    <contour>
      <point x="20" y="209" type="line"/>
      <point x="379" y="209" type="line"/>
      <point x="379" y="273" type="line"/>
      <point x="88" y="273" type="line"/>
      <point x="20" y="268" type="line"/>
    </contour>
    <contour>
      <point x="20" y="325" type="line"/>
      <point x="417" y="325" type="line"/>
      <point x="417" y="388" type="line"/>
      <point x="89" y="388" type="line"/>
      <point x="20" y="383" type="line"/>
    </contour>
  </outline>
</glyph>
<glyph name="euro" format="2">
  <advance width="510"/>
  <unicode hex="20AC"/>
  <outline>
    <contour>
      <point x="325" y="-11" type="curve" smooth="yes"/>
      <point x="395" y="-11"/>
      <point x="454" y="20"/>
      <point x="501" y="77" type="curve"/>
      <point x="423" y="150" type="line"/>
      <point x="398" y="117"/>
      <point x="370" y="98"/>
      <point x="334" y="98" type="curve" smooth="yes"/>
      <point x="258" y="98"/>
      <point x="214" y="174"/>
      <point x="214" y="308" type="curve" smooth="yes"/>
      <point x="214" y="438"/>
      <point x="255" y="515"/>
      <point x="331" y="515" type="curve" smooth="yes"/>
      <point x="365" y="515"/>
      <point x="390" y="498"/>
      <point x="415" y="473" type="curve"/>
      <point x="493" y="550" type="line"/>
      <point x="452" y="598"/>
      <point x="394" y="625"/>
      <point x="336" y="625" type="curve" smooth="yes"/>
      <point x="181" y="625"/>
      <point x="71" y="506"/>
      <point x="71" y="303" type="curve" smooth="yes"/>
      <point x="71" y="97"/>
      <point x="180" y="-11"/>
    </contour>
    <contour>
      <point x="20" y="208" type="line"/>
      <point x="391" y="208" type="line"/>
      <point x="391" y="279" type="line"/>
      <point x="91" y="279" type="line"/>
      <point x="20" y="274" type="line"/>
    </contour>
    <contour>
      <point x="20" y="328" type="line"/>
      <point x="429" y="328" type="line"/>
      <point x="429" y="400" type="line"/>
      <point x="91" y="400" type="line"/>
      <point x="20" y="394" type="line"/>
    </contour>
  </outline>
</glyph>
<glyph name="inrupee" format="2">
  <advance width="683"/>
  <unicode hex="20B9"/>
  <outline>
    <contour>
      <point x="583" y="495" type="line"/>
      <point x="116" y="495" type="line"/>
      <point x="116" y="397" type="line"/>
      <point x="583" y="397" type="line"/>
    </contour>
    <contour>
      <point x="429" y="250"/>
      <point x="500" y="352"/>
      <point x="500" y="444" type="curve" smooth="yes"/>
      <point x="500" y="501"/>
      <point x="472" y="554"/>
      <point x="428" y="574" type="curve"/>
      <point x="380" y="554" type="line"/>
      <point x="573" y="554" type="line"/>
      <point x="573" y="655" type="line"/>
      <point x="120" y="655" type="line"/>
      <point x="120" y="554" type="line"/>
      <point x="280" y="554" type="line" smooth="yes"/>
      <point x="327" y="554"/>
      <point x="376" y="506"/>
      <point x="376" y="448" type="curve" smooth="yes"/>
      <point x="376" y="389"/>
      <point x="326" y="339"/>
      <point x="218" y="339" type="curve" smooth="yes"/>
      <point x="125" y="339" type="line"/>
      <point x="126" y="242" type="line"/>
      <point x="368" y="0" type="line"/>
      <point x="523" y="0" type="line"/>
      <point x="243" y="285" type="line"/>
      <point x="239" y="250" type="line"/>
    </contour>
  </outline>
</glyph>
<glyph name="trademark" format="2">
  <advance width="659"/>
  <unicode hex="2122"/>
  <outline>
    <contour>
      <point x="87" y="349" type="line"/>
      <point x="180" y="349" type="line"/>
      <point x="180" y="569" type="line"/>
      <point x="264" y="569" type="line"/>
      <point x="264" y="653" type="line"/>
      <point x="3" y="653" type="line"/>
      <point x="3" y="569" type="line"/>
      <point x="87" y="569" type="line"/>
    </contour>
    <contour>
      <point x="305" y="349" type="line"/>
      <point x="390" y="349" type="line"/>
      <point x="390" y="442" type="line"/>
      <point x="379" y="554" type="line"/>
      <point x="383" y="554" type="line"/>
      <point x="438" y="394" type="line"/>
      <point x="503" y="394" type="line"/>
      <point x="558" y="554" type="line"/>
      <point x="562" y="554" type="line"/>
      <point x="551" y="442" type="line"/>
      <point x="551" y="349" type="line"/>
      <point x="636" y="349" type="line"/>
      <point x="636" y="653" type="line"/>
      <point x="532" y="653" type="line"/>
      <point x="494" y="558" type="line"/>
      <point x="473" y="493" type="line"/>
      <point x="469" y="493" type="line"/>
      <point x="447" y="558" type="line"/>
      <point x="410" y="653" type="line"/>
      <point x="305" y="653" type="line"/>
    </contour>
  </outline>
</glyph>
<glyph name="Ohm" format="2">
  <advance width="687"/>
  <unicode hex="2126"/>
  <outline>
    <contour>
      <point x="42" y="0" type="line"/>
      <point x="300" y="0" type="line"/>
      <point x="300" y="102" type="line"/>
      <point x="236" y="163"/>
      <point x="203" y="233"/>
      <point x="203" y="331" type="curve" smooth="yes"/>
      <point x="203" y="441"/>
      <point x="256" y="518"/>
      <point x="343" y="518" type="curve" smooth="yes"/>
      <point x="431" y="518"/>
      <point x="483" y="441"/>
      <point x="483" y="331" type="curve" smooth="yes"/>
      <point x="483" y="233"/>
      <point x="451" y="163"/>
      <point x="386" y="102" type="curve"/>
      <point x="386" y="0" type="line"/>
      <point x="644" y="0" type="line"/>
      <point x="644" y="114" type="line"/>
      <point x="538" y="114" type="line"/>
      <point x="538" y="118" type="line"/>
      <point x="580" y="161"/>
      <point x="629" y="241"/>
      <point x="629" y="345" type="curve" smooth="yes"/>
      <point x="629" y="520"/>
      <point x="515" y="641"/>
      <point x="343" y="641" type="curve" smooth="yes"/>
      <point x="172" y="641"/>
      <point x="57" y="520"/>
      <point x="57" y="345" type="curve" smooth="yes"/>
      <point x="57" y="241"/>
      <point x="107" y="161"/>
      <point x="149" y="118" type="curve"/>
      <point x="149" y="114" type="line"/>
      <point x="42" y="114" type="line"/>
    </contour>
  </outline>
</glyph>
<glyph name="partialdiff" format="2">
  <advance width="534"/>
  <unicode hex="2202"/>
  <outline>
    <contour>
      <point x="225" y="-11" type="curve" smooth="yes"/>
      <point x="382" y="-11"/>
      <point x="490" y="134"/>
      <point x="490" y="355" type="curve" smooth="yes"/>
      <point x="490" y="532"/>
      <point x="415" y="631"/>
      <point x="275" y="631" type="curve" smooth="yes"/>
      <point x="211" y="631"/>
      <point x="157" y="606"/>
      <point x="109" y="563" type="curve"/>
      <point x="162" y="488" type="line"/>
      <point x="192" y="517"/>
      <point x="224" y="533"/>
      <point x="262" y="533" type="curve" smooth="yes"/>
      <point x="339" y="533"/>
      <point x="375" y="474"/>
      <point x="375" y="352" type="curve" smooth="yes"/>
      <point x="375" y="163"/>
      <point x="313" y="87"/>
      <point x="238" y="87" type="curve" smooth="yes"/>
      <point x="194" y="87"/>
      <point x="155" y="120"/>
      <point x="155" y="181" type="curve" smooth="yes"/>
      <point x="155" y="256"/>
      <point x="196" y="297"/>
      <point x="261" y="297" type="curve" smooth="yes"/>
      <point x="299" y="297"/>
      <point x="337" y="279"/>
      <point x="368" y="231" type="curve"/>
      <point x="383" y="319" type="line"/>
      <point x="349" y="364"/>
      <point x="298" y="390"/>
      <point x="247" y="390" type="curve" smooth="yes"/>
      <point x="126" y="390"/>
      <point x="43" y="303"/>
      <point x="43" y="174" type="curve" smooth="yes"/>
      <point x="43" y="59"/>
      <point x="127" y="-11"/>
    </contour>
  </outline>
</glyph>
<glyph name="increment" format="2">
  <advance width="618"/>
  <unicode hex="2206"/>
  <outline>
    <contour>
      <point x="33" y="0" type="line"/>
      <point x="585" y="0" type="line"/>
      <point x="585" y="85" type="line"/>
      <point x="394" y="630" type="line"/>
      <point x="223" y="630" type="line"/>
      <point x="33" y="85" type="line"/>
    </contour>
    <contour>
      <point x="185" y="119" type="line"/>
      <point x="250" y="332" type="line"/>
      <point x="304" y="520" type="line"/>
      <point x="308" y="520" type="line"/>
      <point x="362" y="332" type="line"/>
      <point x="429" y="119" type="line"/>
    </contour>
  </outline>
</glyph>
<glyph name="product" format="2">
  <advance width="692"/>
  <unicode hex="220F"/>
  <outline>
    <contour>
      <point x="84" y="-120" type="line"/>
      <point x="200" y="-120" type="line"/>
      <point x="200" y="535" type="line"/>
      <point x="491" y="535" type="line"/>
      <point x="491" y="-120" type="line"/>
      <point x="608" y="-120" type="line"/>
      <point x="608" y="636" type="line"/>
      <point x="84" y="636" type="line"/>
    </contour>
  </outline>
</glyph>
<glyph name="summation" format="2">
  <advance width="520"/>
  <unicode hex="2211"/>
  <outline>
    <contour>
      <point x="24" y="-120" type="line"/>
      <point x="513" y="-120" type="line"/>
      <point x="513" y="-22" type="line"/>
      <point x="168" y="-22" type="line"/>
      <point x="168" y="-18" type="line"/>
      <point x="366" y="258" type="line"/>
      <point x="176" y="535" type="line"/>
      <point x="176" y="539" type="line"/>
      <point x="487" y="539" type="line"/>
      <point x="487" y="636" type="line"/>
      <point x="35" y="636" type="line"/>
      <point x="35" y="566" type="line"/>
      <point x="246" y="258" type="line"/>
      <point x="24" y="-50" type="line"/>
    </contour>
  </outline>
</glyph>
<glyph name="radical" format="2">
  <advance width="549"/>
  <unicode hex="221A"/>
  <outline>
    <contour>
      <point x="264" y="-80" type="line"/>
      <point x="349" y="-80" type="line"/>
      <point x="555" y="779" type="line"/>
      <point x="473" y="779" type="line"/>
      <point x="318" y="114" type="line"/>
      <point x="312" y="90"/>
      <point x="308" y="65"/>
      <point x="304" y="41" type="curve"/>
      <point x="300" y="41" type="line"/>
      <point x="295" y="65"/>
      <point x="289" y="90"/>
      <point x="282" y="114" type="curve"/>
      <point x="183" y="408" type="line"/>
      <point x="29" y="344" type="line"/>
      <point x="52" y="285" type="line"/>
      <point x="122" y="314" type="line"/>
    </contour>
  </outline>
</glyph>
<glyph name="infinity" format="2">
  <advance width="764"/>
  <unicode hex="221E"/>
  <outline>
    <contour>
      <point x="547" y="116" type="curve" smooth="yes"/>
      <point x="648" y="116"/>
      <point x="728" y="193"/>
      <point x="728" y="321" type="curve" smooth="yes"/>
      <point x="728" y="427"/>
      <point x="652" y="504"/>
      <point x="553" y="504" type="curve" smooth="yes"/>
      <point x="475" y="504"/>
      <point x="417" y="459"/>
      <point x="370" y="397" type="curve"/>
      <point x="366" y="397" type="line"/>
      <point x="332" y="444"/>
      <point x="282" y="489"/>
      <point x="208" y="489" type="curve" smooth="yes"/>
      <point x="107" y="489"/>
      <point x="35" y="420"/>
      <point x="35" y="303" type="curve" smooth="yes"/>
      <point x="35" y="215"/>
      <point x="104" y="139"/>
      <point x="192" y="139" type="curve" smooth="yes"/>
      <point x="265" y="139"/>
      <point x="316" y="187"/>
      <point x="350" y="229" type="curve"/>
      <point x="354" y="229" type="line"/>
      <point x="413" y="154"/>
      <point x="467" y="116"/>
    </contour>
    <contour>
      <point x="203" y="228" type="curve" smooth="yes"/>
      <point x="156" y="228"/>
      <point x="126" y="264"/>
      <point x="126" y="306" type="curve" smooth="yes"/>
      <point x="126" y="347"/>
      <point x="152" y="376"/>
      <point x="199" y="376" type="curve" smooth="yes"/>
      <point x="240" y="376"/>
      <point x="278" y="344"/>
      <point x="309" y="298" type="curve"/>
      <point x="281" y="257"/>
      <point x="246" y="228"/>
    </contour>
    <contour>
      <point x="547" y="229" type="curve" smooth="yes"/>
      <point x="492" y="229"/>
      <point x="454" y="271"/>
      <point x="411" y="329" type="curve"/>
      <point x="451" y="386"/>
      <point x="495" y="414"/>
      <point x="541" y="414" type="curve" smooth="yes"/>
      <point x="600" y="414"/>
      <point x="638" y="376"/>
      <point x="638" y="318" type="curve" smooth="yes"/>
      <point x="638" y="271"/>
      <point x="604" y="229"/>
    </contour>
  </outline>
</glyph>
<glyph name="integral" format="2">
  <advance width="354"/>
  <unicode hex="222B"/>
  <outline>
    <contour>
      <point x="94" y="-150" type="curve" smooth="yes"/>
      <point x="231" y="-150"/>
      <point x="258" y="-51"/>
      <point x="258" y="79" type="curve" smooth="yes"/>
      <point x="258" y="231"/>
      <point x="222" y="381"/>
      <point x="222" y="524" type="curve" smooth="yes"/>
      <point x="222" y="616"/>
      <point x="233" y="659"/>
      <point x="282" y="659" type="curve" smooth="yes"/>
      <point x="296" y="659"/>
      <point x="307" y="657"/>
      <point x="316" y="655" type="curve"/>
      <point x="328" y="744" type="line"/>
      <point x="319" y="747"/>
      <point x="298" y="751"/>
      <point x="277" y="751" type="curve" smooth="yes"/>
      <point x="140" y="751"/>
      <point x="112" y="652"/>
      <point x="112" y="521" type="curve" smooth="yes"/>
      <point x="112" y="369"/>
      <point x="149" y="219"/>
      <point x="149" y="75" type="curve" smooth="yes"/>
      <point x="149" y="-17"/>
      <point x="138" y="-57"/>
      <point x="88" y="-57" type="curve" smooth="yes"/>
      <point x="75" y="-57"/>
      <point x="63" y="-56"/>
      <point x="54" y="-54" type="curve"/>
      <point x="42" y="-143" type="line"/>
      <point x="52" y="-146"/>
      <point x="72" y="-150"/>
    </contour>
  </outline>
</glyph>
<glyph name="notequal" format="2">
  <advance width="510"/>
  <unicode hex="2260"/>
  <outline>
    <contour>
      <point x="49" y="38" type="line"/>
      <point x="140" y="38" type="line"/>
      <point x="209" y="156" type="line"/>
      <point x="477" y="156" type="line"/>
      <point x="477" y="256" type="line"/>
      <point x="265" y="256" type="line"/>
      <point x="335" y="381" type="line"/>
      <point x="477" y="381" type="line"/>
      <point x="477" y="481" type="line"/>
      <point x="391" y="481" type="line"/>
      <point x="460" y="599" type="line"/>
      <point x="370" y="599" type="line"/>
      <point x="301" y="481" type="line"/>
      <point x="32" y="481" type="line"/>
      <point x="32" y="381" type="line"/>
      <point x="245" y="381" type="line"/>
      <point x="174" y="256" type="line"/>
      <point x="32" y="256" type="line"/>
      <point x="32" y="156" type="line"/>
      <point x="119" y="156" type="line"/>
    </contour>
  </outline>
</glyph>
<glyph name="lessequal" format="2">
  <advance width="510"/>
  <unicode hex="2264"/>
  <outline>
    <contour>
      <point x="477" y="148" type="line"/>
      <point x="477" y="265" type="line"/>
      <point x="310" y="310" type="line"/>
      <point x="176" y="342" type="line"/>
      <point x="176" y="346" type="line"/>
      <point x="310" y="379" type="line"/>
      <point x="477" y="424" type="line"/>
      <point x="477" y="541" type="line"/>
      <point x="32" y="403" type="line"/>
      <point x="32" y="286" type="line"/>
    </contour>
    <contour>
      <point x="32" y="0" type="line"/>
      <point x="477" y="0" type="line"/>
      <point x="477" y="100" type="line"/>
      <point x="32" y="100" type="line"/>
    </contour>
  </outline>
</glyph>
<glyph name="greaterequal" format="2">
  <advance width="492"/>
  <unicode hex="2265"/>
  <outline>
    <contour>
      <point x="32" y="145" type="line"/>
      <point x="460" y="283" type="line"/>
      <point x="460" y="386" type="line"/>
      <point x="32" y="524" type="line"/>
      <point x="32" y="423" type="line"/>
      <point x="206" y="371" type="line"/>
      <point x="337" y="336" type="line"/>
      <point x="337" y="333" type="line"/>
      <point x="206" y="298" type="line"/>
      <point x="32" y="246" type="line"/>
    </contour>
    <contour>
      <point x="32" y="0" type="line"/>
      <point x="460" y="0" type="line"/>
      <point x="460" y="86" type="line"/>
      <point x="32" y="86" type="line"/>
    </contour>
  </outline>
</glyph>
<glyph name="blank" format="2">
  <advance width="219"/>
  <unicode hex="2423"/>
  <outline>
    <contour>
      <point x="219" y="-122" type="line"/>
      <point x="219" y="0" type="line"/>
      <point x="174" y="0" type="line"/>
      <point x="174" y="-66" type="line"/>
      <point x="45" y="-66" type="line"/>
      <point x="45" y="0" type="line"/>
      <point x="0" y="0" type="line"/>
      <point x="0" y="-122" type="line"/>
    </contour>
  </outline>
</glyph>
<glyph name="lozenge" format="2">
  <advance width="511"/>
  <unicode hex="25CA"/>
  <outline>
    <contour>
      <point x="205" y="-9" type="line"/>
      <point x="306" y="-9" type="line"/>
      <point x="461" y="313" type="line"/>
      <point x="306" y="636" type="line"/>
      <point x="205" y="636" type="line"/>
      <point x="50" y="313" type="line"/>
    </contour>
    <contour>
      <point x="254" y="92" type="line"/>
      <point x="200" y="210" type="line"/>
      <point x="152" y="313" type="line"/>
      <point x="200" y="416" type="line"/>
      <point x="254" y="534" type="line"/>
      <point x="257" y="534" type="line"/>
      <point x="311" y="416" type="line"/>
      <point x="359" y="313" type="line"/>
      <point x="311" y="210" type="line"/>
      <point x="257" y="92" type="line"/>
    </contour>
  </outline>
</glyph>
<glyph name="dottedCircle" format="2">
  <advance width="557"/>
  <unicode hex="25CC"/>
  <anchor x="279" y="655" name="A"/>
  <anchor x="557" y="655" name="M"/>
  <anchor x="279" y="501" name="aboveLC"/>
  <anchor x="279" y="0" name="baseLC"/>
  <outline>
    <contour>
      <point x="101" y="92" type="curve" smooth="yes"/>
      <point x="126" y="92"/>
      <point x="142" y="107"/>
      <point x="142" y="134" type="curve" smooth="yes"/>
      <point x="142" y="160"/>
      <point x="125" y="176"/>
      <point x="101" y="176" type="curve" smooth="yes"/>
      <point x="81" y="176"/>
      <point x="62" y="160"/>
      <point x="62" y="134" type="curve" smooth="yes"/>
      <point x="62" y="107"/>
      <point x="81" y="92"/>
    </contour>
    <contour>
      <point x="74" y="197" type="curve" smooth="yes"/>
      <point x="100" y="197"/>
      <point x="116" y="213"/>
      <point x="116" y="240" type="curve" smooth="yes"/>
      <point x="116" y="266"/>
      <point x="98" y="280"/>
      <point x="74" y="280" type="curve" smooth="yes"/>
      <point x="53" y="280"/>
      <point x="34" y="266"/>
      <point x="34" y="240" type="curve" smooth="yes"/>
      <point x="34" y="213"/>
      <point x="53" y="197"/>
    </contour>
    <contour>
      <point x="101" y="303" type="curve" smooth="yes"/>
      <point x="126" y="303"/>
      <point x="142" y="319"/>
      <point x="142" y="346" type="curve" smooth="yes"/>
      <point x="142" y="373"/>
      <point x="125" y="387"/>
      <point x="101" y="387" type="curve" smooth="yes"/>
      <point x="81" y="387"/>
      <point x="62" y="373"/>
      <point x="62" y="346" type="curve" smooth="yes"/>
      <point x="62" y="319"/>
      <point x="81" y="303"/>
    </contour>
    <contour>
      <point x="177" y="13" type="curve" smooth="yes"/>
      <point x="200" y="13"/>
      <point x="218" y="29"/>
      <point x="218" y="56" type="curve" smooth="yes"/>
      <point x="218" y="82"/>
      <point x="199" y="96"/>
      <point x="177" y="96" type="curve" smooth="yes"/>
      <point x="155" y="96"/>
      <point x="136" y="82"/>
      <point x="136" y="56" type="curve" smooth="yes"/>
      <point x="136" y="29"/>
      <point x="155" y="13"/>
    </contour>
    <contour>
      <point x="177" y="382" type="curve" smooth="yes"/>
      <point x="200" y="382"/>
      <point x="218" y="398"/>
      <point x="218" y="423" type="curve" smooth="yes"/>
      <point x="218" y="451"/>
      <point x="199" y="465"/>
      <point x="177" y="465" type="curve" smooth="yes"/>
      <point x="155" y="465"/>
      <point x="136" y="451"/>
      <point x="136" y="423" type="curve" smooth="yes"/>
      <point x="136" y="398"/>
      <point x="155" y="382"/>
    </contour>
    <contour>
      <point x="278" y="-12" type="curve" smooth="yes"/>
      <point x="303" y="-12"/>
      <point x="319" y="3"/>
      <point x="319" y="30" type="curve" smooth="yes"/>
      <point x="319" y="56"/>
      <point x="302" y="70"/>
      <point x="278" y="70" type="curve" smooth="yes"/>
      <point x="257" y="70"/>
      <point x="239" y="56"/>
      <point x="239" y="30" type="curve" smooth="yes"/>
      <point x="239" y="3"/>
      <point x="257" y="-12"/>
    </contour>
    <contour>
      <point x="278" y="407" type="curve" smooth="yes"/>
      <point x="303" y="407"/>
      <point x="319" y="424"/>
      <point x="319" y="450" type="curve" smooth="yes"/>
      <point x="319" y="476"/>
      <point x="302" y="491"/>
      <point x="278" y="491" type="curve" smooth="yes"/>
      <point x="257" y="491"/>
      <point x="239" y="476"/>
      <point x="239" y="450" type="curve" smooth="yes"/>
      <point x="239" y="424"/>
      <point x="257" y="407"/>
    </contour>
    <contour>
      <point x="380" y="13" type="curve" smooth="yes"/>
      <point x="406" y="13"/>
      <point x="422" y="29"/>
      <point x="422" y="56" type="curve" smooth="yes"/>
      <point x="422" y="82"/>
      <point x="403" y="96"/>
      <point x="380" y="96" type="curve" smooth="yes"/>
      <point x="359" y="96"/>
      <point x="340" y="82"/>
      <point x="340" y="56" type="curve" smooth="yes"/>
      <point x="340" y="29"/>
      <point x="359" y="13"/>
    </contour>
    <contour>
      <point x="380" y="381" type="curve" smooth="yes"/>
      <point x="406" y="381"/>
      <point x="422" y="397"/>
      <point x="422" y="423" type="curve" smooth="yes"/>
      <point x="422" y="450"/>
      <point x="403" y="465"/>
      <point x="380" y="465" type="curve" smooth="yes"/>
      <point x="359" y="465"/>
      <point x="340" y="450"/>
      <point x="340" y="423" type="curve" smooth="yes"/>
      <point x="340" y="397"/>
      <point x="359" y="381"/>
    </contour>
    <contour>
      <point x="457" y="92" type="curve" smooth="yes"/>
      <point x="481" y="92"/>
      <point x="497" y="107"/>
      <point x="497" y="134" type="curve" smooth="yes"/>
      <point x="497" y="160"/>
      <point x="479" y="176"/>
      <point x="457" y="176" type="curve" smooth="yes"/>
      <point x="435" y="176"/>
      <point x="416" y="160"/>
      <point x="416" y="134" type="curve" smooth="yes"/>
      <point x="416" y="107"/>
      <point x="435" y="92"/>
    </contour>
    <contour>
      <point x="483" y="197" type="curve" smooth="yes"/>
      <point x="506" y="197"/>
      <point x="524" y="213"/>
      <point x="524" y="240" type="curve" smooth="yes"/>
      <point x="524" y="266"/>
      <point x="504" y="280"/>
      <point x="483" y="280" type="curve" smooth="yes"/>
      <point x="460" y="280"/>
      <point x="442" y="266"/>
      <point x="442" y="240" type="curve" smooth="yes"/>
      <point x="442" y="213"/>
      <point x="460" y="197"/>
    </contour>
    <contour>
      <point x="457" y="303" type="curve" smooth="yes"/>
      <point x="481" y="303"/>
      <point x="497" y="318"/>
      <point x="497" y="345" type="curve" smooth="yes"/>
      <point x="497" y="371"/>
      <point x="479" y="386"/>
      <point x="457" y="386" type="curve" smooth="yes"/>
      <point x="435" y="386"/>
      <point x="416" y="371"/>
      <point x="416" y="345" type="curve" smooth="yes"/>
      <point x="416" y="318"/>
      <point x="435" y="303"/>
    </contour>
  </outline>
</glyph>
<glyph name="dottedcircle" format="2">
  <advance width="550"/>
  <unicode hex="25CC"/>
  <anchor x="275" y="645" name="A"/>
  <anchor x="550" y="645" name="M"/>
  <anchor x="275" y="490" name="aboveLC"/>
  <anchor x="275" y="0" name="baseLC"/>
  <outline>
    <contour>
      <point x="100" y="91" type="curve" smooth="yes"/>
      <point x="123" y="91"/>
      <point x="139" y="105"/>
      <point x="139" y="130" type="curve" smooth="yes"/>
      <point x="139" y="155"/>
      <point x="122" y="169"/>
      <point x="100" y="169" type="curve" smooth="yes"/>
      <point x="81" y="169"/>
      <point x="63" y="155"/>
      <point x="63" y="130" type="curve" smooth="yes"/>
      <point x="63" y="105"/>
      <point x="81" y="91"/>
    </contour>
    <contour>
      <point x="73" y="194" type="curve" smooth="yes"/>
      <point x="97" y="194"/>
      <point x="113" y="209"/>
      <point x="113" y="234" type="curve" smooth="yes"/>
      <point x="113" y="259"/>
      <point x="96" y="272"/>
      <point x="73" y="272" type="curve" smooth="yes"/>
      <point x="54" y="272"/>
      <point x="36" y="259"/>
      <point x="36" y="234" type="curve" smooth="yes"/>
      <point x="36" y="209"/>
      <point x="54" y="194"/>
    </contour>
    <contour>
      <point x="100" y="298" type="curve" smooth="yes"/>
      <point x="123" y="298"/>
      <point x="139" y="314"/>
      <point x="139" y="339" type="curve" smooth="yes"/>
      <point x="139" y="364"/>
      <point x="122" y="377"/>
      <point x="100" y="377" type="curve" smooth="yes"/>
      <point x="81" y="377"/>
      <point x="63" y="364"/>
      <point x="63" y="339" type="curve" smooth="yes"/>
      <point x="63" y="314"/>
      <point x="81" y="298"/>
    </contour>
    <contour>
      <point x="174" y="13" type="curve" smooth="yes"/>
      <point x="197" y="13"/>
      <point x="213" y="28"/>
      <point x="213" y="54" type="curve" smooth="yes"/>
      <point x="213" y="78"/>
      <point x="195" y="91"/>
      <point x="174" y="91" type="curve" smooth="yes"/>
      <point x="154" y="91"/>
      <point x="136" y="78"/>
      <point x="136" y="54" type="curve" smooth="yes"/>
      <point x="136" y="28"/>
      <point x="154" y="13"/>
    </contour>
    <contour>
      <point x="174" y="376" type="curve" smooth="yes"/>
      <point x="197" y="376"/>
      <point x="213" y="391"/>
      <point x="213" y="415" type="curve" smooth="yes"/>
      <point x="213" y="441"/>
      <point x="195" y="454"/>
      <point x="174" y="454" type="curve" smooth="yes"/>
      <point x="154" y="454"/>
      <point x="136" y="441"/>
      <point x="136" y="415" type="curve" smooth="yes"/>
      <point x="136" y="391"/>
      <point x="154" y="376"/>
    </contour>
    <contour>
      <point x="275" y="-12" type="curve" smooth="yes"/>
      <point x="298" y="-12"/>
      <point x="313" y="2"/>
      <point x="313" y="28" type="curve" smooth="yes"/>
      <point x="313" y="52"/>
      <point x="297" y="66"/>
      <point x="275" y="66" type="curve" smooth="yes"/>
      <point x="255" y="66"/>
      <point x="238" y="52"/>
      <point x="238" y="28" type="curve" smooth="yes"/>
      <point x="238" y="2"/>
      <point x="255" y="-12"/>
    </contour>
    <contour>
      <point x="275" y="401" type="curve" smooth="yes"/>
      <point x="298" y="401"/>
      <point x="313" y="416"/>
      <point x="313" y="441" type="curve" smooth="yes"/>
      <point x="313" y="465"/>
      <point x="297" y="479"/>
      <point x="275" y="479" type="curve" smooth="yes"/>
      <point x="255" y="479"/>
      <point x="238" y="465"/>
      <point x="238" y="441" type="curve" smooth="yes"/>
      <point x="238" y="416"/>
      <point x="255" y="401"/>
    </contour>
    <contour>
      <point x="375" y="13" type="curve" smooth="yes"/>
      <point x="399" y="13"/>
      <point x="414" y="28"/>
      <point x="414" y="54" type="curve" smooth="yes"/>
      <point x="414" y="78"/>
      <point x="396" y="91"/>
      <point x="375" y="91" type="curve" smooth="yes"/>
      <point x="355" y="91"/>
      <point x="337" y="78"/>
      <point x="337" y="54" type="curve" smooth="yes"/>
      <point x="337" y="28"/>
      <point x="355" y="13"/>
    </contour>
    <contour>
      <point x="375" y="375" type="curve" smooth="yes"/>
      <point x="399" y="375"/>
      <point x="414" y="390"/>
      <point x="414" y="415" type="curve" smooth="yes"/>
      <point x="414" y="440"/>
      <point x="396" y="454"/>
      <point x="375" y="454" type="curve" smooth="yes"/>
      <point x="355" y="454"/>
      <point x="337" y="440"/>
      <point x="337" y="415" type="curve" smooth="yes"/>
      <point x="337" y="390"/>
      <point x="355" y="375"/>
    </contour>
    <contour>
      <point x="450" y="91" type="curve" smooth="yes"/>
      <point x="473" y="91"/>
      <point x="488" y="105"/>
      <point x="488" y="130" type="curve" smooth="yes"/>
      <point x="488" y="155"/>
      <point x="471" y="169"/>
      <point x="450" y="169" type="curve" smooth="yes"/>
      <point x="429" y="169"/>
      <point x="412" y="155"/>
      <point x="412" y="130" type="curve" smooth="yes"/>
      <point x="412" y="105"/>
      <point x="429" y="91"/>
    </contour>
    <contour>
      <point x="476" y="194" type="curve" smooth="yes"/>
      <point x="498" y="194"/>
      <point x="514" y="209"/>
      <point x="514" y="234" type="curve" smooth="yes"/>
      <point x="514" y="259"/>
      <point x="496" y="272"/>
      <point x="476" y="272" type="curve" smooth="yes"/>
      <point x="454" y="272"/>
      <point x="437" y="259"/>
      <point x="437" y="234" type="curve" smooth="yes"/>
      <point x="437" y="209"/>
      <point x="454" y="194"/>
    </contour>
    <contour>
      <point x="450" y="298" type="curve" smooth="yes"/>
      <point x="473" y="298"/>
      <point x="488" y="313"/>
      <point x="488" y="338" type="curve" smooth="yes"/>
      <point x="488" y="362"/>
      <point x="471" y="376"/>
      <point x="450" y="376" type="curve" smooth="yes"/>
      <point x="429" y="376"/>
      <point x="412" y="362"/>
      <point x="412" y="338" type="curve" smooth="yes"/>
      <point x="412" y="313"/>
      <point x="429" y="298"/>
    </contour>
  </outline>
</glyph>
<glyph name="sidebearingleft" format="2">
  <advance width="149"/>
  <unicode hex="F130"/>
  <outline>
    <contour>
      <point x="19" y="0" type="line"/>
      <point x="19" y="-27" type="line"/>
      <point x="122" y="-27" type="line"/>
      <point x="122" y="-129" type="line"/>
      <point x="149" y="-129" type="line"/>
      <point x="149" y="0" type="line"/>
    </contour>
  </outline>
</glyph>
<glyph name="sidebearingright" format="2">
  <advance width="149"/>
  <unicode hex="F131"/>
  <outline>
    <contour>
      <point x="0" y="0" type="line"/>
      <point x="0" y="-129" type="line"/>
      <point x="27" y="-129" type="line"/>
      <point x="27" y="-27" type="line"/>
      <point x="129" y="-27" type="line"/>
      <point x="129" y="0" type="line"/>
    </contour>
  </outline>
</glyph>
<glyph name="avowel" format="2">
  <advance width="854"/>
  <unicode hex="11D60"/>
  <anchor x="673" y="645" name="A"/>
  <outline>
    <contour>
      <point x="604" y="-2" type="curve" smooth="yes"/>
      <point x="704" y="-2"/>
      <point x="799" y="63"/>
      <point x="799" y="234" type="curve" smooth="yes"/>
      <point x="799" y="615" type="line"/>
      <point x="686" y="615" type="line"/>
      <point x="686" y="203" type="line" smooth="yes"/>
      <point x="686" y="131"/>
      <point x="644" y="95"/>
      <point x="602" y="95" type="curve" smooth="yes"/>
      <point x="559" y="95"/>
      <point x="517" y="131"/>
      <point x="517" y="203" type="curve" smooth="yes"/>
      <point x="517" y="376" type="line"/>
      <point x="404" y="376" type="line"/>
      <point x="404" y="237" type="line" smooth="yes"/>
      <point x="404" y="76"/>
      <point x="483" y="-2"/>
    </contour>
    <contour>
      <point x="34" y="64"/>
      <point x="137" y="-2"/>
      <point x="247" y="-2" type="curve" smooth="yes"/>
      <point x="329" y="-2"/>
      <point x="415" y="35"/>
      <point x="463" y="115" type="curve"/>
      <point x="404" y="302" type="line"/>
      <point x="404" y="158"/>
      <point x="331" y="95"/>
      <point x="249" y="95" type="curve" smooth="yes"/>
      <point x="190" y="95"/>
      <point x="147" y="132"/>
      <point x="147" y="197" type="curve" smooth="yes"/>
      <point x="147" y="251"/>
      <point x="186" y="288"/>
      <point x="226" y="288" type="curve" smooth="yes"/>
      <point x="250" y="288"/>
      <point x="274" y="275"/>
      <point x="292" y="247" type="curve"/>
      <point x="373" y="315" type="line"/>
      <point x="333" y="364"/>
      <point x="279" y="385"/>
      <point x="227" y="385" type="curve" smooth="yes"/>
      <point x="123" y="385"/>
      <point x="34" y="310"/>
      <point x="34" y="192" type="curve" smooth="yes"/>
    </contour>
    <contour>
      <point x="-19" y="589" type="line"/>
      <point x="873" y="589" type="line"/>
      <point x="873" y="655" type="line"/>
      <point x="-19" y="655" type="line"/>
    </contour>
  </outline>
</glyph>
<glyph name="aavowel" format="2">
  <advance width="1232"/>
  <unicode hex="11D61"/>
  <anchor x="867" y="655" name="A"/>
  <outline>
    <contour>
      <point x="-19" y="589" type="line"/>
      <point x="1251" y="589" type="line"/>
      <point x="1251" y="655" type="line"/>
      <point x="-19" y="655" type="line"/>
    </contour>
    <contour>
      <point x="602" y="-2" type="curve" smooth="yes"/>
      <point x="702" y="-2"/>
      <point x="799" y="63"/>
      <point x="799" y="234" type="curve" smooth="yes"/>
      <point x="799" y="251"/>
      <point x="798" y="265"/>
      <point x="798" y="298" type="curve" smooth="yes"/>
      <point x="798" y="385"/>
      <point x="905" y="423"/>
      <point x="983" y="423" type="curve" smooth="yes"/>
      <point x="1057" y="423"/>
      <point x="1083" y="377"/>
      <point x="1083" y="342" type="curve" smooth="yes"/>
      <point x="1083" y="301"/>
      <point x="1047" y="272"/>
      <point x="1009" y="272" type="curve" smooth="yes"/>
      <point x="969" y="272"/>
      <point x="928" y="305"/>
      <point x="928" y="395" type="curve"/>
      <point x="928" y="615" type="line"/>
      <point x="815" y="615" type="line"/>
      <point x="815" y="375" type="line" smooth="yes"/>
      <point x="815" y="232"/>
      <point x="905" y="175"/>
      <point x="1008" y="175" type="curve" smooth="yes"/>
      <point x="1096" y="175"/>
      <point x="1196" y="239"/>
      <point x="1196" y="346" type="curve" smooth="yes"/>
      <point x="1196" y="428"/>
      <point x="1133" y="520"/>
      <point x="993" y="520" type="curve" smooth="yes"/>
      <point x="827" y="520"/>
      <point x="686" y="433"/>
      <point x="686" y="286" type="curve" smooth="yes"/>
      <point x="686" y="245"/>
      <point x="686" y="224"/>
      <point x="686" y="203" type="curve" smooth="yes"/>
      <point x="686" y="131"/>
      <point x="644" y="95"/>
      <point x="602" y="95" type="curve" smooth="yes"/>
      <point x="559" y="95"/>
      <point x="517" y="131"/>
      <point x="517" y="203" type="curve" smooth="yes"/>
      <point x="517" y="376" type="line"/>
      <point x="404" y="376" type="line"/>
      <point x="404" y="237" type="line" smooth="yes"/>
      <point x="404" y="76"/>
      <point x="481" y="-2"/>
    </contour>
    <contour>
      <point x="247" y="-2" type="curve" smooth="yes"/>
      <point x="329" y="-2"/>
      <point x="415" y="35"/>
      <point x="463" y="115" type="curve"/>
      <point x="404" y="302" type="line"/>
      <point x="404" y="158"/>
      <point x="331" y="95"/>
      <point x="249" y="95" type="curve" smooth="yes"/>
      <point x="190" y="95"/>
      <point x="147" y="132"/>
      <point x="147" y="197" type="curve" smooth="yes"/>
      <point x="147" y="251"/>
      <point x="186" y="288"/>
      <point x="226" y="288" type="curve" smooth="yes"/>
      <point x="250" y="288"/>
      <point x="274" y="275"/>
      <point x="292" y="247" type="curve"/>
      <point x="373" y="315" type="line"/>
      <point x="333" y="364"/>
      <point x="279" y="385"/>
      <point x="227" y="385" type="curve" smooth="yes"/>
      <point x="123" y="385"/>
      <point x="34" y="310"/>
      <point x="34" y="192" type="curve" smooth="yes"/>
      <point x="34" y="64"/>
      <point x="137" y="-2"/>
    </contour>
  </outline>
</glyph>
<glyph name="ivowel" format="2">
  <advance width="946"/>
  <unicode hex="11D62"/>
  <anchor x="937" y="675" name="A"/>
  <outline>
    <component base="_imatra-hook" xOffset="553" yOffset="-112"/>
    <contour>
      <point x="-19" y="589" type="line"/>
      <point x="965" y="589" type="line"/>
      <point x="965" y="655" type="line"/>
      <point x="-19" y="655" type="line"/>
    </contour>
    <contour>
      <point x="778" y="176" type="line"/>
      <point x="891" y="176" type="line"/>
      <point x="891" y="621" type="line" smooth="yes"/>
      <point x="891" y="784"/>
      <point x="768" y="865"/>
      <point x="646" y="865" type="curve" smooth="yes"/>
      <point x="526" y="865"/>
      <point x="406" y="786"/>
      <point x="406" y="627" type="curve"/>
      <point x="519" y="627" type="line"/>
      <point x="519" y="721"/>
      <point x="583" y="768"/>
      <point x="647" y="768" type="curve" smooth="yes"/>
      <point x="712" y="768"/>
      <point x="778" y="719"/>
      <point x="778" y="621" type="curve" smooth="yes"/>
    </contour>
    <contour>
      <point x="259" y="-2" type="curve" smooth="yes"/>
      <point x="389" y="-2"/>
      <point x="519" y="84"/>
      <point x="519" y="280" type="curve" smooth="yes"/>
      <point x="519" y="607" type="line"/>
      <point x="406" y="607" type="line"/>
      <point x="406" y="293" type="line" smooth="yes"/>
      <point x="406" y="168"/>
      <point x="348" y="95"/>
      <point x="261" y="95" type="curve" smooth="yes"/>
      <point x="192" y="95"/>
      <point x="149" y="132"/>
      <point x="149" y="197" type="curve" smooth="yes"/>
      <point x="149" y="251"/>
      <point x="188" y="288"/>
      <point x="228" y="288" type="curve" smooth="yes"/>
      <point x="252" y="288"/>
      <point x="276" y="275"/>
      <point x="294" y="247" type="curve"/>
      <point x="375" y="315" type="line"/>
      <point x="335" y="364"/>
      <point x="281" y="385"/>
      <point x="229" y="385" type="curve" smooth="yes"/>
      <point x="125" y="385"/>
      <point x="36" y="310"/>
      <point x="36" y="192" type="curve" smooth="yes"/>
      <point x="36" y="64"/>
      <point x="139" y="-2"/>
    </contour>
  </outline>
</glyph>
<glyph name="iivowel" format="2">
  <advance width="1173"/>
  <unicode hex="11D63"/>
  <anchor x="850" y="645" name="A"/>
  <outline>
    <contour>
      <point x="-19" y="589" type="line"/>
      <point x="1192" y="589" type="line"/>
      <point x="1192" y="655" type="line"/>
      <point x="-19" y="655" type="line"/>
    </contour>
    <contour>
      <point x="717" y="0" type="curve"/>
      <point x="830" y="0" type="line"/>
      <point x="830" y="621" type="line" smooth="yes"/>
      <point x="830" y="788"/>
      <point x="723" y="865"/>
      <point x="616" y="865" type="curve" smooth="yes"/>
      <point x="511" y="865"/>
      <point x="406" y="790"/>
      <point x="406" y="627" type="curve"/>
      <point x="519" y="627" type="line"/>
      <point x="519" y="726"/>
      <point x="567" y="768"/>
      <point x="616" y="768" type="curve" smooth="yes"/>
      <point x="666" y="768"/>
      <point x="717" y="722"/>
      <point x="717" y="621" type="curve" smooth="yes"/>
      <point x="717" y="609"/>
      <point x="717" y="333"/>
    </contour>
    <contour>
      <point x="259" y="-2" type="curve" smooth="yes"/>
      <point x="389" y="-2"/>
      <point x="519" y="84"/>
      <point x="519" y="280" type="curve" smooth="yes"/>
      <point x="519" y="607" type="line"/>
      <point x="406" y="607" type="line"/>
      <point x="406" y="599"/>
      <point x="406" y="612"/>
      <point x="406" y="293" type="curve" smooth="yes"/>
      <point x="406" y="168"/>
      <point x="348" y="95"/>
      <point x="261" y="95" type="curve" smooth="yes"/>
      <point x="192" y="95"/>
      <point x="149" y="132"/>
      <point x="149" y="197" type="curve" smooth="yes"/>
      <point x="149" y="251"/>
      <point x="188" y="288"/>
      <point x="228" y="288" type="curve" smooth="yes"/>
      <point x="252" y="288"/>
      <point x="276" y="275"/>
      <point x="294" y="247" type="curve"/>
      <point x="375" y="315" type="line"/>
      <point x="335" y="364"/>
      <point x="281" y="385"/>
      <point x="229" y="385" type="curve" smooth="yes"/>
      <point x="125" y="385"/>
      <point x="36" y="310"/>
      <point x="36" y="192" type="curve" smooth="yes"/>
      <point x="36" y="64"/>
      <point x="139" y="-2"/>
    </contour>
    <contour>
      <point x="1037" y="-28" type="line"/>
      <point x="1106" y="26"/>
      <point x="1137" y="96"/>
      <point x="1137" y="161" type="curve" smooth="yes"/>
      <point x="1137" y="280"/>
      <point x="1040" y="355"/>
      <point x="937" y="355" type="curve" smooth="yes"/>
      <point x="881" y="355"/>
      <point x="830" y="337"/>
      <point x="792" y="298" type="curve"/>
      <point x="830" y="159" type="line"/>
      <point x="830" y="224"/>
      <point x="881" y="258"/>
      <point x="931" y="258" type="curve" smooth="yes"/>
      <point x="979" y="258"/>
      <point x="1026" y="227"/>
      <point x="1026" y="162" type="curve" smooth="yes"/>
      <point x="1026" y="119"/>
      <point x="1004" y="72"/>
      <point x="956" y="43" type="curve"/>
    </contour>
  </outline>
</glyph>
<glyph name="uuvowel" format="2">
  <advance width="886"/>
  <unicode hex="11D65"/>
  <anchor x="771" y="655" name="A"/>
  <outline>
    <component base="aamatra" xOffset="401"/>
    <contour>
      <point x="248" y="-2" type="curve" smooth="yes"/>
      <point x="356" y="-2"/>
      <point x="452" y="40"/>
      <point x="513" y="136" type="curve"/>
      <point x="432" y="185" type="line"/>
      <point x="395" y="113"/>
      <point x="318" y="91"/>
      <point x="248" y="91" type="curve" smooth="yes"/>
      <point x="195" y="91"/>
      <point x="164" y="108"/>
      <point x="164" y="123" type="curve" smooth="yes"/>
      <point x="164" y="133"/>
      <point x="181" y="143"/>
      <point x="214" y="143" type="curve" smooth="yes"/>
      <point x="334" y="143" type="line"/>
      <point x="334" y="236" type="line"/>
      <point x="247" y="236" type="line" smooth="yes"/>
      <point x="214" y="236"/>
      <point x="200" y="246"/>
      <point x="200" y="255" type="curve" smooth="yes"/>
      <point x="200" y="264"/>
      <point x="213" y="272"/>
      <point x="232" y="272" type="curve" smooth="yes"/>
      <point x="249" y="272"/>
      <point x="264" y="268"/>
      <point x="279" y="268" type="curve" smooth="yes"/>
      <point x="361" y="268"/>
      <point x="417" y="333"/>
      <point x="417" y="396" type="curve" smooth="yes"/>
      <point x="417" y="457"/>
      <point x="365" y="517"/>
      <point x="265" y="517" type="curve" smooth="yes"/>
      <point x="157" y="517" type="line"/>
      <point x="222" y="451" type="line"/>
      <point x="222" y="615" type="line"/>
      <point x="109" y="615" type="line"/>
      <point x="109" y="424" type="line"/>
      <point x="152" y="424"/>
      <point x="186" y="424"/>
      <point x="263" y="424" type="curve" smooth="yes"/>
      <point x="290" y="424"/>
      <point x="304" y="407"/>
      <point x="304" y="391" type="curve" smooth="yes"/>
      <point x="304" y="376"/>
      <point x="291" y="361"/>
      <point x="267" y="361" type="curve" smooth="yes"/>
      <point x="246" y="361"/>
      <point x="233" y="364"/>
      <point x="206" y="364" type="curve" smooth="yes"/>
      <point x="127" y="364"/>
      <point x="88" y="310"/>
      <point x="88" y="260" type="curve" smooth="yes"/>
      <point x="88" y="230"/>
      <point x="102" y="202"/>
      <point x="131" y="189" type="curve"/>
      <point x="133" y="213" type="line"/>
      <point x="83" y="201"/>
      <point x="50" y="160"/>
      <point x="50" y="117" type="curve" smooth="yes"/>
      <point x="50" y="42"/>
      <point x="135" y="-2"/>
    </contour>
    <contour>
      <point x="-5" y="589" type="line"/>
      <point x="409" y="589" type="line"/>
      <point x="409" y="655" type="line"/>
      <point x="-5" y="655" type="line"/>
    </contour>
  </outline>
</glyph>
<glyph name="ya" format="2">
  <advance width="895"/>
  <unicode hex="11D6C"/>
  <anchor x="693" y="655" name="A"/>
  <anchor x="695" y="655" name="M"/>
  <outline>
    <contour>
      <point x="597" y="-4" type="curve" smooth="yes"/>
      <point x="677" y="-4"/>
      <point x="761" y="56"/>
      <point x="761" y="149" type="curve" smooth="yes"/>
      <point x="761" y="379"/>
      <point x="334" y="304"/>
      <point x="334" y="436" type="curve" smooth="yes"/>
      <point x="334" y="466"/>
      <point x="355" y="482"/>
      <point x="377" y="482" type="curve" smooth="yes"/>
      <point x="401" y="482"/>
      <point x="425" y="464"/>
      <point x="425" y="423" type="curve" smooth="yes"/>
      <point x="425" y="362"/>
      <point x="345" y="291"/>
      <point x="268" y="291" type="curve" smooth="yes"/>
      <point x="178" y="291"/>
      <point x="149" y="365"/>
      <point x="149" y="439" type="curve" smooth="yes"/>
      <point x="149" y="468"/>
      <point x="155" y="496"/>
      <point x="164" y="521" type="curve"/>
      <point x="49" y="521" type="line"/>
      <point x="39" y="493"/>
      <point x="36" y="464"/>
      <point x="36" y="434" type="curve" smooth="yes"/>
      <point x="36" y="313"/>
      <point x="98" y="191"/>
      <point x="261" y="191" type="curve" smooth="yes"/>
      <point x="395" y="191"/>
      <point x="538" y="295"/>
      <point x="538" y="431" type="curve" smooth="yes"/>
      <point x="538" y="529"/>
      <point x="459" y="579"/>
      <point x="379" y="579" type="curve" smooth="yes"/>
      <point x="300" y="579"/>
      <point x="221" y="529"/>
      <point x="221" y="429" type="curve" smooth="yes"/>
      <point x="221" y="311"/>
      <point x="333" y="275"/>
      <point x="476" y="244" type="curve" smooth="yes"/>
      <point x="603" y="216"/>
      <point x="648" y="193"/>
      <point x="648" y="145" type="curve" smooth="yes"/>
      <point x="648" y="109"/>
      <point x="623" y="93"/>
      <point x="597" y="93" type="curve" smooth="yes"/>
      <point x="568" y="93"/>
      <point x="539" y="110"/>
      <point x="539" y="147" type="curve" smooth="yes"/>
      <point x="539" y="223"/>
      <point x="692" y="295"/>
      <point x="762" y="363" type="curve" smooth="yes"/>
      <point x="828" y="427"/>
      <point x="850" y="470"/>
      <point x="850" y="530" type="curve" smooth="yes"/>
      <point x="850" y="615" type="line"/>
      <point x="737" y="615" type="line"/>
      <point x="737" y="530" type="line" smooth="yes"/>
      <point x="737" y="467"/>
      <point x="627" y="388"/>
      <point x="535" y="322" type="curve" smooth="yes"/>
      <point x="464" y="271"/>
      <point x="427" y="207"/>
      <point x="427" y="144" type="curve" smooth="yes"/>
      <point x="427" y="65"/>
      <point x="485" y="-4"/>
    </contour>
    <contour>
      <point x="-19" y="589" type="line"/>
      <point x="914" y="589" type="line"/>
      <point x="914" y="655" type="line"/>
      <point x="-19" y="655" type="line"/>
    </contour>
  </outline>
</glyph>
